<mxfile host="app.diagrams.net" modified="2024-04-24T06:00:29.592Z" agent="Mozilla/5.0 (Windows NT 10.0; Win64; x64) AppleWebKit/537.36 (KHTML, like Gecko) Chrome/124.0.0.0 Safari/537.36" etag="HhAyUP4ExLNUK0Rd2UKJ" version="24.2.7" type="github">
  <diagram name="페이지-1" id="fnB7gk1pu4qY3jE-Bl09">
    <mxGraphModel dx="2721" dy="1021" grid="1" gridSize="10" guides="1" tooltips="1" connect="1" arrows="1" fold="1" page="1" pageScale="1" pageWidth="827" pageHeight="1169" background="none" math="0" shadow="0">
      <root>
        <mxCell id="0" />
        <mxCell id="1" parent="0" />
        <mxCell id="pyKBCwHcKjXSGV7HvNYQ-9" value="" style="dashed=0;outlineConnect=0;html=1;align=center;labelPosition=center;verticalLabelPosition=bottom;verticalAlign=top;shape=mxgraph.weblogos.json_2" vertex="1" parent="1">
          <mxGeometry x="-200" y="617.3" width="80.4" height="25.200000000000003" as="geometry" />
        </mxCell>
        <mxCell id="pyKBCwHcKjXSGV7HvNYQ-10" value="" style="dashed=0;outlineConnect=0;html=1;align=center;labelPosition=center;verticalLabelPosition=bottom;verticalAlign=top;shape=mxgraph.weblogos.chrome" vertex="1" parent="1">
          <mxGeometry x="-590" y="647.3" width="28" height="30" as="geometry" />
        </mxCell>
        <mxCell id="pyKBCwHcKjXSGV7HvNYQ-19" value="" style="group" vertex="1" connectable="0" parent="1">
          <mxGeometry x="-45" y="440.00000000000006" width="180" height="169.9" as="geometry" />
        </mxCell>
        <mxCell id="pyKBCwHcKjXSGV7HvNYQ-74" value="" style="rounded=0;whiteSpace=wrap;html=1;" vertex="1" parent="pyKBCwHcKjXSGV7HvNYQ-19">
          <mxGeometry x="16.919999999999987" y="39.89999999999998" width="160" height="130" as="geometry" />
        </mxCell>
        <mxCell id="pyKBCwHcKjXSGV7HvNYQ-11" value="" style="image;aspect=fixed;html=1;points=[];align=center;fontSize=12;image=img/lib/azure2/app_services/App_Service_Plans.svg;" vertex="1" parent="pyKBCwHcKjXSGV7HvNYQ-19">
          <mxGeometry width="54.367999999999995" height="54.367999999999995" as="geometry" />
        </mxCell>
        <mxCell id="pyKBCwHcKjXSGV7HvNYQ-13" value="" style="shape=image;verticalLabelPosition=bottom;labelBackgroundColor=default;verticalAlign=top;aspect=fixed;imageAspect=0;image=data:image/png,iVBORw0KGgoAAAANSUhEUgAAAGQAAABkCAYAAABw4pVUAAAAAXNSR0IArs4c6QAAEPZJREFUeAHtXXtMW9cZR91WTdM6Vd1bUzVtU7d/umna1GmaNlX9Y1PVak+1qlStTdpmSZo0aZY07xckgZCQkCcEEt5gbMwbYzBP8zDYBvPGYGMTQgiQAIakTZp3zvRjdepcn3PutbnGBhkJ3Xu/c+/5vvP73XPP4/vOcURE+C+MQBiBMAJhBMIIhBEIIxBGYJkhEEkin8ozlb+S3lIYm1ibqztZk26K06UOLOb/qepMc0K9oibNUBCf26Z9Va/Xf3WZwcwvDkjIMhZvA+gbcg4+eDdlGwml/3U5UQ/jKlIcGYaiqGVLjnPW+aJlois32aDs3KSKuR9KBPBs2Zh78EFCk6K3Y7JHOeCyHeW/aksoVdFZcnVtzr6Qqgk8IoRpa7L2ksSWTGKdta1dQrB7m1rSVvV8TEXyuLCAS/V6e1HcQ5VF9xvvki4BicJc/ubHudFL5vMk9SX5MCvyUZaxZOMSoOBLE2Hw6sy9j6QWckXqdrJReYDsKD5K9mniyQHdmUX531d+Yl7nx6qDZGXadsmf1PfTdpL0lqLYL0scwmfZrWVrPkjfJVq499N3kkjtSZJuURGts5pUX6oL6n/FxWqS1amefxFWZewWtf+9tB0E3fUQpiIiIre17OUPsyMf8mrGyrQdJLbmHNE4KoNKAO8F0DqryPH68+R9kRcLxKnMFe+GJCkai+YbOwriPueR8V91NMnvLw1ZIoQkFdvKybaiWG5t2ag4+KCwU/vjkCPlTF12A4+MPWXxBJ8FYaFD/bpqpJbEVCVwSYnVnneGFCFKc/nraOhYhKCtqLpUu+TI8HxZjtSeY5YP5c40lOwKGVL2l56eYZGxvego0Y3ULGkyQAxeKPTKWOXcooq9W2ozPBN0UtINRUdZRq7O2kNKhyqWPBnumlIxXE3W50YySTlXp9QElRC1Vfccb/CXbMpZNmS4ScnszGMSsjpj7yN1W/Wvg0YKryH/pCBmybcbbhKExz1lx5mkHKm8EJwGXmWq+D1rAIWRd15/ybKrHW5iSuxagoEt7VO9ImU7yTGVrVv0WhKtSZygGQQZuolu45fr8Vj9eSohKP+O/OO3FtWXAgcTi4z/ZO4mGodu2ROCMdU6xX4mKRca8zIXpZZgRL5FHXuXRQj8Bsu1VgjLldqeyyQEnsdFGcGja8ciY1PeIVI9EtxJQiFogb7GDDULj/jqjK6A1pKCjtpfsabV0Zjl9hQGpXbUXKon+A80+LT8Cwc0BBOmNFIwI6w0a/4ZMFKOVCQP0xRDFlVxatEBaRwz3B902SOtxPr0CBn5+sCs7VDjmOEBDbhAymJrEqmEAJfIklOzASFEYSpbjVpAIwT+j1L74o7I60cbHw3NjXgNwuw3hl+qG214FEgChHlXDFeRNdl7qdgAr7TmwmOykmKxWL62s/D4LRoZkJ1qTlv02tF7rbeUVcieqZ56IWiBvk4yZjMJ2aA4dF/dWfFdlr0+y5MbVQoWGXC9BmPy0OaybWIVxOoajAo0AcL8Mfn4ScFhJimY1WDZ65O8sL32pzwvYEZHnqy1o3608WHruPlG45jhnrDQnteDs0NrWAUZnLHv9Lx3sc5VfSUEsxS0l3dV+m6iNJf/iWWzZPkxXWofTQFkezTHZSMDvSR8htA4u42zz9lXNI213KcB6i8hbROWqwOz9vXOz5zfc7gcf+m+1muUs4d2sPI0lRDgFV2edMVdNr+O6vaKN9B1oxEChxRcnDSwfJUBEKtrMJlmpM3lfLV2VO+lxx9C2ictY3riHbs7MDN4Vi5Syh06ArcDDTPI0puLdtDKKSpDDO6+4pPXWRkjCMBX4Fn390/3X+AZZJ5snxI+6w8h6IGx9FhnBhKFOvy9PmtIZxLySV7sHcx2sOxgytMMBYksMjCHU3lRHi9gz1RfM9OILxIs17r7heD4SkjD5caHYnp6p3r1Qj1+XY/UEQR0sPBLalAVi9nyRLq6Tf8DXmR6artSltphmrRM0z4hTxgTERFhnDBfFwLjKyH47Dlcjm8J8/a8JoQ8RauNQt1SrhXdBYQ1boMjK6dV+0tP3dxzrNNgsbu9+IgsZGDw5rzu/C3XkIiICDTstO+7r4QARKvLKjpAg031Mg0seT74uMoUu1jZ59PheGIFiK1M3U4KBspkIaRnekAlZpBj1vHXhstND2lvpD+EYHSPPMX09s9Y1TSdvsoQT8CK4kT3OMekeUPMloijlamDrNoRW5soCxlNYy33JiYmuA0buqQsMgCMP4TgOcx18Rp3AGSdsn5TbBwklZwTDanMtuSQJnGSS4iqrfKl9xjxVZirwZyNVEN491lnBlJ5hozMjTxrGDd+zsvDX0KQp+FK6x2ny/k8z4a+a9Ycnn6pabqRWvJRbhSVlPkZ8jYNu8ZinR+rdiS2ZslCBtoO+6f27/DA6LjW1SdW4IUQgrw7rnZ382y4ePPi9+WapEQniIXriar0DqYd6CPTHkQ3V675qo5r3VamAREREYOzQ2+LkYH0hRKCjoLd5XyLZ0vH1S6nFFvE7sE8F5x3NGwxLUX1v6Mxpz0A2cnGVFlqBwy3zdj28EBon+y4LFZApC+UEOSBLi7PFqwrlGKLlHt4s8EKU9k7XnakNhWcoxGC7xzCXqQoFbtHbCzgmHO8TOvi0vKVgxDoovlU3OCgnaHp9keGJQ4sz2KCXlHh1vn4CP8vjZANqgOykIFCtFwx3nqskHLSN2MtkFpYOQiBrr6p/jKKKY9F6BFKtUnsvq0F9KUNh7XJlx8rdJ8c1CRcpRGCyHUxRVLTLVe7HG59tGPbpGVcal5yESL22fLFJjHbY6rprt7N6pgHXnhsUR+mLuKXcxKxe6rH4KXYQ8AbdwgLKxchmN73MMHrFL0xoW5/r88aMugNe84+MjgztOGxctvs0Fp4/mg15Exzhmw1pHfGmv9YKeVEavsBQOQiZL63xemGd0/1VftLgPC582YFFWMEF+Jz/nheDw4bFiFnW2QkZHogl8LDvGjsxthzwgLwrm2ztm2svKwzg4d5zwrThm8Mv8DKC22M8H5/r1PM9MA6+E+eIATGbFHHUD9Z8Q0pstWQ/ul+JavgvvZoeqZ6Wll5dfn4mcFUCSuv3un+En8JED6X0JJJrSHrcvZ71/io0tPTtE9WdNUZ2Qjpm+rXsQoOOSb/hIVgXaMLbXM53hTmZ59zvFMzKj1oDvkI8/C8ls1HcqmOHKtPphKyRX3Yux2LY0wqbsmPkY0QvLmehRWeG8fNn7IIoMnrRhtI73R/hX3O+Y+huaF/9U731QBg2r0sGebMhHZ4XtOcY6y8xOQ7S+OohESXnxv31Dl/ntSgzKPVEPjU5ZpUNE+0XfNS7CGQs/Bi4LjTxV4S02T7jPvehRwx9YTGm4bxmbqsJg8Y/n+qNGreot0MWbJRnqVp6NZ6KfYQ2GaGNi6k0P48iw6Ahwlep3D9+pOv8BnsWMHCF8s7vBSrreqnWfFXGGEKFfh77ZxzvuKl/AsBun2I1/U3b1+fa7zc/IDXoA+5hv7sa56s+1nL4ODAwlpNKibxVak9LBazuwpkIaVvuo/r4O+Z7tewCiW3HD0oKhBfCGGrHDqxe8W7qfSd82K0Sd7TJm6jco3lK1iEIIpCjrUfiEp066Md4UlsvtJ6Rw4geHnAc4hgOZoNblnreNsNXh5S03hrSEQ3HNhXfGqWRcq5VnlWRzlcDq4vGW2JL6N2qcC470PevJE+CEHPzX3/Qo5pHOfUVvXR21RfiPuNwBHbK7EIwYiy3Lnw9YOWyU7RiAsMIhcCBO/Z3mlruWeZaeeWyS47Lw8pabqLNWS9gr3RQIahOIam20sG5zuLlJjqha+wxRs6NDv0updigSAQywq6p/trBWq8LhG+KkcNjdezV+ruLjpxA9GhXsppAnVbxcus8BXsvKaWYYslsWlvt129UwMZvg72aG8vAEbggjtf3hEB2bQ8fJGV2Dhr2REC1FL6b54NXmmna7ObWbUEe0j5YhzrXuv0QIqXYooAbY7hivE2Kx8xOSIfMZKnZO0lsroGk8Tyk5K+VxPPHHcc06Vw4wq8jIKgaLD227x9TC6YFQsmBVEd+DxQDRAIMUaBjxuzolIAQY0wTbS5rDODpxEiKsiOeolYMDkiTbI685lkrM3a90hl1v6caoCYENtvs2oJ9uHF7jhSwOHd03Sl5a7t+qWfiNnimY4ag/GK5WrnKLrRhnHjbRBlmjDPocPQN23NkxKm6pknZpubr7Tc5dkqJU13sZZsVNF9S8AyuUGt9tTr8/n+0rPMvbCO1iUvmBAUEmD6SorPBeE8gPEIyJQCuNg9WG/Jeom3qo/cSdfrHy9I4pjETlK2l/+NFc2IKAqs0xYzUkp667jps+FPh/2rymzzRVMc1x0/k2sAWDZUSVgb8oCk7NbSj0UNknJDvC6tk8X6rtJjshAC0hBPK7XxlWK32D322eHX5IwqwVp9Fk4x2uRRMXskp6u7NT/6SHGAuf0rZjKl1AIp96CLCx8HNgOQbKCPN6KR75sZyK69pJfsEBOzXdVbzJyvml/w2Vb+Bx/N5N+e3JSXxmIf295hVCpmtC/prVdMN3lLn/nWslMR0OGrI0zU7pE6slkdw6wdCXU5ooNRtsWMFDVRf2VXUfxnLFIQdi9quB+7V2MMMeiyxYktX2CYPS9GbYPfwzQhj7NJWE4EorNw2aSMvlfcpX+WZ5/faUqT9h3WOuwPMnbKFnIqLDCusaoJwc8YuPF8Ku7C2WeH/zjgGoxHN9iXeC+abp5Mi201stjbakier3Ib7usRS7FYbwOWcPGMlzMNbQ3WeWDwh6kOLHnGdAxG9HItSZNib3Q1e5Pl/SWnZ3zF1+f7C7qqX8BPNrBIye7OXzRSpAAWyHvgeFqZSl/Hj6FCnqnyNZ8B9ueB5AZVIYuQjaqDBKPVQAIRKnlvLaQHTwObE9UZbf5g69cz8L9vy4+7zSIFC+dDBbRA2YG5PFb51+dEPcSvC/kFrr8PYStU1jrsVZm7CUatgQIj2PlWDtcQRBuyCElpyufuTOEv5qLPwUHPMgqbsAQbuEDpP1qbxCRjZ8Hxm6JuWVFk/bxB3a753ar03fQGPnUbweg1UKAEK1/eHosYEiiN2pV+winPYwl6RTWrluC3nbAsOFjgya53pI5sLWRvUhanS7XJg+oCcik1lD6zWRVzj0WKXJsNyA6uH7MGp5rYU+trMvc9KmqvenEBUMr3KH6mlEUI5HIu+gkWMentKu4vuSXplUXyISpDTtHl58ZYpODbirURwQJzoXpT2hSE9wtCaMgX7HiSgYMnslC3V/4C22uzSIEc0wxL6XeoMMDFGktWGCjKhOgcVbv270+AESoXWS3Fe1hbArqJ+kgZReTeOHOhNYD2vKK7kLsJmbs8F5ryM0IFf6od55uUuW5jecfN+TEkyZhFMFtKAyQYMgz4MALfVnSEOc7wLBN+i50KQqgJE+sVVaxRvGeBcI4ataUghkRXnSUnG1NIoiFjUf+xbcjhqoT5PXdZP9IitBnX8VXp3ZIjD0OBIFRlsc8XraChLsOLdrY+Rx8KGPtsQ66xbNUm5dL5QXuxl2F15h6S0VoU5TMQofRAoUX3wyM1STd9+TVmMWCCkb6rNI7onS3cnYxCCXeuLdhxp2pI33RAe3aO5dAJBshiOvF52lNy8mZRX6WRtdEzt+BLIRGR9SdrMtpD+VO2UXHoARptlSlExxeBIlphLn8zSZ+Xc6wqrT+y5IxrR8HxW4jSWMx/6IRuRKSjy55j1ry9pHpPgSInnG8YgTACYQTCCIQRCCMQRmBZIfA/HrKbR+xT+NsAAAAASUVORK5CYII=;" vertex="1" parent="pyKBCwHcKjXSGV7HvNYQ-19">
          <mxGeometry x="32.07307692307692" y="61.164" width="67.96" height="67.96" as="geometry" />
        </mxCell>
        <mxCell id="pyKBCwHcKjXSGV7HvNYQ-17" value="Application Server" style="text;strokeColor=none;fillColor=none;html=1;fontSize=24;fontStyle=1;verticalAlign=middle;align=center;" vertex="1" parent="pyKBCwHcKjXSGV7HvNYQ-19">
          <mxGeometry x="70" y="6.8" width="124.61538461538461" height="47.571999999999996" as="geometry" />
        </mxCell>
        <mxCell id="pyKBCwHcKjXSGV7HvNYQ-18" value="&lt;font color=&quot;#2ebd65&quot;&gt;Spring&lt;/font&gt;" style="text;strokeColor=none;fillColor=none;html=1;fontSize=24;fontStyle=1;verticalAlign=middle;align=center;" vertex="1" parent="pyKBCwHcKjXSGV7HvNYQ-19">
          <mxGeometry x="-15.003846153846155" y="115.532" width="166.15384615384616" height="54.367999999999995" as="geometry" />
        </mxCell>
        <mxCell id="pyKBCwHcKjXSGV7HvNYQ-82" value="" style="shape=image;verticalLabelPosition=bottom;labelBackgroundColor=default;verticalAlign=top;aspect=fixed;imageAspect=0;image=data:image/jpeg,/9j/4AAQSkZJRgABAQAAAQABAAD/2wCEAAkGBxQQEhMSEBAWExATFhgYFxUVGBUfIRsVFhUWHRgVFxkYIiogGBolHxcWIzEhJSkrLy4uFx8zODMtNygtLisBCgoKDg0OFxAQGC4gHyUuLS0tLS0tLTctKy0rLS0tLS0tLS0tLS0tLS0tNS0tLS0tLS0tNS0tLS0tKy0tKystLf/AABEIALQAhwMBEQACEQEDEQH/xAAcAAABBQEBAQAAAAAAAAAAAAAAAwQFBgcCAQj/xABJEAACAQMCAwQGBQcICgMAAAABAgMABBEFIQYSMQcTQVEiYXGBkbEIFDJSoSMzNUJic4M0coKSsrPB0RVUdKKjwsTS4fAWFyb/xAAbAQEBAAMBAQEAAAAAAAAAAAAAAQIDBAUGB//EAC4RAQEAAgIABAQFBAMBAAAAAAABAgMEEQUhMUESUWGRBhMygeEUUnGhscHRI//aAAwDAQACEQMRAD8A3GgKAoCgKAoCgKAoCgKAoCgKAoCgKANB5QFAUBQFAUBQFAUBQFAUBQFAUBQBoCgKDzNB7QUjtR1i4tbdDbnlDsVdx1G22PLO9c3Jyyxx8nteCcbTv3WbJ3ZO5PauuCeL4prZO/nVZl9FucgZx47+dZad2OWM7vm1+IeGbte/L4MbZb3OvktEGqQybJPGx8gyn8M1tmWN9K87Pj7cJ3ljZ+1PayahQFAUBQFAUBQFB6aDygb3asUcIeVyp5T5HGx+NL5zyZa7JlLlO535/wCGO8GcSy2t+8d5KSJGKOXPRwcA79B4V5+jbcc7Mr6vr/E+Br3cXHZox9J3OveVsN1eRxLzySKifeYgD4mu+2Sd2vkcNeey/DjLb9FH4j4+090aFla4QjflXbPqLY+Nc2zka7Or5vb4ng3Mxs2dzC/W+bPu+0tifydwg9RU/wCNc3xaflXt/k+J4zy2439v4Gs6VbxwLc2VyzDnCsh2ZSQSM/CpnhhMfiwrPicjk5bbo5OE9O5Z6VrHZzqDz2UbStzMNsnxA869DTbdcr5DxLCYcrZjjOpKtVbHECcUDJtVgBwbiIHyLp8s0U6jkDDKsCD4gj5iiO6AoCgKANAUBQUTjPs/W9k76J+7lOObbZsePt9dc+3jzZe++q9jg+NbeLr/AC7j8U9vPrr+DfSOzRFwbmUykdBk4x6gaYcfDH18/wDLHkeM8jb3MesZf7fK/f1Wu24btoxhYEx6xW+SR5eWzLK95W2kNR4QtJ1KvbqMjqowR6waxy145zqxv0cvdpylwys6+vl9mAalbmGWWHOeR2X28rEA/hXkZT4bY/RdOc24YbOvOyX7xsnZRdr9R3IHISGz4Y8TXp8ey4R8J4zruHLz79/NCcZdrAiLQ2ADuMgzN9kH9hf1vadvbW7t50nzZfqfENzdEme5kkz4Fjj3KNh7hUZSSGIainun6pNAeaGZ4z+wxHxx1oddtL4R7U2ysV+AQcATKMb/ALajb3j4VZWNx+TV4JldQyEMrbgjy86rApQFAGgKAoCgzrtf4sudLS2mtuUq7lXVhkH0cj2dKCD0HtzicAXlu0bfej9Ie3HWi9L9pPG9jdAGK6TJ/VY8p94NDpnParw73Uv1uIZhmxzEeD+fsPzrzeVq6vxT0r7HwLnzZr/IyvnPT6z+FMh1SVIngSQrFJjmA8fVnyrThtzxnUr1d/A0cjOZbJ3ZOkWbVa2zlZxxZ+A8XL07n7j6t66znMvvHNn+Hdd/TnZ+zzuD7aznLx945Mvw9unpnL93QjNX+qw+TC/h/kf3RzHICcAjNbLukndxvTl1+GXZncMdmNs9u2ndlfFbROLSZsxv+bJ8G+77DTDkY5Xo5fg2/Rruy9WT16bGK6HjCgDQFBA6zxhZ2cqw3VwsUjLzDmDYIzjqBigXteKLOX83eQN7JE+RNBV+2TSPrumSNEQzQkSjG+y/aAx6s0HzPFUZQ9iosSya5OqGITv3Z6qWOMeWDUsmU6rZq2Zas5njerCltch/U3lXmbtFw8/Z9x4f4pr5Ukvll8vn/gvXO9YUBQWPgbh0ahc90zFY1UsxHXAIGB7zW/Tr+PLp5nifNvE0/HJ3beoW4wh0wT/UbS1ka5VxH3qOB+V6cuGB5t9j0r05hJOvZ8Lt5OzZn8d6l+k6/wCEBNp91YTclxGVdCCrbYPiMEVxcjXjrsyx+z6jwnmbeZhlp2zuSev/AK+i+HL/AOsW0UniyjPtxvXfje5K+T3Yfl7MsPlekpVawaAoMd+kPoBkghvEXJhJR8fcbdSfUDn4igwSJ8UWJC2u3Xo7DPkT0qLC0SjyFRlDqOBT4UOnZ0/P2W+P+dXs6NnjZD6QxSyWdVZbje5eqdQXpGzb1ybOLL54+T6Dh+PZ6+sd0+KfP3/k9SZW6H3Vx5as8PWPo+PzuPvn/wA8p38vS/Z1Wt2J3g/XzYXKzY5kIKuvmp649YxmtmrZ+Xl24fEOHOVpuu3q+sv1d8W8OC4uHvdNuI3SVu8KNIkckbk5YYcjbO4I/wDNepjtwyncr4bb4fydWVxywv7TuI66eUKVuJu+nZgzNz8/KApUJzbgnfwJAri5W2ZWSefT6TwLg7dEy2Zzrvyk/wC1q4E4+u4Qtutj9YhU4DISpA9pyp9m1dur9GL5rxDr+p2dfOtpsbjvUVypQkbq3Ueo1scZwaAoGmqWCXMUkEq5jkUqw9RHzoPkvjfheTTLp4JM8u5jf7yHoR6/A+ugh4mqMofRNRYewtUWHsTUZQ6MYcYai9doOeIoxU+Hyows6eA0JevOF0nYeNa8tOvL2d+nxPlav052z5XzLrdGtF4mPtXpYfiHdP1Yy/6KC49VT+j+ron4j8vPX/t6Js+FJw575NeX4izv6dc+7YezzgYwhLpbmRS4DFAfROfNa7MZ1JI+a3bLszyyvrb200Csmt6aAoCgrPHXB8Oq25ilGJFyY5B1Vv8AI+IoPmHiLh2fTpjDcIQRnlbwYfeU0WGkTVFh9C1RlD6JqMoexNRYjdZYc488CkY5epmDRi7BoFAaKUBoH2kW5lmjQfrMPnQt8n1DpcHdxRp91R8qyazqgDQFAUFR454+ttKQ943eXBHoQIRzHyLfdX1n3A0HzZxZxVPqcxmuG9SIPsoPJR/j1oqLieoSn0D1GcPomosLS3oQeZ8v86dLb0iXkLEk9TVYd9ugaBQGoOwaBQGir72SaOZ7oSEehH86sTKt/AqsBQBoIbX+J7WxUtc3Cpj9XOSfUFG5oMY407bJZg0WnIYkO3fP9r+iOi+070GR3Nw0jF5HLuxJZmJJJ8yT1oOAaDsGilUcjoailhO3maHdANB2DQKg0V2DUHYNAtEpYgDcnHxor6L7MdA+qWqlhiR9zWTC3tcqIKCq9o1jeTWjDTpzFOu+BjLrjdAfA0HynqbymVvrBczA4bvCScjwOaBnQFB7mg6BopRTQKA1FKA0HYNAoDRXYNAoDUGhdlXChuphNIv5JOmfE+dWJb7PoGNAoAA2FVi6oCgDQZ92i9mcOpgyxYiuwNnHRvU48fbQfOfEGgT2EpiuYijDofBh5qehFBFUBQeg0CimilAaDsGorsGgUBoFAaKs/BXCkmoSgAERA+k3+AolvT6T0LSEtIlijAAAHxqsUjQFAUHpoPKCM1zQoL2MxXMKyIfMdD5g9QfZQYtxd2HyJmTT5Odd/wAk/X2K3j76DKtV0S4tWK3EDxkfeB/A9KCOoOgaDsGilAagUBopeCJnICqWPkKDQ+C+zGe6KvcAxxbbHqR66Ja3jQtEis4xHCoAAFVEnQFAUBQFAUBQFA0vtOinUrNErqfBgDQUrWeyPT7jJWMxN5ocfhQVO97Bk37q6YfzgKCKk7C7gfZuEI9hoFbbsMm/XuFHsFF7T2mdiEKkGaZn9QodrzonBFnafm4Vz5kURY0QAYAwKDqgKAoCgKAoCgKAoCgKAoCgKAoCgKAoCgKAoCgzLtt4ru9NjtWs5u7MjuG9CNshVUj7anHU9KDO+Fu1jUpLy1S4ug0DzRrIO6hHoM4U7hQRsc7GgsXa/wBot7Y3/wBXspxGixIXHJE35Rixzl1JHolNqDzsh4/v9Q1DuLu4EkXdO3L3cS7qVwcqoPiaDcKAoMP7XuP7/T9Q7i0uBHF3SNy93E27FsnLKT4CgpsPbFqytk3KuPutDDj38qg/jQbF2V9of+l0kSWNY7qHBYJnlZDtzKCSRg7EEnqN99g0CgKCu8a8Ww6TAs9wkjo8gjAiCk8zI7AnmZRjCHx8qCO4I7RrfV5ZIreKZGjQOTKEAxzAYHKzb70Gd6rr3EonmWGKbuhI4TFtEfQDHlwSm+2N6DZ9BeRra3a4BE7QxmUEAflCgL5UbA82dqCQoCgxj6Sv5mx/eS/2UoMNiRkCTY9HnIB/aTlYj/eFBZu0q5+t6neSpuvonI+6kUa5/AfGgkuxS07+/liLFe9tJ05lOCOYKOYHwIzmgT7NNcng1e1WaaRgZTEys7EZdWTcE+DMD7qDvtd1ib/S92sc8iorIoVXcDKwoDgA+eaD3tst+6v4oySSlpApJ6kqpGSfE7UHK6nB/wDHTbtIhuje8yx5BYLyDL46quARn3UE/wDRygb65cyYPdi3Kk4OOYyIQM+eFagqnFfFdzrF5yNMywvL3cMWSFVWfC8wGxO4JY5PuAFA11eC40S/khgumEkDLiRMqGyoYErkgjDbg5HXrQXHtdu7m+sdOvy5FrLGivGGPL9axKSwj6dFcBuuDiggOyDTrua/jNnI0aRPE8/LIyc0AlXmUgH0wfunY0EJxFq9wLu5AuJQBPLsJH6d42w3oL12ocW3CW2m2cUrojWMEsjKzBnZ05QrMNyByk4zuW36Cgpt5w/Jb2NrqYuDm5kkUKvMGUxsw5i2dySjfh50G4dh3Es99ZSLcP3slvIEV2J5ihUEc5/WI33O52z50EF9JX8zY/vJf7KUGTC2zpRl+7ehP61ux/5BQdcLwc8OpOdylpn3m5txn4ZoLP8AR+/Sv8CX5rQRnGsI03XZXH2Y7lJx7HZZcD2cxHuoG2qj6zrsgO4l1Ar/AETc8oHwxQTn0gf0r/Ai+bUFcThPOlHUxN9mfuTFy+GAecPnzPTHvoL92BcVSmc6fI3NA0bvGMDKuuCRzdSCuevTAxQQfE93o9jPiwt5bi4ifPeNKwjEiNkYAGZACN8YB8DvQU/i67uZ7uWW9TkuZORnXl5cAxqUHL4ehy7Hfz3oL/xQf/ymmf7Uf+soF/o2/wAsuv3A/vFoMy4l/ll1+/l/vGoNc454BmvrDTry0XvJY7KBJIvFkEYZWQeLAs2R1O2NxuGc8O8WXGnHumjSaFXy1tcxhgG6EqGGY2x4j3g4oPons24jtdQt2ks4Ft2VsSxKqjlbGxyoAYEdD7fKgpH0lfzNj+8l/spQUfQrAS8OagxGTFdQuvtwiE/1ZGoOOBbPOk63NjpFAg98pZvktA7+j9+lf4EvzWgkvpG6cEvLecDHfQlT/Oibr8HUe6gqfZdbG61i059z3plY+uNWkyfetBNfSB/Sv8CL5tQV9eKwukHTREeZrjvjJkY5eUYUDrnI60E52DWbSaoHUbRQSsT/ADlCD8XoKRYSLHcxtKPyazKXBH6okBYEeOwO1BOdqGqRXep3M9u4khcpysMjPLEinYgHqDQW7iRCeE9OI/VuST7M3Y+ZFAw7Ctfgs72Rbhyn1hFijIVjmUyLyqeUHGc9TttvQUbiX+V3X7+X+8ag0ntE1u+sodJa2uZYbeXT4BhGIBlRBz5A8eV46CA4n1u3vNKtGkk73VkmcTOwbnMOZCvO+MMADGBucfGgvH0ardgL6Q57tjCo9bL3pPwDL/WoNT4l4UtdSVFvYe9EZJQc8i4LAA/YZc9B1oG1lwNYw201nHbcttOQZE7yY8xGMHmLFh9kdCOlB5YcCWEFvNaRW3LbXBHep3kx5sYx6RYsOg6EUHPD/AOn2Evf2lt3UvKV5u8mbZsZGHYjwHhQY/xrwRrl/cSGSFpoUll7jmmtsLG77coLgjKqnUZ2FBauyTswm0+c3d4yiUKVjjQ55ebZmdumcbADPU70F24g4B0+/l7+7tu9l5QvN3ky7LnAwjAeJ8KCO/8AqPSP9R/41z/30Fg4f4ZtbAMLO3SHmxzFcknHTmZiWOMnqfE0Fb1zsn068n794pI3ZuZxE+FdicksCDjPjy8vXzoF7nss0qQ5axGcKvoyTrsqhRsrgdAMnGSdzkmgm4+F7RbQWIt1NmAQInLMN2LdWJbPMcg5yPCghrXsu0uKRJY7LlkjYOp72fZlIKnBfGxA2xig5uOyvSpHaR7LLuxZj31xuzHJOA+BufCgnL/hi1uLdLWa3WS2jVVRG5vRCLyryvnmBC7Zzn10FNHYjpnec+J+XOe77wcuPLPLz4/pZ9dBfNI0mGziWG2iWKJeir5nqSTuSfM5NA/zQGaAzQGaAzQGaAzQGaAzQGaAzQGaAzQGaAzQGaDk/wDv4UH/2Q==;" vertex="1" parent="pyKBCwHcKjXSGV7HvNYQ-19">
          <mxGeometry x="115" y="63.489999999999995" width="49.22" height="65.63" as="geometry" />
        </mxCell>
        <mxCell id="pyKBCwHcKjXSGV7HvNYQ-27" value="" style="group" vertex="1" connectable="0" parent="1">
          <mxGeometry x="-420" y="449.90000000000003" width="171.2" height="160" as="geometry" />
        </mxCell>
        <mxCell id="pyKBCwHcKjXSGV7HvNYQ-20" value="" style="rounded=0;whiteSpace=wrap;html=1;" vertex="1" parent="pyKBCwHcKjXSGV7HvNYQ-27">
          <mxGeometry x="11.199999999999989" y="30" width="160" height="130" as="geometry" />
        </mxCell>
        <mxCell id="pyKBCwHcKjXSGV7HvNYQ-2" value="" style="sketch=0;aspect=fixed;pointerEvents=1;shadow=0;dashed=0;html=1;strokeColor=#001DBC;labelPosition=center;verticalLabelPosition=bottom;verticalAlign=top;align=center;fillColor=#0050ef;shape=mxgraph.mscae.enterprise.web_server;fontColor=#ffffff;" vertex="1" parent="pyKBCwHcKjXSGV7HvNYQ-27">
          <mxGeometry width="38" height="50" as="geometry" />
        </mxCell>
        <mxCell id="pyKBCwHcKjXSGV7HvNYQ-21" value="" style="shape=image;verticalLabelPosition=bottom;labelBackgroundColor=default;verticalAlign=top;aspect=fixed;imageAspect=0;image=data:image/png,iVBORw0KGgoAAAANSUhEUgAAAOYAAADPCAYAAADhya1FAAAAAXNSR0IArs4c6QAAAARnQU1BAACxjwv8YQUAAAAJcEhZcwAADsMAAA7DAcdvqGQAACkmSURBVHhe7Z0JuBXFlcePURRBAQWMiCubC+ACGlwQRQUco7ggA4obxl1jJhmNGBQN4xpjZowOcRtxFyXgGgfFJVFQRoMaUYOiIhLQgCigiEZCz/tP15v06/e/t0/f7r5d1fb/+37f6653q7r69q3u6qpT56wjIl4DpUqVskjfMX9LlSplkcqGWaqUhSobZqlSFqpsmKVKWaiyYZYqZaHKhlmqlIUqG2apUhaqbJilSlmosmGWKmWhyoZZqpSFKhtmqVIWqrSVDWvbbUU6dfL57ndF2rcXWbVKZMUKn2XLRObM8f+Wqq5NNhHp319kt91EOnYUadfOp2VLkSVLRBYvFvn4Y//vu++KvPyyyVgKQsP89rL55p6cf74nL7zgiefpmTfPkzvv9OSsszzp1o2X/W1k6FBPJkzw5K23+PdWjY8/9uS66zzp0YOX/e2CJhafli09GTvWa3ga8h9JXF580W+kbdvy4xWZww/35PbbPfniC/7d1MKUKZ5stRU/3rcDmlhsDjzQk/ff5z+INLj3Xk+GDOHHLgpbbOHJVVd5snw5/w7SYMUKT444gh+/+NDE4vKLX/AfQRag8aOb3KEDr4uL7L+/J7/9LT/frLj6al6XYkMTi8kNN/ALXw/uvtuTLl14vVxg4EBP/vhHfm714JFHeL2KC00sHuh2sQteT77+2pMrr/SkVSteRxvZfXdPnnqKn0+9uf56XsdiQhOLxQ9/yC90Xnz0kScjRvC62sI229S/y6ph1Che3+JBE4vDjjvyC2wDzz7rSffuvN55cu65nqxezeucNxgQ6tSJ17tAFN/AYMYMkX32MTsKffCByL33irz0km9Q8J3viHTo8A/69pWG7p3IFluYDClo/HiRSy4xOzmqSxeR224T2W8/k5BQCxeKzJolMnOmyCuv+EYFS5eKfPqp//+uXUUGDxY5+2yRnj39NI2mThUZNszsFFfNWmthOO44ftdlzJnjT46zchibbebJCSd48txzvLy4vPOO19Ag+LHqQVpPybff9hpuNJ5svz0/TiXQtV+5kpfJ2HNPXk5xoInFYOFCflHD3HUXz6+la1d/UGfJEl5+HO64w5N27fhxsqBzZ0+efprXJQ4TJ/oDRewYWnbYwZP583n5YZ58kpdRHGii+8AKh13QMHjPY/lrAdZEePJgcIcdSwt+nH378mOkyfDhnnz2Ga+DBuS9/HJPvvtdXn4t4P1Re4Orx3eUHzTRfV57jV/MIIsXZzf5f/LJnixYwI+rBTcXVnZS2rTxewnsmBrQ5UV3tXVrXn5SYO3Djhvm5pt5/mJAE91mt934hQxz9NE8f5qMGZPMHnfSpHQbQK9ennzwAT+Whltu8Q3/Wdlpgp4MO34QvJNmdXPIH5roNhqzO1ixsLxZgB/ybbfxemiYO9eTnj152XGAjXCcAZYgzz/vyU478XKzYO+9eT3CoDvO8rsPTXQbjYH6qafyvFmCd6I33+T1iQIrN4YN4+VqwPmycqP4/HNPzjyTl5k1f/oTr1MQDJaxvO5DE92ld29+AcPgPYvlrwcXX8zrpAGjv6zMasAInJUVxcMP+6tIWJn14IwzeL2CfPIJz+s+NNFdfvxjfgGDPPggz1tP0DV9+WVevygwVaCZUsEo8dSpvIwoRo/mZdYTDMyxuoXZZRee321oorto7DtPOonnzYOLLuJ1jALddfQOWJkABhC1NPzXX49vHJAluAmxegY55RSe121oorvAPQW7eEG2247nzYt9961t7hPvnYcc0rw8DNJojSuCwCVIuKy8GTeO1zXIrbfyvG5DE92kY0d+4YIsWsTz5g26bU88wescBeZMG8vZdVdPli3jn6vGyJFN62MLBx3E6xukniPs9YMmugmePOzCBcGABstrCxdeyOsdBbrnffrEt+TBao08bXSjwLs0q3cQTAGxvG5DE93ktNP4hQty6aU8r00MGuQ3GFb/asSdo0T3GQYHrA428Ze/8PoHwTs1y+soxXL4vN12ZqOK4L/Udk2fLtKvX/y6bryx2VDoz38W2WMPkTfeMAkW6803zUYVdetmNoqhYjXMzTc3G1WENYIuaO5cv+E884xJSFFYa4o1qn/5i0mwXAsWmI0qSnN9rAX69jXMRYvMhgNavlzkwANFbrrJJKSgJ58U2X9/aXgXNQkOSHPN4DW/QCpWw9xsM7NRRY2r513SGWeIXHaZ2UmgSZNEhgwRWb3aJDgihFGIUtkwLZbmHcvFhgldfLHImDFmpwbdfLPIMceYHcf0xRdmo4oQY6ZAKlbDbN3abFTQ55+bDUd19dUiF1xgdmIIjfL0082Og1q50mxUEQIVFUjFapgbbWQ2Kujrr82Go8KP78gjzU4M4T3V5ScKoq1FaYMNzEYxVKyG2aKF2aigNWvMhoNad12RBx8U2XNPkxBD8EaHKZioHoXL2nBDs1EMFathrl1rNioo6v8265ZbRA4+2OzUIMSohNtHF+XydatR366Guf76ZsMxYUR29Gizk0Dw4Xr33WbHIa0D98cRcrk3RFSshvn3v5uNCorq6tqoM88UGTvW7KSgUaNErrjC7Dgizfvj3/5mNoqhYjXML780GxXUtq3ZcESHHCIyYYLZSVEXXihy0klmxwG1amU2qqh8YloszXyXK4MEPXqI3H+/2VEIXVTMdWo1caLI975ndiyX5pppRm4dUrEapmaecpNNzIbFQh2nTYue/mkU7GnxBMS7KBqcVo89JtKpk9mxWJqejksmhgoVq2FqJqLbtTMbFmvKFN1KGQjBeoYO/cf79ckn+/awGnXsKPL44/b3IjRzsGXDtFiIJBUl258QmBYZONDsROjDD/2R1nA37qijRF5/3exEaNdd4z1l85DGBrpsmBZr8WKzUUU2Lw+Csfopp5idCMHmFxY9y5aZhIDQUDHnqV3WNWKEyE9/anYsFJ7sUdLclB1SsRqmZhVC585mwzLBoueGG8xOhL76SuSgg6ovpP7oI/40raQrrxQZMMDsWKattzYbVeTScj6FitUwNRdnyy3NhkXCOtKHHvLN7jQ6+miRV181O1UELwVa21oE6IXJn43fj6ZholtfMFGfI07Svz/3BxNk2jSeN09eeIHXlfEv/8LLqEac8Ag2epxj9QzD8rkNTXQTuPNnFy3Ie+/xvHnxn//J68m47z5ehoY4QY3wWVZGHvTowesYBNG4WV63oYnu8uWX/OIFYfnyAKHiWf0YCLCz4Ya8HC1xPLP/4Ae8jHrz/e/z+gV5/HGe12GK9Y4JzZ9vNqqob1+zkaNg2aP15bNihchhhyV3CXL44XoPDjAF7N3b7OSoHXYwG1X0zjtmozgqXsPUuGPM2xQNq1xgRKBZdY8VMxjsSWNwA9NJGAzSLKNCHSdPzt8zAG5gUSobpgOCa8YowS1knvrlL0V69TI7EcLKkqeeMjsp6Lnn9HOW22/v1zVPfUsbJkT7uM6iCZMwZw7PWw8OPpjXiYEQeqyMNNBERWuEBS6qFxov7FtuyfM6DFagYqM4whIhzaQ6DMTrvSIBLhbhVVxj+wm7X9i9QnAJgvMC2NbOdzYKdrRYEofzbfwL3Xqrznb4k0/8902NAUeagg1v1FI+vHdrloU5qGat1Xlee43fWYPUM5AOopAhClet0bxsAHEqd9vNPxd2jlmAgLSsLkFefZXndZziPTEhGIJH2ZziPeuaa8xOQnXp4oN3MlipAFjQwPxPu0rENWH0G5ZWsMfFwBR4+22R99/3SUMnnCByxx1mp4KwZnXkSLNTHBWzYcKH6o03mp0KgvkZVmFohdFJrMRAlw4NEMP4CGSD7VLNhQGZefP8GCxosHPmSENPxrfz1QrXMMof7vjxIpdcYnaKo2I2THiEwzrFasJqhErLifD0w6gpytl5Z5+CRZPKTTC8x5I0AHtfvHO/9575Z0j43047mZ0KwlrURx81O8VRMRsmhEGDqAXAeAJi4AANb5dd/tEI44SzK5Vc8DyBJ2pjgwWN3eModejAl745ruI2TLjb0C44LuWm0F0u6KtE8QwMGjVjhtkoVVjBWKKgwoTYpf5mQbTppn5UK5ixbbWVSSxVSMFPMHzOYlE47IkLpGJ0ZfFeiBX9hx7qZvcVk+QIeATguLhxO0hjevD/wW28U6+3nv9DhZ0r/rJtgBHmYHoQpLvi4jMoDBRhEOh3vytMbwkN0z2OPdaTSZM8WbqUTzy7QJL1lVkDc0BWZxf47DN/TemBB/JzcwC3nph77+2bqQ0fLtKmjUnMWRg5bJyrA8ce69czShhJxFwozN1sFMwHMQ+pGaHGu94DD/gDMTA633FHnTuQeggGEPfe6xsqvPWWSbRf9jdMuJuEM2ME1ene3STmIAzhw4cOGiHAfNwf/2j+aQSHWi++aHYihAZ8331mx1LBegpWVBphjWt47hhpjUYYAHOSmKLKSy+/LHL77X5DXb7cJNqrJo9Qazj8cH9lOuuqZMkXX/g+eK6/3veVs/vuvH6M11/nZYZ59FGe30b+8Ad+DmHgHYHlZ8DmdvRoT667zmt42nqyciUvM0vuvttruFHw+tkBTcyP44/3Groc/MvMivnzPRk50mu4q/M6afjpT3nZYdDwO3fmZdhI1678PBhnnsnL0IDjHH20bgFCmjz2mCeDBvE65QtNrD9nnOE3EPblZc3q1Z5stBGvl4att9b5GgKnnMLLsJkLLuDnEmb5cq/h3ZSXoeWvf+VlZ83s2Z4MG8brlA80sX6gQWoWw9bKxx/z9DDHHMPrp+F3v+Nlhnn6aZ7fBbRPsjvv5Pk1HHAALzNMlr8X9NZGjOD1qy80MXvwjvHhh/zLScr06Z6cd56/ng/H0qyDnDKleR01HHooLy8MnqjbbcfLcIE+ffh5Mfbem5cRxS238PKC/M//+J/t18+Tq67yXVeyzyVl1ix/DW24jvWDJmYH3iOy+DIxYIN3nA4dmh9T6/C4lu7s++/zssKgO8jyu8S//zs/tzC1Ll7G/CMrL8j55zfPhxvw+PGe/PnPPE8ScLNgv6nsoYnps802njzzDD/5Wpk715OLL/bLZsdspH17T9au5WUEgdECy1+JceN4OWHgZLpFC16GS2y8sd6g46yzeBmVOOwwXk6Yrbbi+RvBU+4Xv/Bk4UKevxZWrPDkZz/zpGVLfsxsoInp8q//6g+wsJOOC74keC9HV4YdqxKam8KDD/K8DPxAtOc0eDAvw0W0Tqrx9MMNkZXBwPQFKydI3PANeGe94w5PVq3i5cVl0aL4N+/aoYnpgHeqmTP5ScYF813Dh/PjaMAdnJUbBk8Flj/M5Mk8f5gsPd3lhTbWyo038vxh8CT6/HNeRpAxY3j+KODBHq8z8+bxcuOC8YjsfR/RxOScdpp+CqEamIzfc09+jDh06sTLDzNqFM8fZJ99eF7GttvyMlwGBgLsXBm9evEyguCGy/KG6daN54/DP/9zvFARlUCXHq5I2THSgSbWDp442qdJNR5+2P8BsGPUCp667FhBNFY5iCPC8oa59FKevwhMmMDPOYxmiuihh3jeIGl7w8NoOkZe2bHiAMMSVn5yaGJt9O7tybvv8hPQgoaRdoNsBJP77JhhEDWM5QcItsPyhFmwILvBgtatPRk61B/kQLcKk+N498Z7Hd7D4MwZUwn4DD7LykjKJpt48skn/NzDVHvHhkECyxOmlvCDGg46KHkD/a//4mUngybGB907zXtCJfA0i2OXWgtt2+oGbDDayvJjOkVrmXLEEbyMJJx9tt52NQgGvvBqwcpMAspkxwsDG2KWH+C9keUJk/U7HWyztbbODIylpFtHmhgP3BFrfZ/EExZfCis3C+65h9cjCJ52LC+eUOzzYdAQWP5awXsv6sSOFQcMfhx1FD9GreBpzY4V5uSTeX5MJbHPB0FXl+XNghNP9GTxYl6PKDBFg14jKzc+NFGP9sU9DBoyplFYmVkCg2VWnzCIyxjMh/gY7HOMnXdumrdWMD+bxkBFmOefT+/uroniDfBjb9WqaV6tCV4WvY9qYBQXBgusLlEsW5ZW46SJOnAXZJWLAnfAPFdYYD6K1SvII480zaMxFwMTJzbNVytYff/pp/wYaYCGssce/Nhx0Xo7uOSSpvngwYF9Lgi+g2CeetK9uz94xepVjSVL/LysTD00MZojj+SVqgaGmOt992NgYITVL0zjzQNfMvs/I40bzumn87KzACaSrA5xiLM0rHFgDWZu7P9h/uM/mh+v3sC6jNWtGnj1SNYroYnVQVctriUP1r1tuikvr95oG1rjdAd8C7H/h/m3f2t+rLhoQpunTa1G50G0drS33+5/Hq8x7P9hbFnMjG533CVpMMRgZemgiZXByKTWcLsRmNCxsvJEM7qJ5UXayXQsL0s6NYEbHhZSs/KzBD2ZpIYQmD7RGKED2LPCzpn9Lwjehdmx8gJPwLgR2zDfy8qKhiZW5uabeQUq8ZOf8HLyBp4SWH3DaJempTEd8cEHvOx6EMc1SCV+9CNedhjtgniNFVYeoGfE6luJf/onXk51aCIHAxLswAwYDsO6gpVjC1hxz+oeFyyuZeXHATcwVnY9gbkaq1sc0rJHhfECK98WjjuO15uB3hTm0Fk5laGJHIRIZwcOg+4YQq6zMmwCXWxW/7gkDYXepo0/zM7KrieYU2T1iwPmSVnZccGcMSvfJrD+l9WdcfXVvIzK0MTmoFvBDsjA3BYrwzbwrsPqH4eXXuJlx6GWUb+swAQ7q2Mc8J2wsuPQpQsv2za0I/ygmqlnc2hic7QT3XjEs/y28sor/Dy0pLHCQGsUXw/C87e1MHAgL1vLf/83L9dWYK/MziPM5Zfz/Bya2JSePfmBwsApFctvM3HeFcLAQRUrMw64i7Ky8+KrrzzZYANe1zg89RQvX4Od7iQrg1cRjRkfRr/1nixoYlMwn8cOFKZHD57fdmp1CjZkCC8vDnHeU+pFGucVx3lXkLSXd9ULrWuU/fbj+UPo4mPC9X+U7rrLDyTqon71K7MRQwiF8MQTZieB9t3XbFikAQPMRgIhXMKUKWYnhq691mw4JkQaC4eIYIrx3dIW2wTY/rHWH8SVAR8GDAO0k+ONpNXdevZZXn6ewP8Oq2tc0INi5VcCBh2sHFfQTHkpw2PonpgbbWQ2Kuirr9yOSbhqlciECWZHITwtp083OwmFqFq2aZttzEZCoQc1caLZUaiWnotN0vSgYkRBoy22CazlB8EEKsvnEjC3YufGSHNwIssVJLUCCyRW11qAN0F2DEaSMBW2wM4rCHpmLF8I3RNz5UqzUUG46yPEustas8aP0KzROohemJLWrjUbFglRpdOSJlZoo/IM0ZeG8LtoaHtV9fe/m43q0jVMTXBVhFp3Weeeq/9BXnqp2UhBixebDYuEYK9pafx4s6HQeeeZDUeFQMRRN+0lS8xGdeka5oIFZqOKDjjAbDiqs84yGwrttZfIkCFmJ6FsbJhp1WnUKD/CtFaHHx7v87bp4IPNRhV98IHZqC5dw0Qo7ygNHmw2HBTCx2+2mdlRKs6ToJrSfDqlpYULzUZCXXKJ2Yghl5+ap51mNqpo5kyzEa1mL57N0Pp1sXWZThRvvMHPJ4o0zPFgm8rKzpM0VpmcdBIvW0PSGJt5oDUU0U8r0sSmrLOOzk8Olvystx4vw1Zg5cLORQPsbFmZcYgzGlwP1qypZYlSU9ZdN1mIxXg2pfmz2WY6161YvYO2xMpoDk1sjtYsr5KbQlvRBp2tRNIlXwAxH1nZeZCG602tY+1KYAkcPNWxsm1E67Dr3HN5fg5NbA7u7Jq7Aj7jypKdOHNslYgbgYoBN/us7DxAl4zVMQ5phMCDx3tWtm0gQhyrf5j4rmdoIgdRmtlBw6TRxasHl13G6x8XhCJg5WvB0yHL8OVa3n6b1y8O8BbPyo4LFuWz8m1C66QN4HthZVSGJlZGG7U3m3gO6fLRR7zucYFjKVZ+HBD3n5VdT5LG8URAqbie5KqBsBvsODYAb3+szozafh80sTJ77cUPzrjzTl6GDSAsA6tzGO0gRtwIyoy0I27HAYGIWJ3ioPVe/vvf8/QweCKx4+QJAkXBEJ3VtxKaUITNoYnV+fWveQUYcBOZdJQvCx5/nNc3CBa/Ir4/+18YOI/Cgll2LC2YJsC7CCs/S+CONGndN99cH78GP1TctNn/wiCuKTteHmBRe9yQFQiYy8qKhiZGEyfq1Dvv+P51WDl5sPXWvJ5hGh0+33UX/3+Y+A6XmjNgAC87K+C4O41YKzfdxMsP0+jwWdvzsiXGKJxix+2mN55rbdDEaODgN66rwgsv5GXVG8TQYPULg0BC+DxC1rP/M9KIII27LCs7C4YN43WIww478LIZjd8pgGsW9pkgea/RxIoXhGlgdatG8tF6mqgDP8K4o4l40uYd/lwT+i3sv+g3v+GfC3PvvU3z1QqWlqXl95aBga/vfY8fOy7aKYNf/rJpPu0NCMFlg/nqBeLz1BKSDz3E5F1wmqgHjSyulQe6T3mE4APokrA6hQlPgeAdShuvJa0fPOaDkwRTrQSCBKdl9oaRU3aMMLjJtGvXNC/C8mnmxtPyqKAFljzam00YzFrgt8LKjQdNjAfiOOIuwSpajRdfrHXEqnZuvJHXJQjukiyvdtQxWTCZ5sDuNI15TsxTptF1DYJzZccKUylUxnXX8c8HwQ0x6eCUFjzFa128DguuZBG+gtDE+CCSV62OftHFCQc1zQqNb59KUbtQR23X5oQTeBm1gmF69DJmzODHqwZcSWYR6n3kSH68MIhVwvID7fspzPxY/rTAANisWfzYGm64gZdbOzSxNvDDjTvH0wi6w+eck20DxdOCHTsMRm1ZfqANRoRpD0y4szKSguknxLXEDQ1dLlharVjh33QwnD95su8hHMFssrI5xXXSPsWjYnBqbE1xQ2J5k4IG+cAD/JgaEA4kjdU4zaGJyag1TDZANwKrC9DPZ2UnAZGs2TGDYH6T5Q2i7RkgZiTLXwRwjdg5h8HrCssfRPvkTdMGG+/G8DrPjqMFr2/Zxe+kicnB4Anu4uyENGCyGk+EtILd4inDjhMGT0SWP0i/fjwvo97v0PUADYSdK0MzEIanusY4YexYnj8O6DWlsZoHPZWsekQ+NDEdUHHtNEM10D3DcjK8Z7HjaNAOzWsHGbRGB9On8/wuo7GaAviOWH6GxkABFkosbxS4pliAgfDrrNy41Ge9KE1MF4TJTuNLwZA7JntrCcWgcayMdzOWl4EhcW305+HDeRkugrk9do5hMA0SZ9oAYRtZOWHihKXffns/onNaUbrxnosI4+xY6UMT0wdPT63ZlgYMeFxwgT9Vw44XBJO9rIwwiO3I8lfi/PN5OWEwmZ9tt6c+xBnwQXRpVkY1NBG1cWNmeRuBRRpGoNNcfI5zxnswO1520MTs6Ns3/RX7mEvDD6HSHfr003m+IHgfZnmj0FgRAQTJZfld4ppr+LmFgVEEyx/FFVfw8oKgkbC8eJJPncrzJAEBdLOcKagMTcye0aOzWUmBUcBx45qOlmneiWo1pUM4e1YeIy2LoDzAIBY7J0at6ygxdcHKC4ObO3ogGMiZODF+3BkNuNnnO3BHE+sDXsp/9Sv+xaQBpjWwTpL9L0yS90AEWmVlhkkjnmZeaA0bkq7B1SzET+LoK4rZsz35/vd53eoLTawv3bsnm+RNgyRxM+KsPrnoIl6GzWhdM2JwLun8s9bpW9o8/7y/eJ7VKR9oYj5gfgyjaOyLy5LHHuP1iUMch1rZTUqnT+fO+lHNpGZzGHG99lpedhasWuWb0tl5PWhivrRv79urwo0h+0LT5ptvfOdPWMWAkVb4vom7+gK+VFEGKz8Moibj86wc29CaWMYx3Me5Y+E85pZvvtn/PnANWLlZgFFyrA2ul2F8bdBEO8Bo2I9/7Mm77/IvOGuwYh0GAvBMAIsgDDpUs0TafXdeDiOvZW9x0NoWA/bUgUUP0mGzCy9xWEmSxFA8KW+95Y/Qh+tpIQhNhA37hXBuxx8vMmKEyCabmMSc9Pnn0nCz8IMtzZ8v8v77PggYg6hhp59uPlhFCPbbs6efz0a1aycyd64usO6TT4r89rfS8K7tg8C3XbrYEZT3iy9E7r9f5NZbpeGmYBLdULPWaj24A6Pbye6KLoEBB3Z+NoAuJquzK2DFynHHueXRPYA7T0wmhKAfPlzkmGNEBg0yiQ7q00/9pzACBAdpTMPfNIXvrU0bkY035n87dDAfdEyvvy4yebLIbbfZGd4whtxumEFtvrnfQBGjcMAAkZYtzT9KFVq/+Y3I738v8uyzIkuXmkT3VZyGGdakSf77aKliq317v8dRMOkC17ooDD6UKr722cdsFEvFbJitWonssYfZqaJbbvG7QMuWmYRSueudd0TuukvkRz8SmT7dJFYRwu4XUMXsyg4cKPLMM2angvA+EgzvvsUWIr16iey6q8jOO/tTGdgulZ0Q5v6110ReesmfygDBga4f/lDk1782OxWExjt4sNkpjorZMC+8UOSKK8xOBT30kMiRR5qdKkLjRCNFY+3d2//bubP5ZymVVq3yG+Cbb4rMmeOPnmIfI87V1KePyOzZZqeC8H6J98yCqZgN88EHRY44wuxU0HnniVx7rdmJKUw3bL+9SLduIl27ivTo4W937970KfxtEibyYXQB0B2F4UTj/qJF5kM16MsvRTbc0OxUEMYTYOhRIBWzYX70kT99Uk39+4vMnGl2UlanTiKbbtqcYcPcfSdCw7v8cv8JxcD/s9CMGdEDPLgJP/yw2SmGitcw0Sg0k8sYIFq92uzUSTBRQ1euY0eTECGYIKKOqGvr1j7YXndd8wGl1q71nzxhLrpIpF8/86EIwZADZnf11jXX+L2baho7NvrVxUGhYRaHgw/mJlpB8gwjjgA5rE4MeGPIahXKscfyYzKShZNLhqae99/P87oNTXQXrNpgFy9Inj80AH+5rF6M9F3ve9K7Nz8WAy4jW7fm5dQDeLpj9Qry5ps8r9vQRHeBDxh28YLYsOQKLixY3RgIKsTKqAV4aoizjA7OrVk59UQTEYzlcxua6C6a8AXo7rK89QTeGrCCntWPUe9YlgABflkZ9WbmTF6/IHDvwvK6C010F82PvVrQoHqCYDSsfgy4bUzqTweLzlnZjKyC+NQCHHyxOgYZOJDndRea6CZwB8IuWhD4r2F58yKOjxsMBrVowcuJok8fT9as4eWGgTtI+Pph5eTBz3/O6xkEITRYXkcplq0sVs5Had48s2GJzj9f5LnnzE6E9txT5PrrzU4MYQ710Uf10yxYPpfEKCBtabw8bLut2SiGitUwt97abFSRbRYimGOEaeCHH5qECMFtydlnmx2lHnnEtwXWCNZQ06aZHUsEly1R0tyUHVKxGqbmrgk/PbYJljNonF9/bRIiBMPuQw81O1W0zjoiU6fql0a9/LLImDFmxyItWWI2qqhgppDFaphbbmk2qshW51evvCJyyilmJ0LfabhsDzwg0revSaigq67SGepDy5f7JoNr1pgEi6RpmOiuF0z05dNJNDErEXyG5bUFbeAesGRJ5WmCM87geSoxaBAvxxZYnYPMn8/zuQtNdBNNDBHEYWR5bWLaNF53xttv+6HngvkRe4N9thIu+FrFTYjVvREYIbB87kIT3QSRp9lFC7LjjjyvTSCSFZwTs/ozgm4w4ZQ6juECgjoFj20rmtiZLJ+70EQ30cSq7NiR57WNbbf15NNP+TkwEEYQeaKeLEEeeYQf20bmzuXnECRPm970oYluoom3yfLZyoAB/BwqgeC7LJ2BkIAu/ZAR34SdRxDEvGF5HaRYo7Lrr282CiIYHvzgB2ZHIThr1ujjj6XhPdR3+eGKEFIiSgXyJVyshrnBBmajgjQX1zbBq/iVV5qdFIQF0nCKbZNlj0YtWpiNKiobpqXC6v5q+uYbs+GYsEJ/yhSzk0ANvb3/c4L9pz+ZBIcUdW0hG+dga1SxGubf/mY2KiiuSw5bhAY1apTIiy+ahBoF74GPPWZ2HFOUQy4IvYECqclLp9NoBj9YPlfAfCUm0tl5RXHPPbxMV0CsUnZeQQo0KlssZ1wY1IiKyQj7UZcFF5lwDxlH6Lq67rx6xYrowS3Xr21AxerKarzewSesy8IysbjaZReRE080O44qqlHW2+NhxipWw9SMuiJSsqu66SaRU081OzF1++0i55xjdhyTxvN9weLPFKthorsTpShH0DYKdUbwo9NOMwk1CousL7vM7Dgkzaoh7XpWR1SshokgNVGCQ2iXhKhliPOx//4mIaEw9XLPPWbHEWka5sKFZqMYKlbD1Fwclxom1kciElbUgFZcHXusb1XkSkh3TVe2fGJaLM3F2XFHs2G5xo3LNiTBvvuKvPqqyG67mQSLVXZlHZfmiYkRStsF7wQ//7nZUQoBkhCwCFNGWuEHD88JtofE19xM5841G8VRs8lNZ8FaSzbxHGTZMp7XBuA3Fi4qWb2r8dBD/yhjq608mTePf64a11/ftC42oVmLGV4s7j400V007vQRD4PlzZPDDvNvGqy+1bjjjuZlbbqpbtF4mBdesMufLMCicVbXILgRsbxuQxPd5amn+MULcs45PG8etGrlyY038npGAWfRrEyAGCWa0AJhsDh7yBBeZh4ceCCvZ5D77uN53YYmusvll/OLF8SWlfu77x4vwE8Qzc0FtqPPPMPzR4HvkZVZbzThEX7yE57XbWiiu+Buzy5ekNWrPWnXjuevFwjYw+oWxfLlfoxNViZjww09mTyZlxUFurY9e/Jy6wGuEatXGBf8OMWHJrrL+uvrVpnkEYpvnXU8Of543WAGA+9S3brxsqMYO9aTtWt5udX45hvfYRe6xqzcLNEEQVqwgOd1H5roNnffzS9iEARkZXmz4pBDPHnjDV4XDdOne9KmDS9by9ChusExBvwpIbozKzcLOnTQ+XC68kqe331ootscdRS/iGHgFJnlTxO8R9b6ntdImj++nXaq/YkNZs3yZK+9eNlpgikgdvwwacUNtQ+a6DZ4r9K4fly61JO2bXkZScGPV+OAuhpwRYlRSVZ+EjDnhwEwdkwtkyZlF2f0xBP5McPAcx7LXwxoovtceim/mGEwoY8pC1ZGLSBa9R/+wI8VBzxlEe+THSMt0GP48kt+fA1ff+3JrbfW/t7L6N/fH5xjxwuDnhEroxjQRPfBU0HrkRzdsy224OVoOfpoT155hZcflzFj+DGyYIcdkr37NvLww74fXHYMLf36+YGFWflh5szhZRQHmlgMMJrILioDXd9zz/Vkyy15WYwePTy56CJ/ZJCVGRc4YUbkZ3asrLnhBl6nuOC7uOIK/12WHacSaNTaRglsDw6VkGL5/Alr441F3npLtzohqNmzRZ54wjcIx8r4pUv/4fpyp538tZH9+6e7hAwe7BA2L0/tvbc0dE3TW4GDRQWzZonMmOEbyyOcHr7Lzz7z/9+li8h++/nhB3FsrRAde+hQs1NcNWuthUJj0pUnzz3nNfxAed3zoEULT372M/17Xr3BdA+M/VndiwVNLBY33cQvcp7AWOC443h9baBrV3/ulNU9T049lde3eNDEYrHeel5D15Rf6HoD29iTTvJk3XV5XW0D5n+zZ/NzqTcYAWZ1LCY0sXi0bJnONEatoEGOHs3r5gIjRtRucJ8GU6bwehUXmlhMYO/5wAP8wmcFhvVHjuT1cRHcXOIE1U2DqVP9GyurT3GhicXmhBM8WbmS/wjS4umnPRk8mB+/CBxwgCePPlqbYbyWRYuKbkRQDZpYfLbZxpMJE9IdfXzpJU8uuMAfOGHHLCKw+hk/Pt1uLjw5jBuX3GjfYYo9j6lR+/a+O8fDDhMZNMgkKoX5TsyT4i/C5Gn82hZZffr4jr0GD44fKwUhDqZN879H1/zeZqCyYQaFwKf4QfXtKw1PPd+fa8eOvpHB/Pl+w3vvPZ933zWZSlUUvstevfzvEt8jwlO0bet/z3/9q8jixSLz5vk3NhgglPp/lQ2zVCkLVSy/sqVKFURlwyxVykKVDbNUKQtVNsxSpSxU2TBLlbJQZcMsVcpClQ2zVCkLVTbMUqWsk8j/AmQ/600PvxUCAAAAAElFTkSuQmCC;" vertex="1" parent="pyKBCwHcKjXSGV7HvNYQ-27">
          <mxGeometry x="21.19999999999999" y="50" width="55.56" height="50" as="geometry" />
        </mxCell>
        <mxCell id="pyKBCwHcKjXSGV7HvNYQ-22" value="" style="shape=image;verticalLabelPosition=bottom;labelBackgroundColor=default;verticalAlign=top;aspect=fixed;imageAspect=0;image=data:image/png,iVBORw0KGgoAAAANSUhEUgAAAKIAAACwCAYAAACM7LWLAAAAAXNSR0IArs4c6QAAAARnQU1BAACxjwv8YQUAAAAJcEhZcwAADsMAAA7DAcdvqGQAABJ6SURBVHhe7Z1JzBRFG8frExRFDS64oQbUKGAwGJeARoNrXjUe8KZeORk13tCjRzmYaPBiglc5mIgmREEjYoSIIuQ1LIKsxh1cMIrigvPNj64Ow1DTU9X1dHV1T/2Sit0TdXr6/fdTVc/W/1NKdbojkaiVU/Q/E4laSUJMREHh1HxKV6annqpPEgkP/vpLHwxgoBDHxpSaO1efJBICfPaZUqtX65M+Bgpx1apMjImEFMuXK/Xoo/qkj4FrxJ9/1geJhBA//aQPDAwUYtF/lEiUIQkxEQU//qgPDAwU4h9/6INEQohkERNRULTvSBYxEYxDh/SBgYFCTLvmhDRHjugDAwOFiHqLFpeJhAv//ltSiPxHe/bok0TCk8OHi8N8A4W4f3/xnJ5IuICeihgoxF9/VerPP/VJIuHJ9u1K/f23PjEwUIiQXDgJKdDS99/rEwOFQkwWMSEFQvzvP31iIFnERBCGeWAKhZjcNwkphhm1NDUngjAsQFIoxBTmS0gxzBVYWLNChjaZ2jGCcxSn+z//6A8SJ0Ct0emnKzVpkv6gZmbNUmrnTn1ioFCICxYotWZN12wW2s3wvPGGUi+8UOwOSCh1zjlKPfWUUo88oj+oCcJ7c+YUCxEQonHMm6c6GzaoTqcT11i82Hy9aZw8Fi0y38OQ4/Bh1Zkxw3x9+Si0dczrMYb5vvpKHySGEoMLzkZDhULElMa4c04pavb88os+qJEtW4rDezB09RejUzslY9gTw736+uss+6aIoUKM0SImIdqDZ6EotBYCjBlJNEU0ziLithnWviJxInW7uGzW9EOFGJtT+7ffhq83EsfhoeWe1YmNMWucRSRrPAnRHu5V3Zn2NpvLxglx69YUTXEBIX73nT6piaJalZzGbVZsFr6J45BBVbcxsYmADRViDLuuXpIz2x3cJ3WBdmw2l1ZCjMmBHNtSoQnUmVeKfmzW9EOFiM9u2zZ9EgEpquJOnQ+vrc93qBCZCmMIE+UkZ7Y7dT686EfEIuJHjGk6/OEHfZCwps6Hd+9eOy/HUCFCLDtn8tqSD9GdOoVo6+WwEmIsFnFY4DwxGB7iOrD1clgJMZYwH2vVZBHdwX1S10Nsa8QKSwVyFi1SatkyfVIjvB7hnnvk3BGTJ2fjtNP0B0Ow/fd4WPofmN51EschH+5p05Rav16pGTP0BwF56KGstGMYVkJcuFCpFSv0SY3weoTHHpOJrPCbnnlGqcsvz85zkeUvOMr/OWHCif/srd8ZVMvDNHj0aOZDwxIhSq6Ztdq332ZWIt8E8k/W4Bxj8flvGPz7wxoX2TJ1qlIrVyo1b57+ICDz5yv18cf6ZAgn1A6YxtiYuRYh9FiyRHUmTTJfo8voCqjz7LPm74hpSNXmTJmiOt0ZzfgdVY+ZM83X1D+s1og8oTGA1ZDIRcSSXXaZPokYrLVEBSVLgbrCfLYpaNZCjCEZVTLO3AQhnn++PvCE6b+ODaeLZqyEyNpmfFyf1IhkhICa39hhkyGF7e5VEpckZishouwYQmuSBfUXXaQPIubii/WBAHVMzS7itxIiu7cYkg2k8hDZAZ97rj6JGKmpGeowJBgO2yRm66VwHaa9F/LapJzZ9IRpwnuo8/41EtQhxN27WyhENkxSQsQa5n7B2JFay7JeCx3mYzmAP9UGayHWsevqhSfa9ukaRhPWhzlnn60PBAgd5iMCZrtzboxFPHhQHwhwySX6IHKYmqUsIrNJaCGKb1agbiHu2ydnEZvgQ8y58kp9IIDkw2wD4UxbrIVYd5a2lPth4sQs9toEWMdKRld4mEPiskGy/ol1h/mIqkisU/nj4haJpZNqEVwj19rEMB9eDhcL7CTEupIrQXJp0KSpOc8O8oWHWDJEOgyE7+LlcBJinRnSkkJsymYFmhrmw13ksqa3FiLb8Dp7Vku2zWiS+6apYT5X0VsLETO7ebM+qQGpyEBTwns5kn7EkNEVV7+vtRAPHKjPhcPCV+q7JcNmIcCPKBUFCrlGdJ3BrIXIRqWu6ArrU5enq4gmhfeAh4ZaE1xOPmPKFPuaGwm++MI+vAdWNSs5ixcrtWSJPgkIjtGrr5Z5EKjbWLcu8yc2BWo+JKZVrGuIuhVmMN7v8tJL+gNLTqofGDTqemfH+LjqTJ5svibXQf1N17oavycNmdG1hJ1HHjHf/0HDemqGutaIkovsJvkQm4xLeA+chFhHmA8zT16by3pjEEzHUiGzRDGuxsPpT1JXmM8lr60IFuuSWc+Jwbhm0zsLEQsVEr6PvDap8CKbnmQRq4W/mevs6SzEOqyiZERAMlKRMEMo2NXd5iREwnx1+BIlw3sXXKAPEpVRZi/hJETCfJs26ZOASO6aQzp1R5UyzVSdHNp46J97LusOFgrWhtOnu7sDBkFXs1F14bAsmTtXn1QI3b8eftit04OTEIHIChGWUPBjzjtPbkmQJ5uOGsxm/O4dO/QHFfLKK0o9/ribEOEED/ewQYcqkze9qnHwoEwHsDTUsbfIm+6x5CBqRae1iRPN1zBoODsyQkdX6ormtJEQeZj4e8nycXW3RS/EOpNx20aoxlNlNOIsxNBhPqlNSiLcJq2Mu81ZiJKuFBsw8xLhvUS4TVoZ942zEEOG+dh1pTWiDDStl6oIHEblDm1AHFLZ0jYgxDrLWNsCJRIhpuayYWBnIULIV/OHrDxrMwhx9mx9UiFlS46dhYhjNOR0mXbNckhWBA6ibH+dUkIMWVYaunFQWyHGHsJ9g+Eos7l0FiK75lAWkR8UepfeVhBiiDLasi2unYXIxiGUEIkvY4ET/hBjrzohGG2UrZ0udWmhCrWT60aOENNy2fAelBJiKIGkjYocoYRY1stRSoihwnyhw4ltJlR4r+zfrJQQQ9WtpKlZjlDhvbKzWCkhhtrJYuZZb7DIHrUhCeG9UEIsazycM7SBpkC7dlXfP4YXhYfu+xwLvMP5xRft33VcBA2Ynn+++hIPvBx8V9mQ7EnZssPGtGmq07WKxgzdNGTG4cPu/WMGjalTVWfDBvP3SI5vvsnehW26hmGj1CSAby9tJKqFxBKp9x/izA6Rne2Tg1B6NbJzpz5IVIaU+wohhuiS63O9pYTI05qyYqqFeywVZyeqcuaZ+qRCfGbJUkKkwU5yrVSPpHciRGNSH+NUemoOFeYbVViHS/lrQ0RVfLPpSwsxWcRqYeEvVZIR4r0yhPfYN5S95tJCjOGN9m1Gclo+4wx9UCGsaX0qLks5tIEeKuPj+qQi9u/PvgPnrg+8ven227tPXenHLjyrVyt13336xJMnnlBq6VJ9UhHsG2gU7+NNOcm5aDNCtK+gdcWUKebvdxlc69q15u+IdSxbZv4tZQb30fQdkoMAB45z0/fbjNI2gsV0iLJS1xa4JtjNbdmiTxqC1BqckFuIzBumZp9GWV5CrDoLhxso4XYImVUuAQ+flFciVBkp+GTTe62aqs7CkbyB9OFuElIBA6IqM2fqkwrhQS+b7AClhSjp+R+EpP+rSZEg7q1U1lGo8J6vUfKyiFWn8ksG6puUpMEU17Twnm+f89JCZH1IvmCVnHWWPhCg6mWENFIvaaeENER4z3cN7jU1V70BoDMBU4sETSrUxyJKCjEEvkuf0kLEdRNiJyq1TuSP67OYDo3UtYaIM+O28d0Meq0RQwhR8r0oUlamasr0FxwEjfCrRmJ29BKi5It4BiH1pihuVlM2LJLr2RBFU9zb7dv1SUm8hBhiAyDpS5S0NFUi6Wri3Tgh8F2De0/NVa67JkyQe6J5avfu1SeRI7nkCVVG6rvs8RIif1yfsI4N3EgJ9wPX2YRkXjaBUtcZqp5ZYpfvJUSocnpGgPR9xjL6guVesyb+oq8PP1Rq40Z94gk75hCbFfCdGb2FWHUbY3IJpSDHj5y5O+5Q6umns3fG1e3SIcFh+XKlnnxSqeuvV+qBB2SK6gE/7HXX6ZMKkfLRGvPDbEbX9Fee57djR3WvQOP6yVVcuFB1li4NU4TencKO3bMlS1RnbCxrVsB1mK7Pd8ycqTpHjpivQ3KsWmX+fsdh/NBqcANJ4DRdnNToPm3B3sWHKLoWs7Nokeq8+mr23aZrch08TAidzg1z5/olkLoMfovpeqQH98r0/Y7D+KHVQCBk/x49ar5AicETLZGl7Tpya4nV4jfy1GPNTNfYP/btU50VK7IXaC5YkP1/Qj1MvYPvNl2f9MC6m77fcRg/tB5YjyqF2N2ZH7NUpu8OObBiWDOsGrMA03guTHq+MN1i9Zjm+ffqeHj6Bw9R//2sYvDAmb7fcRg/tB7c+KqFyFrH9N11jtxa8iAyBcbwsPQPHhrTPZUcLF8kmkV575pDhM1CBO5docKQXTgvyWaXG+PLK0M5syV+e9R+xJwQBeJtpLvOrRyc2V9+qU888BYiPqSqq/lCFf+0jVAW8fff9YEH3kIktEO7iaqgKJ7oCinvCTdChfckghreQiTeXGV0JReiRJhvlOhupoJZRBow+eItRKg6QVYyzDcqMINccYU+qRCJBgjgLUSm5aqr+UiOrXL6byuzZumDCpH624tYxKpdOEwxaWp2g6IpujxUjVRXOBEhklFcZRYLWcavv569noGuBbglmtTZKwTcD6Zj7g/dv15+Ocw9klyWGT3dtqP7Y4+FeEJkeTCI4hDLJZxGZINQGtdgura2D343ER0iGyQeEGqsMsplGsThTddWYhg/dBrciFBC7B/Ee4n78jAQ460juSDk4PcRUiTRYHw8C4Ga7kuIceiQ6nStr/E6Swzjh04Dy1SXEHsHfxSsAtaBhyPG+G+ZQVybmDYZQMR26xRf7+Bek2tgumbXUbpjbC90jyXeGpPTmTUrztZdu7KY8FtvKbV+ff0Z2TbQ0/DOO5W6+26l7r038wmy8Qix5nOBGPNdd8mUX4gIET8fFXIxCbEXQpA43rtWW73/vlLvvZfVhlTdu8cWanNuvFGp++/PyhgoGaBxUoieNT6Q+HHzzTIt/0SEyBNMzXCsQuyHSACixAf27ruZMN95x6/jqSs8vAgPq3fDDVn0KESSgiRYQmZDiciKiBARIEJEkE0EATI2bcoq/VhmSE/jiIyG8kxlCxYoddVVWXFTUx5eE8woWG8JxIS4Y0e2lmkDTDXdhfixNhpYy7ffLpdzh0+PNR5Wb/bsLELU1IfVRJRC/OCDrFSzbWApDxzIcu7WrlXqo4+U2rDBHGNFeAjulluUGhvLGkgRFWqy1SuCvzlrWglEhMii+rXXlOpu5VtPbi1pLYy1JKp0zTVZPTIWr21Wrwjqwh96SJ8IgBC9RleIxyIdJl9TGu0d/M1NeigzxDxTVTdkSsSHZJxZRIgIkCkrpWqNFhL+wxwxi8haKQlxdECE0VlECNE9NhEPhE8lS2jFhNiUbqwJGahTIo4vhZgQm/RCnYQMkjXtYkIkdktiQWI04O/NkEJMiIgwWcXRARFKNlYQEyJIlRYm4kfSGoKoEEP0wUnEgfTsJyrEGDtiJapBuqmCqBCb8PqIhAzRCjF/P4hEtm4ifqK2iFxc6sjQfsjRlJ79RIVI0ujKlckqthn+tm++qdTmzfoDIUQSY3uh5JG3HVGV9uCD2WhLCcGoQpEU4qOeh7oe+t1IN2cVF2IvZG7zBnoq1G677Xidbqg3ZibKQZko2ecMZjlKJaQd2P1UKsR+qN2gco0KNirZqGijsq1pZZRtg3xSRIfFow5lz54sqSHkEiuoEPuhtoMaj96CI+pkE9WD4CibzV+UGcLqFVGrEHthGuc1FpdemlnJW2/NCs+pjEv4Q+nnp59mU+26dZmHI7TVKyIaIfbDdH3hhZkQsZbz52dv2kxtjO3AxUL3CoSH5aMctuo+lj5EK8R+mMbZfV97bWYt6bnSxjrqsmDZqLdGdIjv88+zlipNSURpjBD7wTJefXUmRiwm68xRmsaxbNu2He9GsXVr5mRuary/sULsp7fLAhsepvK2FbrjVmFjgeUbH8+snkRLuBhojRB7wU+Ji4jpm94sc+Zk68umuYmwbtSF7N6dTbdsNhBjG/M+WynEflhb5pseerVMn67UuefGZzERGOs6LB3TLSIkkiFZPxwrIyHEfpi62fQQ6cFaEvmpazeOhWNHm28yPvlkNPM6R1KIvTBdM4UzdYdoH5c3cco3GUy3bDpGvV3LyAuxHwRI/2qmcXbk7MxxtJddXzLd8uLMLVuyTQZWj/Z2KUPpRJIQh5C3GEaYN92URX6KkjYQGBEL4rUbN2ZWL3Rb5CaShOgAKW5M43nCBtM52UVACw7itwiPEFpb3CqhSEL0gGyiPNeSHW5dCQNtIAkxEQFK/R+d6CtMbz1cIgAAAABJRU5ErkJggg==;" vertex="1" parent="pyKBCwHcKjXSGV7HvNYQ-27">
          <mxGeometry x="105.57" y="50" width="46.03" height="50" as="geometry" />
        </mxCell>
        <mxCell id="pyKBCwHcKjXSGV7HvNYQ-23" value="Web Server" style="text;strokeColor=none;fillColor=none;html=1;fontSize=24;fontStyle=1;verticalAlign=middle;align=center;" vertex="1" parent="pyKBCwHcKjXSGV7HvNYQ-27">
          <mxGeometry x="31.19999999999999" width="100" height="40" as="geometry" />
        </mxCell>
        <mxCell id="pyKBCwHcKjXSGV7HvNYQ-25" value="&lt;font color=&quot;#53b5b5&quot; style=&quot;font-size: 20px;&quot;&gt;React&lt;/font&gt;" style="text;strokeColor=none;fillColor=none;html=1;fontSize=24;fontStyle=1;verticalAlign=middle;align=center;" vertex="1" parent="pyKBCwHcKjXSGV7HvNYQ-27">
          <mxGeometry x="8.579999999999984" y="100" width="80" height="30" as="geometry" />
        </mxCell>
        <mxCell id="pyKBCwHcKjXSGV7HvNYQ-26" value="&lt;font color=&quot;#dbdb39&quot; style=&quot;font-size: 20px;&quot;&gt;Java&lt;br&gt;Script&lt;/font&gt;" style="text;strokeColor=none;fillColor=none;html=1;fontSize=24;fontStyle=1;verticalAlign=middle;align=center;" vertex="1" parent="pyKBCwHcKjXSGV7HvNYQ-27">
          <mxGeometry x="88.57999999999998" y="100" width="80" height="40" as="geometry" />
        </mxCell>
        <mxCell id="pyKBCwHcKjXSGV7HvNYQ-30" value="" style="group" vertex="1" connectable="0" parent="1">
          <mxGeometry x="-720" y="507.3" width="100" height="80" as="geometry" />
        </mxCell>
        <mxCell id="pyKBCwHcKjXSGV7HvNYQ-3" value="" style="sketch=0;aspect=fixed;pointerEvents=1;shadow=0;dashed=0;html=1;strokeColor=none;labelPosition=center;verticalLabelPosition=bottom;verticalAlign=top;align=center;fillColor=#00188D;shape=mxgraph.azure.user" vertex="1" parent="pyKBCwHcKjXSGV7HvNYQ-30">
          <mxGeometry x="26.5" width="47" height="50" as="geometry" />
        </mxCell>
        <mxCell id="pyKBCwHcKjXSGV7HvNYQ-28" value="User" style="text;strokeColor=none;fillColor=none;html=1;fontSize=24;fontStyle=1;verticalAlign=middle;align=center;" vertex="1" parent="pyKBCwHcKjXSGV7HvNYQ-30">
          <mxGeometry y="40" width="100" height="40" as="geometry" />
        </mxCell>
        <mxCell id="pyKBCwHcKjXSGV7HvNYQ-88" style="edgeStyle=orthogonalEdgeStyle;rounded=0;orthogonalLoop=1;jettySize=auto;html=1;exitX=0.4;exitY=0.1;exitDx=0;exitDy=0;exitPerimeter=0;shape=flexArrow;endArrow=block;endFill=0;startArrow=block;" edge="1" parent="1" source="pyKBCwHcKjXSGV7HvNYQ-44" target="pyKBCwHcKjXSGV7HvNYQ-45">
          <mxGeometry relative="1" as="geometry" />
        </mxCell>
        <mxCell id="pyKBCwHcKjXSGV7HvNYQ-94" style="edgeStyle=orthogonalEdgeStyle;rounded=0;orthogonalLoop=1;jettySize=auto;html=1;exitX=0.8;exitY=0.8;exitDx=0;exitDy=0;exitPerimeter=0;entryX=0.5;entryY=0;entryDx=0;entryDy=0;" edge="1" parent="1" source="pyKBCwHcKjXSGV7HvNYQ-44" target="pyKBCwHcKjXSGV7HvNYQ-17">
          <mxGeometry relative="1" as="geometry" />
        </mxCell>
        <mxCell id="pyKBCwHcKjXSGV7HvNYQ-44" value="&lt;font style=&quot;font-size: 18px;&quot;&gt;RTU&lt;/font&gt;" style="ellipse;shape=cloud;whiteSpace=wrap;html=1;" vertex="1" parent="1">
          <mxGeometry x="-15" y="200" width="120" height="80" as="geometry" />
        </mxCell>
        <mxCell id="pyKBCwHcKjXSGV7HvNYQ-45" value="&lt;font style=&quot;font-size: 37px;&quot;&gt;Sensor&lt;/font&gt;" style="ellipse;whiteSpace=wrap;html=1;" vertex="1" parent="1">
          <mxGeometry x="-70" y="30" width="230" height="110" as="geometry" />
        </mxCell>
        <mxCell id="pyKBCwHcKjXSGV7HvNYQ-46" style="edgeStyle=orthogonalEdgeStyle;rounded=0;orthogonalLoop=1;jettySize=auto;html=1;exitX=0.84;exitY=0.28;exitDx=0;exitDy=0;exitPerimeter=0;entryX=0;entryY=0.25;entryDx=0;entryDy=0;" edge="1" parent="1" source="pyKBCwHcKjXSGV7HvNYQ-3" target="pyKBCwHcKjXSGV7HvNYQ-20">
          <mxGeometry relative="1" as="geometry" />
        </mxCell>
        <mxCell id="pyKBCwHcKjXSGV7HvNYQ-48" style="edgeStyle=orthogonalEdgeStyle;rounded=0;orthogonalLoop=1;jettySize=auto;html=1;exitX=0;exitY=0.75;exitDx=0;exitDy=0;entryX=0.75;entryY=1;entryDx=0;entryDy=0;" edge="1" parent="1" source="pyKBCwHcKjXSGV7HvNYQ-25" target="pyKBCwHcKjXSGV7HvNYQ-28">
          <mxGeometry relative="1" as="geometry" />
        </mxCell>
        <mxCell id="pyKBCwHcKjXSGV7HvNYQ-49" value="url 요청(Request)" style="text;html=1;align=center;verticalAlign=middle;whiteSpace=wrap;rounded=0;" vertex="1" parent="1">
          <mxGeometry x="-610" y="472.3" width="120" height="35" as="geometry" />
        </mxCell>
        <mxCell id="pyKBCwHcKjXSGV7HvNYQ-50" value="view 반환(Response)" style="text;html=1;align=center;verticalAlign=middle;whiteSpace=wrap;rounded=0;" vertex="1" parent="1">
          <mxGeometry x="-600" y="617.3" width="120" height="35" as="geometry" />
        </mxCell>
        <mxCell id="pyKBCwHcKjXSGV7HvNYQ-66" style="edgeStyle=orthogonalEdgeStyle;rounded=0;orthogonalLoop=1;jettySize=auto;html=1;exitX=1;exitY=0.25;exitDx=0;exitDy=0;entryX=0;entryY=0.25;entryDx=0;entryDy=0;" edge="1" parent="1" source="pyKBCwHcKjXSGV7HvNYQ-20" target="pyKBCwHcKjXSGV7HvNYQ-74">
          <mxGeometry relative="1" as="geometry">
            <mxPoint x="-26.15000000000009" y="512.4749999999999" as="targetPoint" />
          </mxGeometry>
        </mxCell>
        <mxCell id="pyKBCwHcKjXSGV7HvNYQ-67" style="edgeStyle=orthogonalEdgeStyle;rounded=0;orthogonalLoop=1;jettySize=auto;html=1;exitX=0;exitY=0.75;exitDx=0;exitDy=0;entryX=1;entryY=0.75;entryDx=0;entryDy=0;" edge="1" parent="1" source="pyKBCwHcKjXSGV7HvNYQ-74" target="pyKBCwHcKjXSGV7HvNYQ-20">
          <mxGeometry relative="1" as="geometry" />
        </mxCell>
        <mxCell id="pyKBCwHcKjXSGV7HvNYQ-68" value="HTTP 요청(Reqeust)" style="text;html=1;align=center;verticalAlign=middle;whiteSpace=wrap;rounded=0;" vertex="1" parent="1">
          <mxGeometry x="-210" y="467.3" width="120" height="35" as="geometry" />
        </mxCell>
        <mxCell id="pyKBCwHcKjXSGV7HvNYQ-69" value="json 반환(Response)" style="text;html=1;align=center;verticalAlign=middle;whiteSpace=wrap;rounded=0;" vertex="1" parent="1">
          <mxGeometry x="-210" y="587.3" width="120" height="35" as="geometry" />
        </mxCell>
        <mxCell id="pyKBCwHcKjXSGV7HvNYQ-70" style="edgeStyle=orthogonalEdgeStyle;rounded=0;orthogonalLoop=1;jettySize=auto;html=1;exitX=1;exitY=0.25;exitDx=0;exitDy=0;entryX=0;entryY=0.25;entryDx=0;entryDy=0;" edge="1" parent="1" source="pyKBCwHcKjXSGV7HvNYQ-74" target="pyKBCwHcKjXSGV7HvNYQ-76">
          <mxGeometry relative="1" as="geometry">
            <mxPoint x="140" y="512.4750000000001" as="sourcePoint" />
            <mxPoint x="440" y="514.3499999999999" as="targetPoint" />
          </mxGeometry>
        </mxCell>
        <mxCell id="pyKBCwHcKjXSGV7HvNYQ-71" style="edgeStyle=orthogonalEdgeStyle;rounded=0;orthogonalLoop=1;jettySize=auto;html=1;entryX=1;entryY=0.75;entryDx=0;entryDy=0;exitX=0;exitY=0.75;exitDx=0;exitDy=0;" edge="1" parent="1" source="pyKBCwHcKjXSGV7HvNYQ-76" target="pyKBCwHcKjXSGV7HvNYQ-74">
          <mxGeometry relative="1" as="geometry">
            <mxPoint x="440" y="578.3" as="sourcePoint" />
          </mxGeometry>
        </mxCell>
        <mxCell id="pyKBCwHcKjXSGV7HvNYQ-72" value="SQL 요청(Request)" style="text;html=1;align=center;verticalAlign=middle;whiteSpace=wrap;rounded=0;" vertex="1" parent="1">
          <mxGeometry x="230" y="457.3" width="120" height="35" as="geometry" />
        </mxCell>
        <mxCell id="pyKBCwHcKjXSGV7HvNYQ-73" value="데이터 반환(Response)" style="text;html=1;align=center;verticalAlign=middle;whiteSpace=wrap;rounded=0;" vertex="1" parent="1">
          <mxGeometry x="220" y="582.3" width="140" height="35" as="geometry" />
        </mxCell>
        <mxCell id="pyKBCwHcKjXSGV7HvNYQ-77" value="" style="group" vertex="1" connectable="0" parent="1">
          <mxGeometry x="413" y="442.50000000000006" width="179.99999999999994" height="167.39999999999998" as="geometry" />
        </mxCell>
        <mxCell id="pyKBCwHcKjXSGV7HvNYQ-76" value="" style="rounded=0;whiteSpace=wrap;html=1;" vertex="1" parent="pyKBCwHcKjXSGV7HvNYQ-77">
          <mxGeometry x="19.999999999999943" y="37.39999999999998" width="160" height="130" as="geometry" />
        </mxCell>
        <mxCell id="pyKBCwHcKjXSGV7HvNYQ-4" value="" style="image;sketch=0;aspect=fixed;html=1;points=[];align=center;fontSize=12;image=img/lib/mscae/Database_General.svg;" vertex="1" parent="pyKBCwHcKjXSGV7HvNYQ-77">
          <mxGeometry width="53.2" height="70" as="geometry" />
        </mxCell>
        <mxCell id="pyKBCwHcKjXSGV7HvNYQ-52" value="" style="shape=image;verticalLabelPosition=bottom;labelBackgroundColor=default;verticalAlign=top;aspect=fixed;imageAspect=0;image=data:image/jpeg,/9j/4AAQSkZJRgABAQAAAQABAAD/2wCEAAkGBw0NDQ0NDQ8ODQ0NDQ8NDQ0NDQ8NDQ0PFhYWFhcVFRUYHiggGBslGxUVIj0hJSkwLzAvFx8zODMsNygtLi0BCgoKDg0OGhAQFzAlHSEvLSsrLS0rKy0tLS8rLS0tLS0tLS0tKy0tKy0tLS0tKy0tLS0rLi0tLS0tKy0tKy0tLf/AABEIAOEA4QMBEQACEQEDEQH/xAAbAAEAAgMBAQAAAAAAAAAAAAAAAQYEBQcCA//EAEkQAAEEAQAFBgoGBggHAAAAAAEAAgMRBAUGEiExE0FRYXGTBxYiUlOBkaHR0hQXVHKx0zJCgpKywSMzNENic/DxFTaDoqO0wv/EABoBAQADAQEBAAAAAAAAAAAAAAABBAUDAgb/xAA0EQEAAgECAQoFAwUBAQEAAAAAAQIDBBFRBRIUFSExQZGh0RNSYYHwMnHhIjNCscHxNCP/2gAMAwEAAhEDEQA/ALVrHp6XIlexj3MgY4sa1hI263bTq430LPy5ZtO0dze0ulrjrEzH9UtHa4LogICAgICAgICAgIFoCAgIFoCAgWgICAgWgICDZaH03PiPaWuc6K/LiJJa5vPV8D1rpjy2pP0V8+mpljaY7eLoH/HMX0rVf+LXiw+jZeDllrMfSFoCBaAgIFoCBaBaBaAgWgWgWgWgIFoCAgWgIFoCBaAgWgWgbR6UNnlAQEBAQEBAtAQEBAQEBAQEBAQLQEBAQEBAQEBAQEEWgWgWgWgWgWgWgWgWgWgWgWgWgWgWgWgWgWgWgWgWgWgWgWgWgWgWgWghBFoCBaBaBaBaBaBaAgWgWgIFoCBaAgWgWgWgWgWgWgWgIFoFoFoFoFoPNoktAtAtAQLQLQEC0C0C0BAtAtAtAtAtAtAQLQLQEC0C0C0BAtAtAtBCAgIFoCAgWgICDLwNG5GSagifJvouApg7XHcPavVaWt3Q55M1Mf652b7H1Gy3C5JIY+q3PcPYK967xpreMqVuUscd0TLJ8QZPtLO5PzL10WeLx1pHyev8HiC/7S3uT8ydFnidaR8nr/B4gv8AtLe5PzJ0WeJ1pHyev8HiC/7S3uT8ydFnidaR8nr/AAeIL/tLe5PzJ0WeJ1pHyev8HiDJ9pb3J+ZOizxOtI+T1/h8J9RMkDyJYX9Ttth/mvM6W3hL1XlPHPfWWj0jobKxd80Lmt88U+P94bh61xtjtXvhcxajHk/TZgLw7FoCAgIFoCAgICCEBAQEBAQEBBddW9TtoNmzQd+9mPZB7X/L7ehW8Wn8beTK1Wv2/pxeft7rtFG1jQ1jQ1rRQa0BrQOoBW4jbuZMzMzvL0pQICAgICAgIIIBFHeDuIPAoKnrDqdHKHS4YEcu8mLhHJ2eafd2cVWy6eJ7atLTa+1f6cnbHHx/lQZGOY4tcC1zSQ5rhTmkcxCpdzZiYmN4eVCRAQEBAQEBB5QLQLQEBAtAtBdNRNBB9ZswtrSRjtPAuG4v9R3Drs9Ct6fFv/VP2ZfKGp2//Kv39l7VxjsTSekoMSPlJ3hjeDRxc89DRzrze8VjeXXFhvltzawpefr5M4kY0TI28zpbe8+oGh71Utqp/wAYamPkysfrtv8As1x1x0j6Vo7Io/gufSL8XfoGDh6o8cNI+lb3MfwTpGTidAwcPWTxw0j6VvdR/BOkZOJ0DBw9ZPHDSPpW91H8E6Rk4nQMHD1k8cNI+lb3UfwTpF+J0DBw9ZPHHSPpW91H8E6RfidAwcPWWdha95LSOXjjlbzltxv/AJj3L3XU2jvhyycm45/TMx6rlobTWPmt2oXeUB5cT90jO0dHWNytUyVvHYy8+nvhna0fdsV0cFS150EJY3ZcQ/pYm3KB/eRjn7R+HYFW1GLeOdHe0tBqebb4du6e76T/AC57aototAtAtAQLQLQEEWiS0EWgm0C0BB99H4rsieKBvGWRrL6AeJ9Qs+peq150xDnkvFKTafB2XHhbExkbBssjaGNHQAKC1IjaNofMWtNpm098vlpHNZjQyTyGmRts9JPMB1k0PWotaKxvL1ixzktFa+LkmltJy5kzppTvO5rQfJjbzNb/AK3rNvebzvL6TDhrirzasO14dS0C0C0C0C0C0C0H2w8uSCRssTiyRhtrh+B6R1KazNZ3h4vSt6zW0djrGgNLNzcdszaDv0ZWeY8cR2cD2FaWO/Pru+c1GCcN5rP2bIhdHByHWPR/0TLmhApl7cf3HbwPVvHqWZlpzbTD6XTZfi4ot4+LW2uawi0E2gWgIFoFoPNoFoFoFoFoFoLN4Pcfbzts/wBzC946nGm/g5ysaaN77qHKNtsO3GXTFfYKj+ErNIGPjA7nF0zx015Lfxd7Aqmqt3Va3JmP9V/sotqm1y0C0C0C0C0C0C0C0C0Fr8HWaWZT4L8meMkD/GzePcXe5WdNba23FncpY98cW4f9dHV5hqF4S8cCTFmHFzHxuP3SCP4nKnqo7Ylscl27LV+6lWqjVLQLQLQLQLQEHm0BSFoFqAtSFoLl4NCPpGT08i3+L/ZWdL+qWZyp+iv7uhK6xXNvCRf02Po+jNr996o6n9f2bnJn9qf3/wCQqlqu0S0C0C0C0C1AWpC0C1AWpG81Jv8A4ljV0yX2cm9dcH9yFTXf2Lfb/cOsLRfOqX4TSORxenlX+zZ/2VXVd0NTkv8AVb9nP7VNsloFqAtSFoFoCgQgKQQEBQCkWXwfZIjzww8Jonxj7wp49zSu+nna/wC6jyjTnYd+E/w6gr7AUnwl4JdHBktH9W4xSdTXb2k9Vgj9oKrqq9kWavJmTa00nx7VAVNsCAoBSCAoBSCAgKBcPBvgl+RLkEeTCzk2npe74NB/eCtaau9plm8p5NqRTj/x0VXWI594TMkGbGhHFkb5HD7xAH8BVLVT2xDZ5Lp/Ta3Hs8v/AFS1WaggICgFIICgQgICAgICD7YeS6CWOZn6UT2yN6yDdevgprO07vN6Res1nxdpwcpk8Uc0ZtkjA9vr5j1jgtWtotG8Pl70mlprPfCczFZPE+GQbTJGlrh1dXWloiY2lFLzS0Wr3w5Dp7Q0uDMY5ASwkmKWvJkb/I9IWbkxzSdpfSafUVzV3jv8Ya1c3cQEBAQEEIJQZWjNHzZcrYYW7T3cT+qxvO5x5gvVazadoc8uWuKvOs69oXRkeHjsgj3hu9ziKL3ni4/66FpUpFK7Q+bz5py3m0sx7w0FziA1oJJO4ADiSvbnEb9kONae0j9Lypp9+y91Rg80Y3N9wv1lZeS3OtMvptPi+FjirAXh2QglAQQglBCCLRIgWgWgICBaC36h6xDHd9EndUMjrieeEUh5j0NPuParOny83+me5ma/S8+PiV747/q6SrzEfDNw4siMxTMbJG7i1wvf0joPWFFqxaNpe6XtSedWdpU3SPg9aSXYs5YPRzN2wOx4312gqrbS/LLTx8qTHZevk1h1AzvPxj+3J8q8dGu79Z4uE+nujxBz/Pxu8k+VR0a51nh4T6e54g5/n43eSfKnRrnWeHhPp7niDn+fjd5J8qdGudZ4eE+nueIOf5+N3knyp0a51nh4T6e4NQM7z8bvJPlTo1/odZ4eE+nuz8HweOsHJyBXOyBps/tu4exe66XjLjk5Uj/Cvn+f9XLRmjMfEj5PHjDG8XHi556XOO8q1WkVjaGZlzXyzveWYvTmo2v+sQDXYMDrc7dkuH6rfR9p5+rdz7qmoy/4x92tyfpe34tvt7qBaptgtAQLQEC0C0BBFoFqQtAtAQLQLUCEFw1X10djhsGXtSQgUyUeVJEOg+c33jrVnFn5vZbuZuq0EX/qx9k8PCXQsLNhyGCSCRkrD+sxwNHoPQeoq7W0WjeGNfHak7WjaWQpeBAQEBAQEBB8552RNL5HNjY3e573BrR2kqJmI7ZTWs2naI3lRdZdeQQ6HAJ32HZJFd2D/EfV0qrl1HhXza2m5O/yy+XuohN7zvJ3kneSVUawoSWpC0C0BAtAtQItBFqQtAtAQLQLQEC0C0H1xcqWF23C98T/ADo3Fp93FTEzHbDzalbxtaN29xtd9JRijIyX/NiaT7W0usai8eKpbk/Bbw2/aWV9YWf6PE7qX8xT0m/0/Pu59WYeM+cex9YWf6PE7qX8xOk3+n59zqzDxnzj2PrCz/R4ndS/mJ0m/wBPz7nVmHjPnHsfWFn+jxO6l/MTpN/p+fc6sw8Z849j6ws/0eJ3Uv5idJv9Pz7nVmHjPnHsfWFn+jxO6l/MTpN/p+fc6sw8Z849nwyNetIvFB0UXXHFv/7iVE6i8vdeTsEeEz9/bZos3SE+Q7anlklI4bbiQOwcB6lytabd8rVMdKRtWNmPah0LQLQLQEC0C0C0BAQebQLQEC0C0C0C0C0C0BAtAtAQLQLQLQLQLQLQLQLQLQLQEC0C0BAtAtBCAgICAgICAgICAgICAgICAgICAgICAgICAgICAghBCAglBCAgICAgIJQQgICCUEICAgICAglBCAgICAgIJQebQLQLQLQLQLQLQLQLQLQLQLQLQLQLQLQLQLQLQLQLQLQLQLQLQLQLQLQLQRaCEE2gWg2eg9BZWe4tx2DZb+nK87MTO0856hZXumO1+5xzajHhje8/bxWUeDefnyoQejk3n+a7dFnipdaU+ST6t5vtUPdu+KdFnijrSvyT5tJp7VTMwG8o8Nlh4GWIkhvRtA729vDrXO+G1O2e5awazHmnaOyeEvrq3qnJpGF8zJmRBkhjLXMc4kgNN7j/AIlOPDN433edTrIwWis138W2+reb7VD3bvivfRZ4q/WlfknzeZPBxkUdjJge6tzS17QfXvr2J0WeKY5Up41lUM7Dlx5XwzNLJGGnNPuIPOCOdV7Vms7S0aXresWrPZLxjQPlkZFG0vkkcGMaOJcVERMztCbWisTae6Fg1g1NyMGBuQXsmYCBKI2uHJE8Dv4tvde7iNy7ZMFqRup6fXUzX5u23D6q3a4rrd6B1WzM8bcbWxw3XLSkta4jiGgb3fh1rpTFa/d3K2fV48PZPbPCG9+reb7VD3bviuvRZ4qnWlfknzYulNR3YsEmRLlxBkbb3Rutx4Bo38SaHrXm2n5sbzLpi5QjJaK1pO8/VrJNXHt0a3SXKt2HV/RbJ2t8nJ8brrXicU8zn7u8aqJz/B27eP23aO1zWU2g3egNV8vPG3E1scN1y0pLWEjiGgb3fh1rpTFa/crZ9Xjw9lu/hDe/VvN9qh7t3xXXos8VTrSvyT5sXSeozsWCSeXLiDI22ajdbjzNG/iTQ9ai2n5sbzLpj5QjJaK1pO8/VULVdoJtAQLQLQebRJaBaCCUHSNPZL9F6Hw4cU8nJOGh8rdzgS3be4HpJ3XzDsCuXmceOIhi4KxqNTa1+6PD0hzp0jnElznOJ3kkkk+tU2zERCNo9J9qC/eDjSsmQ6fAyCZoTA6RokO1sttrXMs8x2xu5qKtae8zvWWTyjhrSIy07J3ZWrmOIdGaahBsQz5sQPOQ2MNH4L1jjalo/d41FudnxW4xWfVSsPQGfPG2WGCSSNw8l7XMIPvVaMd5jeIad9ThpPNtbaW20Bq1pWPLx3iKSAMlY58jnta0MBG0DR32LFc9rpTFki0divn1WnnHaN9+x9PCdPG/PY1lF8eO1kpHM7acQ09YBv8AaCamY57zybW0YZme6Z7Gw1H0bHh40ml8vyQGO5AHiGcC4DpcfJHUete8NYrHxLOWty2y3jBT7/n08f4e9VNajmZORi5tOizS7kmu3sZYrkuwtHtB5ypxZedaa28UarSfCpW+Pvr3+/5/xWNNavvxc9uG4nk5pWCGXzo3uDQe0XR7OtcL4+bfmruHUxkxfE8Yjtj6wtHhE0nJitxsDFJgi5HadyZLSWA7LWA8QNxvp3LvqLTXasKPJ+KMk2y37Z3c+Lj0n2qo10WiXQMn/lZnaz/2Fan+x+cWRX/75/P8XP1Va764kPKyxRXXKSMjvo2nAX70iN52ebW5tZng69rBoXKmx4cXBlZiQMbsvFva9zQAGtBbwHG+laGSlpiK1naHz2nz463m+WN5VM+DjM+0Qf8Ak+C4dGtxX+tMfyz6Ndp3U+XBgM82RCRtBrGND9qR55hY6LPYCvF8M0jeZdsGtrmvza1lWbXFeLQEC0BB5QEC0BB0PQuZi6X0fHo7JkEOVAGiF5q3bIprm3+kdncW8eKt0muSnMnvhkZqZNNmnNSN6z3/AJ/pgSeDfOBOzNiubzFzpWk+rYNe1eOjW4w6xypi8Yn093n6t9IelxO8m+ROjX4wnrTDwn0926xIMXV2CWSWVs+dM2msbuJ6GhvENveXHo7AukRXDG8z2qt7ZNbeIiNqx+ef0fDU+Vz9D6Ve42578p7j0uMLST7Sowzvjt93vVxEanHEfT/ao6uawz6Ok2oztxOI5WBxpj+sea7r/FV8eSaT2NDUaameu09/hLoedmT6TxOX0TlOje0VLjERtcT5pcRbHdBBo+9XLTOSu9JY9KU0+Tm56b8J7fyYUXVnV+bOzjFO2RrYXbeYZNoPG/8ARJO/acfdZVXHjm9tp+7V1Oprixc6vj3fn0bvW7WaL6ZDitjZNhYjw2eEtBZK6tkgD/AOHXfQuuXLHO227IVdJpLfDm8zta3dPD/3/QzWTQDSHN0dKHNIc0iDHBBG8EHlOKj4uL5f9e5Ol1c9k5Y859m5zZcfT+G9+Jtx5WI/bh5UNbKx/EcCRsurjfFvUukzGav9PfCvSL6PJEX7a279u78hj5MWNrBjxjbGNpDHDmvjcPKa79Zpad5bY483tCiYrmjhMPVZvorz2b0n882lPg3z/S4neTfIufRr8YWutMPCfT3fHM1BzIInzSzYbI42l73GSbcB/wBNROntEbzMPVOUcd7RWtZ3n9vdYtG6MkztXYceFzGyP3gyEhg2Zy42QCeA6F2rWb4YiPztU8mWMOsm9u7+Gj+rfSHpcTvJvy1y6Nf6LXWmHhPp7vnkahZuOx0758SNsI5Rz+Um8nZ33/VqJ09o7d4TXlHFeebFZnf6R7t+52PrBixbM30bPhB2mXvvdteTY2mGrscPaF17M1e/aVTa+iyTvXek/nm1B8H2k+bIx6/zpx/8Ln0e/FY6ywfLPlHux83UTOiifLNkYojiaXuc6ac7IH7CidPaI3mYe6coYrWitazvP0j3VG1waAgWgWgIIQEBAQQgyG504FCaYAcAJXgD3qedPF5+HSf8Y8k/T8j083fSfFOdPFHw6fLHlDHJskneTvJO8kqHt9GZEjWlrXva136TWvc1rubeBuKbyia1md5h80S9wzvjJMb3sJ3Esc5hI9SRMx3ImsT3w+gzZwSRNMC6toiV4JrhZvep508UfDp8seT4EqHoQe4Z3x2Y3vYTuJY9zCe2kiZjuRNYnvh5c8l20SS69raJJdfTfSidoiNn3Gfkemm76T4qedPF4+HT5Y8oeZMuZ4LXyyvaeLXSPc0+olN5nxTFKx2xEeSIsmVgpkkjATZDJHNBPqKiJmO6SaVnvh7+n5Hp5++k+KnnW4o+HT5Y8oeZMyZ4LXyyuaeLXSPc0+olOdM+KYpWO2IjyfEHn5xvB5wVD0yPp+R6abvpPip508Xj4dPljyh5ky5ngtfLK9p4tdI9zT6iUmZnxTFKx2xEeT4qHoQEBAQQghBKCEEoCAgICAgICAghBKAgICAghBKAghBKCEEoIQEEoPNoFoFoFoFoFoFoFoFoFoFoFoFoFoFoFoFoFoFoFoFoFoFoFoFoFoFoFoFoludbNBy4GVI1zTyD3udjyV5DmE2G35w4V1WumXHNLfRW0uormpEx3x3tJa5rJaCbQRaBaCbQLQRaBaCbQLQRaCbQLQRaCbQLQLQRaCbQLQRaCbQLQLQRaDO0NoqfOnbBA0lxI2315ETedzjzD8V6pSbztDlmzVxV51v/AF1bxFwPNd7Ve+BVg9Py8Ww1t/sM/wBxesn6ZctL/dhwx/E9pWa+oh5QEBAQEBAQEBAQEBBKCEBBKCEBAQSghAQEBAQdl8Hf9gb94rQwfpfOa/8AurQuyk//2Q==;" vertex="1" parent="pyKBCwHcKjXSGV7HvNYQ-77">
          <mxGeometry x="64.60000000000002" y="62.5" width="82.4" height="82.4" as="geometry" />
        </mxCell>
        <mxCell id="pyKBCwHcKjXSGV7HvNYQ-61" value="Data Base" style="text;strokeColor=none;fillColor=none;html=1;fontSize=24;fontStyle=1;verticalAlign=middle;align=center;" vertex="1" parent="pyKBCwHcKjXSGV7HvNYQ-77">
          <mxGeometry x="55.799999999999955" y="9.899999999999977" width="100" height="40" as="geometry" />
        </mxCell>
        <mxCell id="pyKBCwHcKjXSGV7HvNYQ-79" value="" style="group" vertex="1" connectable="0" parent="1">
          <mxGeometry x="-10" y="810" width="148.08" height="180" as="geometry" />
        </mxCell>
        <mxCell id="pyKBCwHcKjXSGV7HvNYQ-42" value="" style="image;sketch=0;aspect=fixed;html=1;points=[];align=center;fontSize=12;image=img/lib/mscae/Database_General.svg;" vertex="1" parent="pyKBCwHcKjXSGV7HvNYQ-79">
          <mxGeometry x="13.882500000000002" width="98.47320000000002" height="129.57000000000002" as="geometry" />
        </mxCell>
        <mxCell id="pyKBCwHcKjXSGV7HvNYQ-43" value="중앙 DB server" style="text;strokeColor=none;fillColor=none;html=1;fontSize=24;fontStyle=1;verticalAlign=middle;align=center;" vertex="1" parent="pyKBCwHcKjXSGV7HvNYQ-79">
          <mxGeometry x="-9.255" y="123.1578947368421" width="148.08" height="56.84210526315789" as="geometry" />
        </mxCell>
        <mxCell id="pyKBCwHcKjXSGV7HvNYQ-85" style="edgeStyle=orthogonalEdgeStyle;rounded=0;orthogonalLoop=1;jettySize=auto;html=1;exitX=0.25;exitY=0;exitDx=0;exitDy=0;entryX=0.31;entryY=0.8;entryDx=0;entryDy=0;entryPerimeter=0;" edge="1" parent="1" source="pyKBCwHcKjXSGV7HvNYQ-74" target="pyKBCwHcKjXSGV7HvNYQ-44">
          <mxGeometry relative="1" as="geometry" />
        </mxCell>
        <mxCell id="pyKBCwHcKjXSGV7HvNYQ-86" value="" style="shape=image;verticalLabelPosition=bottom;labelBackgroundColor=default;verticalAlign=top;aspect=fixed;imageAspect=0;image=data:image/png,iVBORw0KGgoAAAANSUhEUgAAAQ8AAAEVCAYAAAD+YmDDAAAAAXNSR0IArs4c6QAAAARnQU1BAACxjwv8YQUAAAAJcEhZcwAADsMAAA7DAcdvqGQAABb/SURBVHhe7d0JtFZV+Qbwx5RB5klGEVAwmRRjEJVZQkAIFAVRIqBCjChQW1BAILVsxRIioIwcQlyoIIpAKBHJIAoCIsYcLplUCFQQRAGV78/7P++N6cA9Z599pu97fmvtdffe9/rh+u69z93nnD1cBCBzshAR+fIt/UhE5AvDg4iMMDyIyAjDg4iMMDyIyAjDg4iMMDyIyAjDg4iMMDyIyAjDg4iMMDyIyAjDg4iMMDyIyAjDg4iMMDyIyAjDg4iMMDyIyAjDg4iMMDyIyAjDg4iMMDyIyAjDg4iMMDyIyAjPbcl1hQsDxYufWU6cAI4dA44edf94/Lj+x5TLGB7ZonRp4IorgKpVnVK58pmBUKLEme28UrCgvoAP+YWLfPz0U2D//lNl375z2199pS9IacTwSINChU4Fw+kBcXpfsWL6xSmydy+wY8epsnPnmW0JIUoshkcSVakCNGkCtGgBtGoFNGign8gxa9YACxcCy5YBK1YAhw7pJygJGB5JcM01TlhIufnm3A2LC5H7LIsXAytXAnPmAO+8o5+guDA84iIBcdttQKdOQNOm2kme/fOfwNy5TpDs3q2dFCWGR5RkhCGBIaV1a+2kQL74wgmRxx8HXntNOykqEh4sYZb27TMnf8AzyGRYwixjx2ZQsqT794DFeuHII0wtWwL33w/06KEdFLp//xt45BFgxgztoLAwPMLQuDHwk58AffpoB0Xub38DHngAOHhQO8g2hodtvXsDTz+tDYqVPJHp1w9Yt047yCaubbFp4EAGR5Jcfz2wahXQtat2kE0MD1uGDgUmT9YGJUaBAsDs2cDgwdpBtvCyxYYhQ4Dx47VBiTVgADBlijYoKIZHUHJzVOYXpHFtSS5q186ZYEaBMTyCWrAAuPVWbVAqNGsGvPGGNsgU73kEMXIkgyON5B4I1w8FxpGHqZo1gW3btEGps3atsxDxm2+0g/y6+GQZ7VTJl3vvBTp00IYlsknO6tXAK68AU6cCjz7qtGWfiyNHgKJFnULBVaoEfPyx8yiXjMnIg8VveeUV9/UVpmXCBPd/5+zyl7+4//cs/svmzRkUL+7+PrN4Ka6dLBcqNWu6/zCalKNHM+jZ0/3fOV956CH312LxX4YNc3+PWbwU106WC5VBg9x/EP2WlSvdX99LqVDB/TVZ/JVduzKoWNH9PWa5YOHTFhM33KCVgGTVran//heoX18bZEz2gO3ZUxvkB8PDhI3HfN26OTuNB7FhA3DffdogY1z7Ysx1SMJynlKmjPvw10958kn31zYtU6e6/zss3kudOu7vLct5C0cefslKzaBsz26U3cUpmO7dtUJeMTz8snHJsmmTViyx/Xq56M47tUJeMTz8KldOKwHY3pyGm90EV7cuJ+D5xPDwK+gP2JYt9k9Ck9eT16VgypfXCnnB8PAraHiEtZaCazSCY3j4wvDwq0gRrRiS4bGcPWuTvJ68LgVToYJWyAuGh182rovr1dOKJbZfL1dx5OELw8Mvhkf2Ynj4wvDw61sW3rI2bbRiSdu2WqFAChbUCnnB8IiDnO0ixzTYMGIE0KuXNoiiw/CIy+9+p5UAatQAfvMbbRBFi+ERl+LFgWnTtGFo+XKtEEWP4RGn738fWLwYuPxy7fBIluLLkvzKlbWDKHoMj7i1agXs3u0cHOXFsGHOSfB8MkAxY3gkhZw49+GHwNy5wOjRTqgI+Sht6ZfP27hXQmQBj17wSy4z8n6xKbs8/LAT1OQJRx5EZIThQURGGB5EZIThQURGGB5EZIThQURGGB5EZIThQURGGB5EZIQzTP2KawZi5uS36SL5dl2AfI240Nd5fZ28rxk1yvmYCzjD1BeGB11YXiDlAoaHL7xsISIjDA8iMsLwICIjDA8iMsLwICIjDA8iMsLwICIjDA8iMpJ9k8SuvhqoUweoXh2oVs35WKqUfpJ8y6X9Wr1OEpNZt17el88+A3buBHbtOvOjHJuRBdIdHoUKAV27As2bA3XrAg0bOocpEZnwGh7yNUGm7e/ZAzzxBPDcc8DmzdqZPum8bGnWDBg3Dti0CXj+eefcV/lLwOCgNKhUCRg50vn5XbgQ6N8fqFhRP5ke6QqPG28EZs4EXn8deOAB4Mor9RNEEbK53ue73wWmTAG2bgUmTfJ/emCM0hEe8obKoUhvvgncdZd2EsUkv1XJJkqUAH76U+cP44AB2plsyQ+PHj2ApUu9H8dIlGZyg/+xx4D584EWLbQzmZIbHnIzVO5ryD0NXp5QrunY0fmjOXYsULCgdiZLMsOjaVNg0SLnvgZRLvvFL4AFC5wRScIkLzzuuQd49VXniQpREkW9QVLr1s4oRB4YJEiywmPQIGD6dE7qomQL44Zpfq64wnlg0K2bdsQvOeEhk24mTtQGEbmaNct5KpMAyQgPefzKvSMpLeLe11XmgyQgQOIPDwkOmfhFRN5JgMiSjBjFGx4MDkqjOO55uFm7FihWTBvRiy88atYEHn1UG0Tkm8z/mDpVG9GLLzzGjHHuIBOROXn6IquBYxBPeMgq2J49tUFEgfz610C/ftqITvThcd11zqiDiOyRaey1a2sjGtGHh6RkmTLaICIrypYFhg3TRjSiDY/77wfuuEMbRGRV795A9+7aCF904VGrFjBihDaIKBQy+ihaVBvhii48JDgqV9YGEYXi+usju3yJJjw6dXKGVEQUPgkP2dYiZNGEh2zwSkTRuOSSSEYf4YeHjDo6d9YGEUWiSxdnc+UQhR8eHHUQxaNPH62EI9zwuO02jjoo+8S4GM0X2ZXvhhu0YV+44cEp6JQmR45oJR+lS2slBfr21Yp94YWHnBd7993aIEqBw4e1ko80hYdcuoQ0bT288JDguPhibRClQDaGhxxhEtLoI5zwKFyYlyyUPocOaSUfaQoPIaOPEI6xDCc8ZI8B2eyHKE2yceQhLrvMeXRrWTjh0aGDVohSQm6WLlmijXykLTxECHM+7IeHLLdneFDayNmwXsjPd/Hi2kgRCY+SJbVhh/3wkODgfh2UNosXayUf7dppJWWKFHHmXVkUTngQpc3y5VrJR1rDQ7RvrxU7ZA95eyfYyHBuxw6OPChdZNTRpo028vHhh+ndWmLvXqBSJW0EZ3fk0bgxg4PSZ8YMreTjppvSvSdNxYpWD5C3Gx5NmmiFKCU++MB7eMhp9Wln8b6H/ZEHUZpIcBw8qI18eL20SbJbbtFKcHbveezaBVStqg2ihJPQkNHEunXacQHXXgu8+642UuzoUeDSS7URjL2RhyyEY3BQmshJa16CQ/TqpZWUk6Ujshm5BfbC48YbtUKUAi+/DEyYoI18yPTubAkPUa+eVoJheFDukcsVP+e7SnBYfMQZu/r1tRKMvfDgkxZKiyFDvF+uiGwadYhEhUeJEtb+h4hCNXIkMHWqNjyQfWm+8x1tZIlEXbbwkoXSQC5VfvtbbXiUbaMOcc01QIEC2jDH8KDcIJcqo0drw6MHH7S+mCwxLIw+7ISH3I0mSipZju71yUoeuYfn56Zq2li4zcDwoOy1bZszKl60SDt8GDMmsgOjY3H11Voxx/Cg7PTXvwJ33AGsXKkdPgwfDtx6qzaylIUFrAwPyi4SGo0aAffdB2zYoJ0+tGzpjDqyXWLCo3x5rRDFQFbGjht3KjTefls/4ZNM25406eRvhZ1fi0SzsA+rnYVxGXtr64g8k018ZFWsn5Wx51OlCvDSS7kz2XHNmsCr4IOHh9xU+vxzbRBZJCtAJRTyiqzaXr/+VHn/ff3CgOSv8OzZziVLrpD37qqrtGEmeHjI/Y59+7RBvskvxVtvOdvbSZEh+On1jz/WL6RQyIlqc+Zk/w3Ss8nPXcBLl+DhUb06sH27Nihf8k2T80GWLgWWLQPWrtVPUORKlQKeegq4/XbtyDFybyfALYfg4SH7eGzcqA1ytXs38OSTzg7dr78OHD+un6DYdO0KjBoFNGigHTmoXDngk0+0YUbCw7w0bpw5mV4sbmXr1gyGDs2c/Ca5v3cs0ZdSpTL4wx/cv1+5VmrVcn+PPJbgz6SyeRaeKdmu7uc/d1Zj/v73vG+RFDLakCc0gwdrR44LONcjeHjIHXFyHDvmLKaS0Jg40Tn/lOLXtKkzeUyeqOTyZcrZLrlEK2aCh8ehQ1rJcXI/o21bYPx44MQJ7aRYyebGzzwDrFgB/PjH2kn/E/APf/Dw+OwzreQwCQwJDq9HFlK4OnYEZs0CXnstO/fjsOXLL7ViJvjTFjliMldHHzLR5le/8n5oEIVDLkVatHBmTMoUddnshvJ35ZWBplkEDw/xzTe5sR7gdDI/Q/6qbd6sHRSqsmWdox5lI+K8jzKVXI6A5NoqM/Ieyvm1huyEx4EDzoSbXPHGG8C99wI7d2pHQNWqAbVrA3XrAg0bAjVqACVLnip8okVhkN/ZALcd7ISHnIwvvwC5QDaWueceYP9+7TAkOzl16gR07sxtHCkecgCUPCE0ZCc8ZF6DHMeX7ebOBXr2BL74QjsM9O8PdOsGtGunHUQxkJulRYpow4ydGxW5cMP0X/8CunQxDw4JDVkGPWUKg4Pi95//aMWcnfDI9oVxhw87T1VM9O59KjTkfgZREiQmPCz8jyTaL38JrFqlDR8mTwaefpqhQcmTmPDYulUrWWjaNOBPf9KGD7JHx8CB2iBKGIZHyLZs8X+5IpvLZDI8u5eSTY6lCIiXLRciwSE7enklu6rJVnlESZeYkYcssLE1YSopZF2ErML0Sqb6yn/D2Y6UdDKrNOAmQMJOeIhsu3SRG51eyY5MsvO2pdPHiUIl87IssBce2XTpIm+u3Cj16pFHgOuu0wZRwiUuPGQuQ7bwM+qQfSK4VwSliaXwsDM9XcjaFlnjknZy3IEs8fZyTSijDVnrIpctRGkhCzA3bdKGOXsjD7lh+t572kix+fO930zq25fBQeny1VdWgkPYCw8hTxvSTs5T8UL2lJBl+URpYumSRdgNDzmTJM2+/hpYsEAb+ZCNgDjqoLSRy2xL7IaHTMlOMxl1yMZGXnDUQWnk9Y+jB3bDQ6a8btigjRTy+sbKrty5sH8JZRdZHW7x6sBueAjZ5j6t5s3TSj7atNEKUYrIwwCLx4LYD4+VK7WSMnJAk9dZsjLyIEoby/ck7YeH7Lj1+efaSBGve5LKURM336wNohRJfHjIfI+ZM7WRIl7DQ7b6J0obecqyfr027LAfHiKbw+Pyy7VClCLPPqsVe8IJj3/8A3jzTW2kxL59WslH1apaIUoJWbSamvAQaRt9cORB2eq55wKdz3I+4YbHp59qIwW8HqnA8KA0kY26pk/Xhl3hhceePem895Ef2aOUKC3kcsXCfqVuwgsPkY3hQZQmIdzryBNueCxeDLz4ojaIKFJz5jjzrkISbniIiRO1QkSReuwxrYQj/PBYtsw5apGIojNjhjNlIkThh4f44x9z4zBsoqQIedQhogmPzZt5+UIUFdnA2+uOeAFEEx5CwuP997VBRKGJYNQhogsPmcEply9EFJ5x4yLb0S+68BAy+li4UBtEZNWSJcCwYdoIX7ThIR58EPjoI20QkRWyxaAEh2ziHZHow0P2OH3oIW0QkRUSHBFvQB59eAhZ5SfnuxJRcE89Bfz5z9qITjzhIYYPB+bO1QYRGZFDnCK8z3G6+MJDyOXL9u3aICJf5N6hHLLudS8ay+IND1kqLDdQicgf2dxHDh5bvVo7ohdveIjZs4Hu3bVBRJ60b+88mo1R/OEhXniBAULklZwbFHNwiGSEh2CAEOUvIcEhkhMeggFC5O6TT4DKlRMTHCJZ4SHyAiRNmycThUl2BKtSxdkXOEGSFx5CAqR589B2fSZKjUmTgK5dQzk6IahkhofYtAno1cspGzdqJ1GOkEPIHn4Y+NnPtCN5khseeWT00aKFs9SYKNvJIfFjxwJNmgCjR2tnMiU/PITc/5DZqG3bOnszJnAIRxTIiRPA5MlOaAwd6hwYn3DpCI88so383XcDV13lzExdvlw/QZRSshJWLk8kNAYNcrbsTImLTpaMU02pWrWcQOnQwTmE2vQ4SPkGehkmylk0rVppg8iAHAIvi0LnzXPu7aVU+sPDjQRIXpBIKVlSP5EPhse5JFTJjNy/kBufZ5fjx/UL0i07wyNMuRYeF8mPCNG50nXPg4gSg+FBREYYHkRkhOFBREYYHkRkhOFBREYYHkRkhOFBREY4ScwvzjDNbglfyZokDA+/uLYle3ld30T/j5ctRGSE4UFERhgeRGSE4UFERhgeRGSE4UFERhgeRGSE4UHJtWMHsHo1cOSIdlCSMDwoOVauBAYOBFq2BMqWBWrUcHYVL1YMqF0buOsu7qmaMDLDlMVrWbw4g0yGxXaZOtX9/XYrP/pRBl9/7f46Qcro0e7/Hotr4ciD4nfnnUCfPtrw4IkngMsuS8XBSNmM4UHxKlcOePFFbfhw4ABQvTqwbZt2UNQYHhSfH/wA+OQTbRiS+yMUC4YHxWPmTGDaNG0EsGePcyOVIsfwoHhMnKgVC2bNco5vpEgxPPySE/spuI0btWLJli1aCUCOhyTPGB5+vfeeVsjY1q3AwYPasMTG6fJyjix5xvDwi+ERnI1f9LOtW6eVABgevjA8/OLcguDefVcrFjE8Isfw8IvhEVydOlqxqF49rQTA8PCF4eGXhMf+/dogI2GER926WgmA4eELw8Ovo0eBF17QBhmRX/SSJbVhSdCRx8KFwPHj2iAvGB4mGB7B2RgpnC5oeNiYsJaDXFfMseRTuLo2WJk/3/19NSn9+rn/G16LrNAtU8b9tVnOWzjyMMXRRzAdO9o5YKloUWDCBG0Yev55Tv4zwPAwJeGxfbs2yMioUVoJYMkSoHhxbRh69VWtkB8MD1PyxGX4cG2QsVWrgBIltOGTjDgaNdKGoZdfBqZP1wb55Xo9w+KxTJjgfh3N4q/88Ifu769badQog/Xr3V/HTzlwIIMGDdz/DRYvxbWTxWspWjSDlSvdfzhZ/JUFCzLo39/9F7pUqQw6dXK2CnT7b03K4MHn/jssngtPybfhlluARYu0QVZ89JFzSSM7qDdvDjRsqJ+wRC5Xbr9dG2SC4WFL587As886O31TssmN7u99D9iwQTvIBMPDpjZtnJtvFStqByXOl186j4nlKQ0FwvCwrWlT4JlngJo1tYMSpXVrBoclfFRrmxxc1K0bsHSpdlBiMDis4sgjLN86mctjxnAuSBIcPgzUr8/tFCzjyCMsJ04AI0YAHTo4561SPB5/3JmExuAIhYw8WMIsxYplMH68+1wDlvDKAw+4fz9YrBRetkSpVStgyBDnMSGFR+bcyNEO8+ZpB4XlnERhCbn06pXB22+7/7VkMS/vvJNB377u7zmL9cKRR1wKFXJGIQMGANWqaScZ+eADZ6Qh5dgx7aSwMTziJjNSe/QAuncH2rXTTvJEbkTLrF4p3H80cgyPJGnW7FSQlC+vnXQOOVVfAuOll7SD4sDwSKJy5Zybql268OZqnrfeAhYsAP7+d2DNGu2kODE8ku7b3z4VIjffrJ05Ii8wZKcvqVOiMDzSRHYIv+kmJ0TkY7atn5HDr2V6/4oVTtm0ST9BScTwSLNatYAWLZz9Lpo0AWrX1k+kxPr1wPLlp8quXfoJSgOGRzYpUMBZw3HttWd+rFBBvyAmciq+HG6dV2REIR+/+EK/gNKI4ZELZHfxKlWAypWdcnpd9h4pXfpUufRS/Y88kBPW9uxxyt6959Zl0x0JCVnnQ1mH4UFnKlz4zDCRX3w5YlM20Tn7I49nzGkMDyIywiX5RGSE4UFERhgeRGSE4UFERhgeRGSE4UFERhgeRGSE4UFERhgeRGSE4UFERhgeRGSE4UFEBoD/A8errEkRXGJQAAAAAElFTkSuQmCC;" vertex="1" parent="1">
          <mxGeometry x="-50" y="320" width="29.35" height="30" as="geometry" />
        </mxCell>
        <mxCell id="pyKBCwHcKjXSGV7HvNYQ-87" value=".py파일로 통신 연결" style="text;html=1;align=center;verticalAlign=middle;whiteSpace=wrap;rounded=0;" vertex="1" parent="1">
          <mxGeometry x="-90" y="350" width="120" height="35" as="geometry" />
        </mxCell>
        <mxCell id="pyKBCwHcKjXSGV7HvNYQ-89" value="센서값 전달." style="text;html=1;align=center;verticalAlign=middle;whiteSpace=wrap;rounded=0;" vertex="1" parent="1">
          <mxGeometry x="60" y="160" width="120" height="35" as="geometry" />
        </mxCell>
        <mxCell id="pyKBCwHcKjXSGV7HvNYQ-92" value="" style="shape=image;verticalLabelPosition=bottom;labelBackgroundColor=default;verticalAlign=top;aspect=fixed;imageAspect=0;image=data:image/png,iVBORw0KGgoAAAANSUhEUgAAAQ8AAAEVCAYAAAD+YmDDAAAAAXNSR0IArs4c6QAAAARnQU1BAACxjwv8YQUAAAAJcEhZcwAADsMAAA7DAcdvqGQAABb/SURBVHhe7d0JtFZV+Qbwx5RB5klGEVAwmRRjEJVZQkAIFAVRIqBCjChQW1BAILVsxRIioIwcQlyoIIpAKBHJIAoCIsYcLplUCFQQRAGV78/7P++N6cA9Z599pu97fmvtdffe9/rh+u69z93nnD1cBCBzshAR+fIt/UhE5AvDg4iMMDyIyAjDg4iMMDyIyAjDg4iMMDyIyAjDg4iMMDyIyAjDg4iMMDyIyAjDg4iMMDyIyAjDg4iMMDyIyAjDg4iMMDyIyAjDg4iMMDyIyAjDg4iMMDyIyAjDg4iMMDyIyAjPbcl1hQsDxYufWU6cAI4dA44edf94/Lj+x5TLGB7ZonRp4IorgKpVnVK58pmBUKLEme28UrCgvoAP+YWLfPz0U2D//lNl375z2199pS9IacTwSINChU4Fw+kBcXpfsWL6xSmydy+wY8epsnPnmW0JIUoshkcSVakCNGkCtGgBtGoFNGign8gxa9YACxcCy5YBK1YAhw7pJygJGB5JcM01TlhIufnm3A2LC5H7LIsXAytXAnPmAO+8o5+guDA84iIBcdttQKdOQNOm2kme/fOfwNy5TpDs3q2dFCWGR5RkhCGBIaV1a+2kQL74wgmRxx8HXntNOykqEh4sYZb27TMnf8AzyGRYwixjx2ZQsqT794DFeuHII0wtWwL33w/06KEdFLp//xt45BFgxgztoLAwPMLQuDHwk58AffpoB0Xub38DHngAOHhQO8g2hodtvXsDTz+tDYqVPJHp1w9Yt047yCaubbFp4EAGR5Jcfz2wahXQtat2kE0MD1uGDgUmT9YGJUaBAsDs2cDgwdpBtvCyxYYhQ4Dx47VBiTVgADBlijYoKIZHUHJzVOYXpHFtSS5q186ZYEaBMTyCWrAAuPVWbVAqNGsGvPGGNsgU73kEMXIkgyON5B4I1w8FxpGHqZo1gW3btEGps3atsxDxm2+0g/y6+GQZ7VTJl3vvBTp00IYlsknO6tXAK68AU6cCjz7qtGWfiyNHgKJFnULBVaoEfPyx8yiXjMnIg8VveeUV9/UVpmXCBPd/5+zyl7+4//cs/svmzRkUL+7+PrN4Ka6dLBcqNWu6/zCalKNHM+jZ0/3fOV956CH312LxX4YNc3+PWbwU106WC5VBg9x/EP2WlSvdX99LqVDB/TVZ/JVduzKoWNH9PWa5YOHTFhM33KCVgGTVran//heoX18bZEz2gO3ZUxvkB8PDhI3HfN26OTuNB7FhA3DffdogY1z7Ysx1SMJynlKmjPvw10958kn31zYtU6e6/zss3kudOu7vLct5C0cefslKzaBsz26U3cUpmO7dtUJeMTz8snHJsmmTViyx/Xq56M47tUJeMTz8KldOKwHY3pyGm90EV7cuJ+D5xPDwK+gP2JYt9k9Ck9eT16VgypfXCnnB8PAraHiEtZaCazSCY3j4wvDwq0gRrRiS4bGcPWuTvJ68LgVToYJWyAuGh182rovr1dOKJbZfL1dx5OELw8Mvhkf2Ynj4wvDw61sW3rI2bbRiSdu2WqFAChbUCnnB8IiDnO0ixzTYMGIE0KuXNoiiw/CIy+9+p5UAatQAfvMbbRBFi+ERl+LFgWnTtGFo+XKtEEWP4RGn738fWLwYuPxy7fBIluLLkvzKlbWDKHoMj7i1agXs3u0cHOXFsGHOSfB8MkAxY3gkhZw49+GHwNy5wOjRTqgI+Sht6ZfP27hXQmQBj17wSy4z8n6xKbs8/LAT1OQJRx5EZIThQURGGB5EZIThQURGGB5EZIThQURGGB5EZIThQURGGB5EZIQzTP2KawZi5uS36SL5dl2AfI240Nd5fZ28rxk1yvmYCzjD1BeGB11YXiDlAoaHL7xsISIjDA8iMsLwICIjDA8iMsLwICIjDA8iMsLwICIjDA8iMpJ9k8SuvhqoUweoXh2oVs35WKqUfpJ8y6X9Wr1OEpNZt17el88+A3buBHbtOvOjHJuRBdIdHoUKAV27As2bA3XrAg0bOocpEZnwGh7yNUGm7e/ZAzzxBPDcc8DmzdqZPum8bGnWDBg3Dti0CXj+eefcV/lLwOCgNKhUCRg50vn5XbgQ6N8fqFhRP5ke6QqPG28EZs4EXn8deOAB4Mor9RNEEbK53ue73wWmTAG2bgUmTfJ/emCM0hEe8obKoUhvvgncdZd2EsUkv1XJJkqUAH76U+cP44AB2plsyQ+PHj2ApUu9H8dIlGZyg/+xx4D584EWLbQzmZIbHnIzVO5ryD0NXp5QrunY0fmjOXYsULCgdiZLMsOjaVNg0SLnvgZRLvvFL4AFC5wRScIkLzzuuQd49VXniQpREkW9QVLr1s4oRB4YJEiywmPQIGD6dE7qomQL44Zpfq64wnlg0K2bdsQvOeEhk24mTtQGEbmaNct5KpMAyQgPefzKvSMpLeLe11XmgyQgQOIPDwkOmfhFRN5JgMiSjBjFGx4MDkqjOO55uFm7FihWTBvRiy88atYEHn1UG0Tkm8z/mDpVG9GLLzzGjHHuIBOROXn6IquBYxBPeMgq2J49tUFEgfz610C/ftqITvThcd11zqiDiOyRaey1a2sjGtGHh6RkmTLaICIrypYFhg3TRjSiDY/77wfuuEMbRGRV795A9+7aCF904VGrFjBihDaIKBQy+ihaVBvhii48JDgqV9YGEYXi+usju3yJJjw6dXKGVEQUPgkP2dYiZNGEh2zwSkTRuOSSSEYf4YeHjDo6d9YGEUWiSxdnc+UQhR8eHHUQxaNPH62EI9zwuO02jjoo+8S4GM0X2ZXvhhu0YV+44cEp6JQmR45oJR+lS2slBfr21Yp94YWHnBd7993aIEqBw4e1ko80hYdcuoQ0bT288JDguPhibRClQDaGhxxhEtLoI5zwKFyYlyyUPocOaSUfaQoPIaOPEI6xDCc8ZI8B2eyHKE2yceQhLrvMeXRrWTjh0aGDVohSQm6WLlmijXykLTxECHM+7IeHLLdneFDayNmwXsjPd/Hi2kgRCY+SJbVhh/3wkODgfh2UNosXayUf7dppJWWKFHHmXVkUTngQpc3y5VrJR1rDQ7RvrxU7ZA95eyfYyHBuxw6OPChdZNTRpo028vHhh+ndWmLvXqBSJW0EZ3fk0bgxg4PSZ8YMreTjppvSvSdNxYpWD5C3Gx5NmmiFKCU++MB7eMhp9Wln8b6H/ZEHUZpIcBw8qI18eL20SbJbbtFKcHbveezaBVStqg2ihJPQkNHEunXacQHXXgu8+642UuzoUeDSS7URjL2RhyyEY3BQmshJa16CQ/TqpZWUk6Ujshm5BfbC48YbtUKUAi+/DEyYoI18yPTubAkPUa+eVoJheFDukcsVP+e7SnBYfMQZu/r1tRKMvfDgkxZKiyFDvF+uiGwadYhEhUeJEtb+h4hCNXIkMHWqNjyQfWm+8x1tZIlEXbbwkoXSQC5VfvtbbXiUbaMOcc01QIEC2jDH8KDcIJcqo0drw6MHH7S+mCwxLIw+7ISH3I0mSipZju71yUoeuYfn56Zq2li4zcDwoOy1bZszKl60SDt8GDMmsgOjY3H11Voxx/Cg7PTXvwJ33AGsXKkdPgwfDtx6qzaylIUFrAwPyi4SGo0aAffdB2zYoJ0+tGzpjDqyXWLCo3x5rRDFQFbGjht3KjTefls/4ZNM25406eRvhZ1fi0SzsA+rnYVxGXtr64g8k018ZFWsn5Wx51OlCvDSS7kz2XHNmsCr4IOHh9xU+vxzbRBZJCtAJRTyiqzaXr/+VHn/ff3CgOSv8OzZziVLrpD37qqrtGEmeHjI/Y59+7RBvskvxVtvOdvbSZEh+On1jz/WL6RQyIlqc+Zk/w3Ss8nPXcBLl+DhUb06sH27Nihf8k2T80GWLgWWLQPWrtVPUORKlQKeegq4/XbtyDFybyfALYfg4SH7eGzcqA1ytXs38OSTzg7dr78OHD+un6DYdO0KjBoFNGigHTmoXDngk0+0YUbCw7w0bpw5mV4sbmXr1gyGDs2c/Ca5v3cs0ZdSpTL4wx/cv1+5VmrVcn+PPJbgz6SyeRaeKdmu7uc/d1Zj/v73vG+RFDLakCc0gwdrR44LONcjeHjIHXFyHDvmLKaS0Jg40Tn/lOLXtKkzeUyeqOTyZcrZLrlEK2aCh8ehQ1rJcXI/o21bYPx44MQJ7aRYyebGzzwDrFgB/PjH2kn/E/APf/Dw+OwzreQwCQwJDq9HFlK4OnYEZs0CXnstO/fjsOXLL7ViJvjTFjliMldHHzLR5le/8n5oEIVDLkVatHBmTMoUddnshvJ35ZWBplkEDw/xzTe5sR7gdDI/Q/6qbd6sHRSqsmWdox5lI+K8jzKVXI6A5NoqM/Ieyvm1huyEx4EDzoSbXPHGG8C99wI7d2pHQNWqAbVrA3XrAg0bAjVqACVLnip8okVhkN/ZALcd7ISHnIwvvwC5QDaWueceYP9+7TAkOzl16gR07sxtHCkecgCUPCE0ZCc8ZF6DHMeX7ebOBXr2BL74QjsM9O8PdOsGtGunHUQxkJulRYpow4ydGxW5cMP0X/8CunQxDw4JDVkGPWUKg4Pi95//aMWcnfDI9oVxhw87T1VM9O59KjTkfgZREiQmPCz8jyTaL38JrFqlDR8mTwaefpqhQcmTmPDYulUrWWjaNOBPf9KGD7JHx8CB2iBKGIZHyLZs8X+5IpvLZDI8u5eSTY6lCIiXLRciwSE7enklu6rJVnlESZeYkYcssLE1YSopZF2ErML0Sqb6yn/D2Y6UdDKrNOAmQMJOeIhsu3SRG51eyY5MsvO2pdPHiUIl87IssBce2XTpIm+u3Cj16pFHgOuu0wZRwiUuPGQuQ7bwM+qQfSK4VwSliaXwsDM9XcjaFlnjknZy3IEs8fZyTSijDVnrIpctRGkhCzA3bdKGOXsjD7lh+t572kix+fO930zq25fBQeny1VdWgkPYCw8hTxvSTs5T8UL2lJBl+URpYumSRdgNDzmTJM2+/hpYsEAb+ZCNgDjqoLSRy2xL7IaHTMlOMxl1yMZGXnDUQWnk9Y+jB3bDQ6a8btigjRTy+sbKrty5sH8JZRdZHW7x6sBueAjZ5j6t5s3TSj7atNEKUYrIwwCLx4LYD4+VK7WSMnJAk9dZsjLyIEoby/ck7YeH7Lj1+efaSBGve5LKURM336wNohRJfHjIfI+ZM7WRIl7DQ7b6J0obecqyfr027LAfHiKbw+Pyy7VClCLPPqsVe8IJj3/8A3jzTW2kxL59WslH1apaIUoJWbSamvAQaRt9cORB2eq55wKdz3I+4YbHp59qIwW8HqnA8KA0kY26pk/Xhl3hhceePem895Ef2aOUKC3kcsXCfqVuwgsPkY3hQZQmIdzryBNueCxeDLz4ojaIKFJz5jjzrkISbniIiRO1QkSReuwxrYQj/PBYtsw5apGIojNjhjNlIkThh4f44x9z4zBsoqQIedQhogmPzZt5+UIUFdnA2+uOeAFEEx5CwuP997VBRKGJYNQhogsPmcEply9EFJ5x4yLb0S+68BAy+li4UBtEZNWSJcCwYdoIX7ThIR58EPjoI20QkRWyxaAEh2ziHZHow0P2OH3oIW0QkRUSHBFvQB59eAhZ5SfnuxJRcE89Bfz5z9qITjzhIYYPB+bO1QYRGZFDnCK8z3G6+MJDyOXL9u3aICJf5N6hHLLudS8ay+IND1kqLDdQicgf2dxHDh5bvVo7ohdveIjZs4Hu3bVBRJ60b+88mo1R/OEhXniBAULklZwbFHNwiGSEh2CAEOUvIcEhkhMeggFC5O6TT4DKlRMTHCJZ4SHyAiRNmycThUl2BKtSxdkXOEGSFx5CAqR589B2fSZKjUmTgK5dQzk6IahkhofYtAno1cspGzdqJ1GOkEPIHn4Y+NnPtCN5khseeWT00aKFs9SYKNvJIfFjxwJNmgCjR2tnMiU/PITc/5DZqG3bOnszJnAIRxTIiRPA5MlOaAwd6hwYn3DpCI88so383XcDV13lzExdvlw/QZRSshJWLk8kNAYNcrbsTImLTpaMU02pWrWcQOnQwTmE2vQ4SPkGehkmylk0rVppg8iAHAIvi0LnzXPu7aVU+sPDjQRIXpBIKVlSP5EPhse5JFTJjNy/kBufZ5fjx/UL0i07wyNMuRYeF8mPCNG50nXPg4gSg+FBREYYHkRkhOFBREYYHkRkhOFBREYYHkRkhOFBREY4ScwvzjDNbglfyZokDA+/uLYle3ld30T/j5ctRGSE4UFERhgeRGSE4UFERhgeRGSE4UFERhgeRGSE4UHJtWMHsHo1cOSIdlCSMDwoOVauBAYOBFq2BMqWBWrUcHYVL1YMqF0buOsu7qmaMDLDlMVrWbw4g0yGxXaZOtX9/XYrP/pRBl9/7f46Qcro0e7/Hotr4ciD4nfnnUCfPtrw4IkngMsuS8XBSNmM4UHxKlcOePFFbfhw4ABQvTqwbZt2UNQYHhSfH/wA+OQTbRiS+yMUC4YHxWPmTGDaNG0EsGePcyOVIsfwoHhMnKgVC2bNco5vpEgxPPySE/spuI0btWLJli1aCUCOhyTPGB5+vfeeVsjY1q3AwYPasMTG6fJyjix5xvDwi+ERnI1f9LOtW6eVABgevjA8/OLcguDefVcrFjE8Isfw8IvhEVydOlqxqF49rQTA8PCF4eGXhMf+/dogI2GER926WgmA4eELw8Ovo0eBF17QBhmRX/SSJbVhSdCRx8KFwPHj2iAvGB4mGB7B2RgpnC5oeNiYsJaDXFfMseRTuLo2WJk/3/19NSn9+rn/G16LrNAtU8b9tVnOWzjyMMXRRzAdO9o5YKloUWDCBG0Yev55Tv4zwPAwJeGxfbs2yMioUVoJYMkSoHhxbRh69VWtkB8MD1PyxGX4cG2QsVWrgBIltOGTjDgaNdKGoZdfBqZP1wb55Xo9w+KxTJjgfh3N4q/88Ifu769badQog/Xr3V/HTzlwIIMGDdz/DRYvxbWTxWspWjSDlSvdfzhZ/JUFCzLo39/9F7pUqQw6dXK2CnT7b03K4MHn/jssngtPybfhlluARYu0QVZ89JFzSSM7qDdvDjRsqJ+wRC5Xbr9dG2SC4WFL587As886O31TssmN7u99D9iwQTvIBMPDpjZtnJtvFStqByXOl186j4nlKQ0FwvCwrWlT4JlngJo1tYMSpXVrBoclfFRrmxxc1K0bsHSpdlBiMDis4sgjLN86mctjxnAuSBIcPgzUr8/tFCzjyCMsJ04AI0YAHTo4561SPB5/3JmExuAIhYw8WMIsxYplMH68+1wDlvDKAw+4fz9YrBRetkSpVStgyBDnMSGFR+bcyNEO8+ZpB4XlnERhCbn06pXB22+7/7VkMS/vvJNB377u7zmL9cKRR1wKFXJGIQMGANWqaScZ+eADZ6Qh5dgx7aSwMTziJjNSe/QAuncH2rXTTvJEbkTLrF4p3H80cgyPJGnW7FSQlC+vnXQOOVVfAuOll7SD4sDwSKJy5Zybql268OZqnrfeAhYsAP7+d2DNGu2kODE8ku7b3z4VIjffrJ05Ii8wZKcvqVOiMDzSRHYIv+kmJ0TkY7atn5HDr2V6/4oVTtm0ST9BScTwSLNatYAWLZz9Lpo0AWrX1k+kxPr1wPLlp8quXfoJSgOGRzYpUMBZw3HttWd+rFBBvyAmciq+HG6dV2REIR+/+EK/gNKI4ZELZHfxKlWAypWdcnpd9h4pXfpUufRS/Y88kBPW9uxxyt6959Zl0x0JCVnnQ1mH4UFnKlz4zDCRX3w5YlM20Tn7I49nzGkMDyIywiX5RGSE4UFERhgeRGSE4UFERhgeRGSE4UFERhgeRGSE4UFERhgeRGSE4UFERhgeRGSE4UFEBoD/A8errEkRXGJQAAAAAElFTkSuQmCC;" vertex="1" parent="1">
          <mxGeometry x="130.65" y="320" width="29.35" height="30" as="geometry" />
        </mxCell>
        <mxCell id="pyKBCwHcKjXSGV7HvNYQ-93" value="HTTP요청으로 원시 데이터 전송" style="text;html=1;align=center;verticalAlign=middle;whiteSpace=wrap;rounded=0;" vertex="1" parent="1">
          <mxGeometry x="90" y="350" width="110" height="35" as="geometry" />
        </mxCell>
        <mxCell id="pyKBCwHcKjXSGV7HvNYQ-97" value="" style="edgeStyle=orthogonalEdgeStyle;rounded=0;orthogonalLoop=1;jettySize=auto;html=1;entryX=0.5;entryY=1;entryDx=0;entryDy=0;endArrow=none;endFill=0;startArrow=classic;startFill=1;shape=flexArrow;exitX=0.497;exitY=-0.034;exitDx=0;exitDy=0;exitPerimeter=0;" edge="1" parent="1" source="pyKBCwHcKjXSGV7HvNYQ-42" target="pyKBCwHcKjXSGV7HvNYQ-74">
          <mxGeometry relative="1" as="geometry">
            <mxPoint x="70" y="800" as="sourcePoint" />
            <mxPoint x="130.00000000000045" y="729.9999999999998" as="targetPoint" />
          </mxGeometry>
        </mxCell>
        <mxCell id="pyKBCwHcKjXSGV7HvNYQ-98" value="중앙 서버에 데이터 전송" style="text;html=1;align=center;verticalAlign=middle;whiteSpace=wrap;rounded=0;" vertex="1" parent="1">
          <mxGeometry x="60" y="685" width="140" height="35" as="geometry" />
        </mxCell>
        <mxCell id="pyKBCwHcKjXSGV7HvNYQ-100" value="" style="shape=image;verticalLabelPosition=bottom;labelBackgroundColor=default;verticalAlign=top;aspect=fixed;imageAspect=0;image=data:image/png,iVBORw0KGgoAAAANSUhEUgAAARIAAAEJCAYAAABYJqh7AAAAAXNSR0IArs4c6QAAAARnQU1BAACxjwv8YQUAAAAJcEhZcwAADsMAAA7DAcdvqGQAABy5SURBVHhe7d0LdBXFGQfwCUHSo6kBRYWWUAUslaq8xSIgFHzHQlE4hICAQRTkVUQKVEoo8lRAEJQoT8GA8lLwQaEQCoKooCFKkYcIbVGB2lpQKMV2e7/lC40wkNw7M7uzu//fOZ/ZWZK7u9d7/3d37+5MkhDCiRUAQMLK8E8AgIQhSABAGYIEAJQhSABAGYIEAJRZ+61N1apVRbVq1bgFYbRz507x+eefcwuCzIogqVWrlmjcuLG44447xLXXXusGSNmyZflfIcz27dsntmzZIrZv3y5ycnJ4LgSNb0GSkpIifvWrX4lOnTqJn/70pzwXomz16tVi2LBh4p133uE5ECQUJJ5WLDycrVu3OgBn+vrrr53YB4z0dYOyt5Jj//Fsf7JChQoiLy9PDB06VFSuXJnnAvxfuXLlxG233SaSkpLEunXreC7YzrMgqVmzpvvCoHMhACVp3ry5KFOmDMIkIDwJkqZNm4rYoYy45JJLeA5AyW6++WaESUAYD5L09HRRWFjILYD4UJgkJyeL/Px8ngM2MhokaWlpYuPGjdgTASUIE/sZDZKFCxfinAhoQWFC1xYhTOxkLEh69+4tBgwYwC0Adc2aNRMXXHCBWLt2Lc8BWxgJEjqkef7550XFihV5DoAeCBM7GQmSRx99VLRr145bAHpRmND1JggTexgJklmzZuEEKxhFlxQgTOyhvRuBjIwMUb16dW4BmENXSI8ePZpb4CftQdK6dWueAjBvyJAhYsyYMdwCv2i/+/fw4cM4yQqeGzt2rBsq4A+tQZKamiqOHj3KLQBvjRs3TgwePJhb4CWthzbly5fnKQDv/frXv3bDBLyHIIFQGTRoEMLEB1oPbZo0aSI2bNjALXW46zOYqAsAvz3xxBNuqIB3TvdypFqxFxD3c6VHTk6OdDkoe0v3a0DF+PHjpeuI0l8YjgJCi66wpj0TMA9BAqE2cOBA8eSTT3ILTEGQQOg98sgjCBPDECQQCRQmEyZM4BbohiCByKD+cRAmZiBIIFIoTCZOnMgt0AVBApFDIzxOmjSJW6ADggQiqX///ggTjRAkEFkUJk899RS3QAWCBCKtX79+CBMNECQQeRQmkydP5hYkAkECENO3b18xZcoUbkG8ECRgNRoz2it9+vRBmCQIQQLWe+6553jKPAqTp59+mltQWggSsB4FSW5uLrfMo1Eip06dyi0oDQQJBAKN3Pjss89yy7yHH34YYRIHBAkExsyZM8UzzzzDLfMoTKZNm8YtOB8ECQQKjeLoZZj06tULYVIKCBIIHAoTL9/cFCZehlcQIUggkGbPnu3pOYyePXt6eo4maBAkEFhz5szx9Kvahx56CGFyDggSCLS5c+d6ehEZhcn06dO5BUUQJBB4L7zwgqf3yjz44IMIkzMgSCAU5s2b5+ldvBQmXl4kZzsECYTG/PnzPe2sqEePHp5evm8zBAmEyosvvuhpn6wPPPAAwiQGQQKhk5eX53mY0CX8UYYggVCiMPFy6Inu3btHOkwQJBBaCxYs8HSEPQqTGTNmcCtaECQQagsXLvR0IPHs7Gz35sKoQZBA6L300kti/Pjx3DLv/vvvj1yYIEggEl5++WUxbtw4bplHYUI3F0YFggQiY9GiRWLs2LHcMq9bt27uzYVRgCCBSFm8eLEYPXo0t8zr2rVrJMIEQQKRs3TpUs/DhO5UDjMECUQShcmoUaO4ZV6XLl1CHSYIEoisZcuWiccff5xb5lGYULcHYYQggUh75ZVXxO9+9ztumXffffe53R6EDYIEIm/58uWehknnzp1DFyYIEoAYCpMRI0ZwyzwKE+pDJSwQJABsxYoVIicnh1vmderUKTRhgiABKOa1114Tv/3tb7llHoUJdcgUdAgSgDO88cYbnoZJVlaW2yFTkCFIACQoTIYNG8Yt8zp27BjoMEGQAJzDm2++KR577DFumUdhQh0yBRGCBOA8Vq5cKYYOHcot8zIzMwMZJggSgBKsWrXK8zCh3t2CBEECUAoUJkOGDOGWeR06dHB7dwuKpFg5pybVNW/eXOTn53NLHV0g5OX3+qBO92tg69atPGWP+vXr85R51LsbhUoQUJBoqdiLyNEpFiLS5aDsLd2vAXCcWJhIn2ubCoc2AJZr3769u2diMwQJQABQmNjcoTSCBCAgqEPptm3bcssuCBKAABk8eLBISUnhlj0QJAAB0rBhQ0+/hi4tBAlAwNStW5en7IEgAQgYBAkAKEtPTxdVqlThlh0QJKDVkSNHeApMqlGjBk/ZAUECWhUWFoqTJ09yC6ICQQJaffvtt+Ldd9/lFkQFggS027ZtG09BVCBIQDsaDhOiBUEC2q1Zs0ZMmjSJWxAFCBIwYsCAAWLXrl3cgrBDkIAxNWvWFBs2bOAWhBmCBIxq1qyZ6N69O7cgrBAkYBz1o9G4cWORm5sr3nvvPfcrYggX9NkKnitbtqyoU6eOSE1N5TnhR++N4cOHc0tdixYtxLp167hlh7P6X0y00GcrCiUvei3rRO812XL8KhzaAIAyBAkAKEOQAIAyBAkAKEOQAIAyBAkAKEOQAIAyBAkAKEOQAIAyBAkAKEOQAIAyBAkAKEOQAIAyBAkAKEOQAIAyBAkAKEOQAIAyBAkAKNMaJJ999hlP6aH78QD8Evb3htYgoQGRjh49yi11GEMWwkLna5neY7YNPqb90Gbr1q08pW7Hjh08BRBsOl/LOt9jumgPku3bt/OUmoKCAnHkyBFuAQQbvZbpNa2DrveYTtqD5PXXX+cpNUuWLOEpgHDQ9ZrW9R7TTTpOhUrl5eXx6BuJ+fjjj6WPi0IFvei1rYLeW7LH9bu0jrRXXGybeSp+N910k9i0aRO3AMKDhi7duHEjt+KXlERvWTt9J1l01XXXXed8+umnp2I0DpmZmdLHQ6HCUvQajxe9l+g9JXs8S0o6U1v16tXLOXHiBD8d5zZ+/HgnJSVF+hgoVNiKXuv0mi8JvXfoPSR7DJvK2KFNcbVr1xZNmjQRdevWFfXq1XN/FhYWut+t00+qVatW8W8DRMett976nfdF5cqVT78n6P3x9ttvB+J6Kk+CBADCTfvXvwAQPQgSAFCGIAEAZQgSAFCGIAEAZQgSAFCGIAEAZQgSAFCGIAEAZQgSAFCGIAEAZQgSAFCGIAEAZQgSAFCGIAEAZQgSAFCGIAEAZQgSAFCGIAEAZQgSAFCGIAEAZQgSAFCGIAEAZQgSAFCGIAEAZQgSAFCGIAEAZQgSAFCGIIESlS9fXtSpU8ctmoZT0tLSRPPmzd2fUZcUK+fUpN0uuugi0aRJE1G1alWRnp7uVtE0/UxJSeHf/K5vvvlGHDp0yK2DBw+env7ss8/cOnDgwOmKMgoIelNceeWV4kc/+pH7s6jODI+vvvpK7Nu373Tt37/f/blu3Tr338KsW7du4uabbxZ169YV119/Pc8VorCwUHzwwQfij3/8o5g9ezbPjRYKEivrhhtucB555BFnzZo1jhfWr1/vjB492mnTpo0TCyfpOoWpypQp47Ru3dpZunQpPwPq6LHoMemxZcsMci1evJi38vzo92R/H/KSzvStMjIynFmzZjl79uzh/y3+iX3KODk5OU7lypWl6xrUatGihTNhwgTn8OHDvKX60WPTMmhZsnUIUjVq1Mg5fvw4b1np0O/T38keL6Qlnel5UYAsX76c/zfYJXbYE/hAiR0aOsOHD3e2bNnCW+UdWiY9f7QOsnWzucqWLctbkRj6e9njhrCkMz2rn/zkJ868efP4abfbtm3bnPT0dOl22FxZWVlOQUEBb4V/aB1oXWTraGtNnz6d1z4x9Peyxw1hSWd6Un379nUOHjzIT3kw5OfnO2lpadLtsa1o13rRokW85vagdQrCbv+DDz7Ia6yGHkf2+CEr6UzjtWDBAn6ag2fZsmXSbbKlLrnkEmfMmDHOyZMneY3tQ+tG60jrKtsGG4rOkelAjyN7/JCVdKaxuv76653du3fzUxxcd999t3T7/K7MzExnx44dvJb2o3Xt0KGDdFv8rIoVK/Ia6kGPJ1tOiEo600h17tyZn9bge/7556Xb6Gf169eP1y54bNv9b9WqFa+ZHvR4suWEqKQztVePHj34KQ2HL774QrqdftWoUaN4zYJr0KBB0m3zowYOHMhrpQc9nmw5YSlPLpGnKyVzc3O5FQ5XXHGFeyWoDWJ7R2Lo0KHcCq5x48aJnJwcbvkrNTWVp/TQ/Xi28SRIlixZwlPh8ve//52n/LN06VLRvXt3bgXf8OHDrQkTKD3jQRLb5Rb169fnVrj885//5Cl/rFy5Uvzyl7/kVnggTILHaJB06tQpFLvc5+LnDWozZswQt912G7fCh8KkQ4cO3ALbGQ2S/v3781T4bN261bc9Ejo3k52dza3wWrBggXtnN9jPWJD06NEjtIc05LnnnuMpb1122WUiPz+fW+G3fv16ngKbGQ2SsKK9Eb+CJGp9XdA3fk899RS3wFZGggR7I2YMHjxY3HXXXdyKjn79+omHH36YW2AjY0ESViNGjPAlSH7xi1+IMWPGcCt6pk6dKm6//XZugW20B8m1117r297IiRMn3O4TP/zwQ7fbvz179ojjx4/zv6qjEPHja8nKlSuLiRMncst7X375pduNIBVN+2XKlCnuhYBgH+1Bct111/GUORs3bhTjx48XrVu3dkOL+hX9/ve/L773ve+JH/7wh25fmi1atBBXX321uPDCC8Wll14qateuLe68807xwAMPuIHw6quvij//+c/8iOf3/vvv+xYihL6hqV69OrfMe++998SgQYNEw4YN3ZO7FStWFPXq1XOLpmke/Rv9Dv2uV+j/53333cctsI302vlEy+Q9H7m5uU4sOKTLTbToNvaWLVu6fcM+8cQT7s141F/G6tWrnZEjRzoNGjSQ/p1XReu3b98+fgbMmj17thMLW+l6nK/ob+hvvRDb23SSk5Ol66GzYh8avEQ96PFkywlRSWcmXLFPen7q9Pnoo4+0B0hQim5kM23z5s1uV5ey5cdT9957ryddGHTr1k26fJ2FIIm7pDMTrr179/JTpweFSK1ataTLCnulpqY6O3fu5GfCDNrrSklJkS4/kaJ+bWfOnMmPbgb1Uidbts5CkMRd0pkJ1QUXXMBPmz7Z2dnSZUWhTPcv0rFjR+lydZTuN+KZTHcshSCJr7SebI0dz/OUPmvWrOGpaImFstHL4Hv27Cny8vK4pV/sjeOeoDYFJ13tYnWQ0Ne4NIJbFFGImPoGbMiQIWL69OncMsdkmNx7773iZz/7GbfAb1YHiZ/XLPitS5cuPKXXnDlzxNixY7llHoUJLdOE9u3b8xT4TWuQHDt2jKf0oLtcH3roIW5FB10vceONN3JLH9q7M3m4cS60TBN7ljQGL9hBa5D87W9/4yl9nn32WbeHNVu6NfSCqW019YYuiakAo4G8r7nmGm6Bn7QGialDkbZt27q3zlPfpHfccQfPDS8Tn7R0eGHqEKM0TC2/ZcuWPAV+0n5o88knn3BLP+qb9I033hC7d+9277vIyMhwL4sPGxNB4sXJ1ZKY6AIBhzd20BokZPXq1TxlTo0aNUSfPn3EihUr3Bvz6JMuKysrFDd0NWjQQFSpUoVberz44ovinXfe4ZZ/qJOiP/zhD9zSA0FiB+1B8u677/KUN+gmPfqGY/78+e7e0LJly9y+KyhsgqhVq1Y8pY9NnSG99NJLPKUH3UBo4sQ0xEd7kNC5jG+++YZb3rroootEmzZt3L4rdu3a5e6x0IVX1MtWUOg+5qe7nG26qG/hwoVi//793NLDRPhCfLQHCZ2hX7RoEbf8k5SU5J5DeeaZZ8TOnTtPj/9CfXvYTPeb4s033+QpO3z99ddi1apV3NIDJ1z9pz1IiA1BUlxKSoo7/gt960N7KrR7TZdYU98aNqHddN2of1nbUH8yOqWnp/MU+MVIkNA3K7NmzeKWXWjoRLoicu7cuW6o0PkDW7rw0x0kNBLgli1buGUP3XtJuk9OQ/yMBAmhHsxMXKCmU4UKFUTXrl3dFzZ9SlInw5UqVeJ/9d7ll1/OU3pQz242OnTokNae1WiP08TeHJSesSCh8xJe3tOhqnHjxu6wBx999JGYNm2aqFmzJv+Ld3S/GXQfQuhEe6064fDGX8aChEyYMMH95iRIqH/XXr16ibfeesvtk9RLuoOEOsK21dGjR3lKDxze+MtokBAaRoHORwQNnYgdN26cGyi0DV7QfWiDIAGvGA8SQuchgjoO8E033eReizFz5kyeY47uPZLPP/+cp+yjO0hwaOMvT4KETJ482b2OI6juv/9+45f/49Amcdgj8ZdnQULoU71jx47i8OHDPCdY6GKxgoICbukXpT0SujBNJwSJvzwNErJgwQL3GxIb7kZNBA20deDAAW7ppTtgbb6KlwY004m+Ugb/eB4khO7YpXtgbrnlFusu4S6NH/zgB+Lf//43t/TRHSS0nra6+OKLeUqPgwcP8hT4wZcgKUK3lNMwmnTu5O233+a5wUC9vC9fvpxbemCPJHHYI/GXr0FShM6d0OEO9Qyu+81p0t133y0ef/xxbqnT/WaweY9Ed5Bgj8RfVgRJEeqblQYGp85qKFzoXhHb/eY3v3G/ItYhyIc2NIJAs2bNxIABA0RmZqY7lEZycjL/69moHxmdsEfiP+nIWTYUDaCdlZXlzJ8/3/nyyy95zDL7LFy4ULr+8Vbz5s35EfWI7d1Jl6OzBg4c6BQUFPASv+vIkSPOW2+95bRv3/6sv6PBwHW68cYbz1qGSmGkvbhLOtO6sj1UEhnF/8yiMY51OnDggHQ5OqpcuXLuGLylNXfu3NN/S+MD61atWrXvrJ9qIUjiK6sObc6HDnOo79FOnTq5477QT2rbcvij4zJ6E4c2P/7xj7mlDx22nDhxIq5hM6j/l6K7wVu0aOH+1AnnSPwVmCAprnioUN+s7dq1E7m5uUZ7sC8JBUlaWhq3EqM7SEj9+vV5Sp9ET4jTDZEffPCB+PnPf85z9KDLCfzq3hNOCWSQFPePf/xDLF682B2Rj0KFut0bM2aM551Q01ett956K7cSp7sbQt29rNOd0VdeeSW34lenTh3tQbJy5UqeAr8EPkjOtHbtWjF06FDRqFEjdyS2gQMHevZC0zGote77ebp16yZq1arFLTV0Ve+kSZO4lbirrrqKp/T4/e9/z1Pgl9AFSXF0Xwz1iUKj81F3irqHQjiTjmER1q1bx1N6lCtXzr3hUIcmTZq4j2cbmztwiopQB0lx9KnVoUMH0bRpU2P9yerYI6E+VnWfOKS9kqpVq3IrcbSHZxu6OpoOb8FfkQmSItRRUXZ2ttsBtAl0YZYq3edJaJ107JXUq1ePp+yhew8OEhO5IClCQ2aYuPJTR5CY2FUfPnx4XF/Xyti4R0IfDOC/yAYJof46qPcznegrTlWbNm3iKb0oTFTYMH5wcdRxE4LEDpEOEmJj5z8ffvih+NOf/sQtfWiPJCcnh1vx8/or9ZJQFxT/+c9/uAV+inyQHD9+nKf00HXiz9RohbRXQqMOJoKG6rDJCy+8wFPgt8gHie6R7HUFCV2pa6rPVerVP5GLwmhQK1uuIKVD0vXr13ML/BbpIKHLx3V8ZVucriChQy4aq9gE6guEPs3jPXlKl7fbMuiZF736Q+lFOkh69OjBU3ps375dfPvtt9xSZ3KvhPoDofuV7rnnHp5TOhQkmzdv5pY/6FutoA28FnaRDRI66ag7SHR/22Jyr4Rcc8017n1K1BF3aXthp6CkMNEZmPGaMmUKT4FNpP0LeFU1atRw+2ro37+/07VrV6dNmzZuBz9paWnS31et2OGME/uk514i9MrOzpYuU6Wo7w7qV8S0Tz75xOnVq5dz2WWXSdfjzGrZsqVz6NAh/mvvfPzxx9L10V3ojyTuks40WikpKU6fPn2cVatW8dMst3fvXmfJkiXOY4895mRkZLgd/1x88cXSxzxXpaamOo0bN3a6d+9uLECKUEjJ1kG1dL+oz4fCYdq0aW6Yy9alqGJ7M25w7ty5k//SG126dJGuj+5CkMRXSTzhGbrVn479VW4lP3LkiPjLX/4i/vrXv54uuqKULgY7s3QPe3Au1GnPFVdcIf773//yHH2oiwI6L6D7rtmSUP8oRc/zp59+KmIfAKJBgwZu+YVG6KtUqZI4duwYzzEj9sZXvoCvuBEjRvCUOfS+oHu16Gt6Pzr8OitdTFUsPNy9jDB67bXXpNusqzIzM3lJsH//fufyyy+XPk+6ysu9QBOoH13ak5dtm6GSztReN9xwA29iOMk6ONZdkydP5qUBvVGqV68ufZ50VNCDpAidU6JDe9k26izPvrXp3bs3T4UP3YPy8ssvc8scGvrCtsvU/UKdLNHwJTpukgyzmjVruofF1JWESZ4ECXVB2LlzZ26Fz7x583jKLBp4m8IETqEwGTlyJLfgfKgPHpMDrXsSJGHeG9m7d6+n93xQRz7Dhg3jFlAfsllZWdyC85k4cSJP6edJkJhMQr9RiNA3CV6iYUJff/11bgHtlaSmpnILzoVGW6Bvo0zwJEjKly/PU+FCb2YvvtaTefTRR917X+BUZ9LUOz2UzFTnVJ4ESYUKFXgqPKhfVeoD1i87duwQGRkZIj8/n+dEG4KkdAIdJGHcI2nbtq178tNPdEMfDcz1yiuv8JzoohOvULL09HQjpxo8CRJTvbb7pWfPnsa6Q4wXhRl1VDRnzhyeE010VbFOXp/38pLu54p4EiR0h2lY0Ih+dLesbeg6gSjfFfv+++/zlB66H88mpnq6k16pprt2797N19oF1y233CLdNptq5MiRvLbRcs8990ifj0SrUqVK/MjhsmXLFun2qpYneyTElp61EkE3r9Eoc7qH0zSBrjFp1apV5Iax1N1Z9hdffCF27drFrfCgjsVNkSaMiQripyUleJ06daTbY3vFDsOcPXv28JbYg+6T6du3r7YbODds2CDdftWKHSryEsIjdggs3VYNJZ1prObMmcObZLfYJ5zTu3dvp0yZMtLtCErRLvqTTz7JW+Uv6usktmfqdmZF69agQQMntrfH/5o46mTpzO3WVdThU1gsXrxYuo2aSjrTaNEblO5KtNG+ffucQYMGuR0iydY9qBU7NHNeffVV3krvzZ071w2OM9eLQuBf//oX/1b8Ro0addZj6qymTZvykoLt+PHj0u3TWNKZxou6UqT+EgoLC3lT/bV582b31nHT/Vz4XXSYNmLECCd2rMxbbs6xY8ec5cuXl3iSum3btgn1tGb4E/Z0haFLgUaNGkm3TWNJZ3paVapUcVq3bu2+wFesWOFJH6WEwmPYsGFO7dq1pesV9qKOpmbMmOF89dVX/Iyoow+GqVOnOu3atXMuvfRS6XJlRQE+ceJEfpTz27RpkxdvjO8UrZ/prjpNGDx4sHR7dJfnXS2WVrVq1UTDhg1Pd+1HXSbSeCxFPy+88EL+zZLFjnPdojt1i6ZpSAUbh+v0C12pS2P8UDeGxatixYr8G/938uRJEQt7t6gbRvq5bds2sXbtWretInao495cVq9ePfdy7rJly7rzqctHureIru/w6/4m0qVLF7dbDFo36oXfNtS7f9HzlJeX59kgYtYGSUmSk5PPCpekpCT3Sk8aDa74T0gcvZGLQoX6o6XQoPuMvEDLpnto6KtY1YAygW79sOkeH3qtFxQU+DJUSGCDBADs4dkFaQAQXggSAFCGIAEAZQgSAFCGIAEAZQgSAFCGIAEAZQgSAFCGIAEAZQgSAFCGIAEAZQgSAFCGIAEAZQgSAFCGIAEAZQgSAFCGIAEAZQgSAFAkxP8AQbFwcEQxPDoAAAAASUVORK5CYII=;" vertex="1" parent="1">
          <mxGeometry x="261.90999999999997" y="412.96000000000004" width="56.18" height="54.34" as="geometry" />
        </mxCell>
        <mxCell id="pyKBCwHcKjXSGV7HvNYQ-101" value="" style="shape=image;verticalLabelPosition=bottom;labelBackgroundColor=default;verticalAlign=top;aspect=fixed;imageAspect=0;image=data:image/png,iVBORw0KGgoAAAANSUhEUgAAAScAAACrCAYAAAAkX1pWAAAAAXNSR0IArs4c6QAAAARnQU1BAACxjwv8YQUAAAAJcEhZcwAADsMAAA7DAcdvqGQAABH2SURBVHhe7d15bFXFHgfwsRVaCl0ARSiQUAqCbEIFhUIQSEhQAQNGXEI0ivoHGoONDYS4VEkUwqKIBhdAVBYlUnZBgoDBVpAdWQKUIItFERBZyq7P7/jre8ijvb3n3jNnzjnfT9J0ZpqIPb33e2fmzJm54Y477vhLERFZJkG+ExFZheFERFZiOBGRlRhORGQlhhMRWYnhRERWYjgRkZUYTkRkJYYTEVmJ4UREVmI4EZGVGE5EZCWGExFZieFERFZiOBGRlRhORGQlhhMRWYnhRERWYjgRkZUYTkRkJYYTEVkpdKevpKenq4yMDFWzZk1pcd/Zs2fVyZMn1R9//CEt3qtVq5a+DmlpadISHH/99Zc6deqUvua49raoX7++vuaJiYnS4o7k5GRVp04dVb16dXXlyhV9DU6cOCE/dU9ZWZk6evRo3K55IMOpbdu2qnXr1qp27dr6Cy8IhBLKXjp37pzavHmzWr9+vSoqKpJWc3BdOnfurP7+m+sXbxgcP35cX++1a9eqnTt3Sqs5PXv2VHfddZd+PSYlJUmrO2644Qb9HeF8LbQlJCRc92fxdvjwYf06X7Nmjfrpp5+kNXqBCCd8+uMNl5OTo26//Xb9yWG7I0eOqBkzZug3jtuaNGmihgwZolq0aCEt4YRwmjp1qjp06JC0uKdPnz5qwIABnn8geg0fwnPmzNGv92j5MpzwCdG0aVMdRvhCufxTw2+Ki4vVpEmTdPfbDX379lWDBw/Wn5qk1J9//qmmTJmiVqxYIS3xhR760KFDVYcOHaTFXnjPmOhJ4Zp/+OGHauXKldJSNb4Lp+bNm6unn35a9waCAp/oo0ePVufPn5eW+HjyySf1Jzj9v4ULF+qeazw1aNBADR8+XGVmZkoLXe3zzz9XhYWFUoss8e8LWSBlq6WmpqpnnnlGPfHEE4HrKt98883q1ltv1WP0eH2SDRo0SPXv319qdC0McdFb3bVrl7TEJiUlRb300kuqUaNG0uIevEb8OFJo06aNOn36tCopKZGWylkfThiO3HvvvSo/P181a9bMt8O3SOrVq6fvIG7ZskVanMME7FNPPSU1qggmqTFhW1paKi3OPfvss/rNZ4Kf3wMY7uI1XpW7h1ZPROB29+uvv64ef/xxVaNGDWkNrnvuuUf3oGKBT3C8USgyvMlxrWK9gdKlSxeVm5srNYrk0UcflVLlrA2nxo0bq7Fjx8b8ZvWbRx55RErO3H///b64W2kL9Fbvu+8+qTnTr18/KVFVoMfasWNHqVXMynBC1++NN95QdevWlZbwwB8OQzwn0BPo3bu31KiqYrlmt912m55uMMHEnTUT/wZg/Vck1oXTwIED1YgRI1xfsGYzLJR0ApO8GApTdLAgFctRnMBSFlNMzDWZms9Cz6latWpSuz5rwunGG29UL7zwgnr44Yd9PeEXD9nZ2VKKDpZZkDNOez8tW7aUEkUD7/FIUzZWhBOeASooKNATi/TPnTsnsCSBnHF6zbmmyTmsC6uM5+GEBEWPKWwT35VxGjIMJ+duuukmKVUdXrtYfxckpuacINK18zyccFsRz8XR/0Qai1cEywjIGfTeydycU1V4Gk7dunXTt77p37DVB5nl5Jqjl4EVz+RMpGvnWThh0peLBa/v999/lxKZ4vSax2N1eVhFunaehBNu3Y4cOdL1Tbf8qqrPHlH87N27V0rR2b17t5QoGuh1RrrmxsMJq5fxgGTQJhLjCRujkTnYDWLbtm1Si87GjRulRNHAPmaXLl2S2vUZD6eHHnrIyJPbfrV//372nAxbunSp3nPICexq4LTXFWarV6+WUsWMhhM24uL+QpXDTo1kDrZOnj9/vtScWbRokZSoKrZv3642bNggtYoZDSf0mjjPVLElS5aoPXv2SI3chnmPd955RwdULDAM/+6776RGkcyaNUtKlTMWTliB26tXL6nRtTDn8dlnn0mNTJg9e3bc5oywDe2BAwekRhWZNm1alactjIUTek3cx/r6sE3vuHHjHM97lDO5utfvMBSLdTh3NUyqjx8/Xp88QteHD4Nly5ZJLTIjaYHnj7p27So1uhoOOBg1alRc9g8P+wPTVVG+2b4bvdRffvlFvfbaa7yDd43Lly+ryZMnq3nz5klL1RjZphf7WfOJ+X/DUTkffPCBmjt3btx6PNgjh8/XVaz8IIl4bIVckQsXLujjkHCoJw7hCMMOrpXBXNyECRP0JHi0jJy+8v7774fmEMfKuH2oJnZ2aNWqldQI8FgKJqy9OlSzR48eek93/F3CElQHDx7Ur3MEUyzzcK6HU1ZWlhozZozUvIO5gE2bNqljx47pRxVMPhNl6jhyU+GEQwGmT58uNfugJ2rjceS4KYTTp7F3WbRwM6l79+5Scw+Gvdi3P1q45vjw/fXXX2O++1nO9XB68MEH9ZdXvvnmG7VgwQI9HxB0mO/AtrFu27Fjh/63yBzcUHrggQek5h6EEzZ8tIHrE+KdOnWSkllYtZuXl6fndcIQTERB42o44fBL0yfzonuJ01xffvll3tYl8jFXwwkTgabNnDlTHzMd65ohIvKWq+FkekiHuwPoNRGR/7kaTrhTZwruhGGhFxEFg2vhhNXKJs9Qw8OEkfaHISL/cC2csD2KKXj049tvv5UaEQVBIMIJq385AU4ULK6FU1pampTct27dOikRUVC4Fk4m9wjH1rZEFCyBGNaVlZVJiYiCwrVwMnmnLh57IRGRXVwLJ258RkSxcC2ciIhiwXAiIisxnIjISgwnIrISw4mIrMRwIiIrMZyIyEoMJyKyEsOJiKzEcCIiKzGciMhKrh2qafIwzUGDBknJHTVr1tTHXDndo8rUib/RHKqJZx9xjJYTOPH3008/lVp8YItlnMR89OhRaaGrhfFQTYZTBdq2bas6d+6s/r4+qk6dOtIaG+yesHXrVvX999+r4uJiaY0fUyf+uunMmTNq+/btendTN66RX/HE3zjy664EOAR01KhR+lDO3r17xy2YIDk5WZ/lN2zYMDVx4kTPTkO2GbbawYcCrtFbb72lunXrJj+hsOGck0hISNCfGKNHj1YtWrSQVvc0aNBA5efnqxEjRqiUlBRppas1bNhQPf/882ro0KHcgieEXAsnp/MZXkCPpqCgQA0cOFCHlEk5OTlqwoQJqlGjRtJC1+rRo4d69dVX9d+JwiP0wzqE0YsvvqhatmwpLeZh6IgeVDx3Dw1aT6NVq1YqLy9PahQGoR/WDR48WLVr105q3qlXr54aPny4SkxMlJbY+KnnWlXt27fXfy8Kh1CHU+PGjVXfvn2l5j3MdWESPlZBDKZy/fv3V9nZ2VKjIAt1OJla6hANhGWs815Bnzzu16+flCjIQhtOSUlJ6s4775SaPTC8w/wKVSw3N1fVrVtXahRUoQ0nzF+YvjNXVfh/c8LkcVxe69Chg5QoqEIbTllZWVKyj9P/txo1akgp+EysRSNvhTacMjIypGQfPMfnBIaqYZGZmSklCqrQhlM8H0uJN6fBaesw1Q2pqalSoqAKbTjZfLsduyBQ5YK8XIL+EdpwwhYmQXPlyhUpBd/p06elREEV2nA6deqUlILj4sWLUgq+0tJSKVFQhTac9u7dK6XgOHfunJSCb8+ePVKioAptOG3atElv/hYk2KgtLDZu3CglCqrQhtPly5fV8uXLpUZ+UlRUpLf0pWALbThBYWGhKisrkxr5xeLFi6VEQRbqcEIwvffee1IjP5g/f77at2+f1CjIQh1OsH79evXll19KLTiCuA5o8+bNatasWVKjoHMtnPz05pgzZ45atmyZ1LwXjy1P8N8I0tYpP/74oxo/frzUKAxcCye/vTGmTZumPv74Y300jtfiFexB6T2tWrVKn4gTpnVcxGHdvyxdulTv5b17925pCQ4/BtXBgwfV22+/rSZPniwtFCYc1l0Dp9nizDp8UmOo5/YpvdfjRq/TLz1ZXG8sFcAQDgdP8GDN8OKJv1VQfhw5toft2bOntLrLye9k6sRfBPj06dOlFh8YsmHt0vHjx6WFrsYTf+MoSJOxZ8+eVYcPHzb2xrG914nrsXPnzrh+lZSUMJjoXzjnRERWYjgRkZUYTkRkJYYTEVmJ4UREVmI4EZGVGE5EZCWGExFZieFERFZiOBGRlRhORGQl18IpiAc8mnrmLUjPJRI55Vo4mTyRNS0tTUruMhUaQdkkjigWroWTyX2Q0tPTpUREQeFaOJ08eVJK7svKypISEQVFIHpO7du3lxIRBUUgek45OTmcRCYKGNfC6fz58/rIbxNSUlJU9+7dpUZEQeBaOMGJEyek5L7HHntMJScnS42I/M7VcMJG+KakpqaqvLw8lZDg6q9ERIa4+k7G8dEmYWJ86NChUos/LsIkMidQ4QSYexo5cqRKSkqSlvjhIkwic1yfc8KpraahB4VDMRs1aiQt8cGeE5E5rk/QeNF7giZNmqgJEyao5557TtWvX19aicgvXDvxt1yrVq1UQUGB1LyDQzE3bdqkjh07pk+WdfLsH077vfvuu6XmLicn/uI643q7zY0Tf+MJPdxTp07ptXY4ADQIwnjir+vhhLtneCHzNn/V4c2FF2O0TIWTn+AU4fXr16u1a9fqk4X9iseRuwC/7NatW6VGbuJc1f+rW7eu6tOnjw5ufDVu3Fh+QrZzPZxg2bJlUiLyDnqVY8eO1T0Qroezn5G/0I4dO/R8D5HXEEoYIr3yyiuqevXq0ko2Mvbx8cknn+ghHpEN0IsaNmwYh8IWMxZOR44cUStXrpQakfc6duzo6MYDmWF04P3FF1/o3QqIbDFgwACVmZkpNbKJ0XDCBnQLFiyQGpH3MKwbOHCg1MgmRsMJ5s+fr0pKSqRG5L0uXbqoatWqSY1sYTyccGTU6NGj9SptIhsgmFq3bi01soXxcAI8WvDmm2+qixcvSguRt5o2bSolsoUn4QR4PmvixIlSI/JWRkaGlMgWnoUT4JmnwsJCqRF5p3bt2lIiW3gaToDlBVu2bJEagdPlFhcuXJASRSsxMVFKdjK1gNmmhdKehxOewMe+S3v27JEWcnqzwORxXEFj+7Uzdby/qX+nKjwPJ0BPAU+Mr1mzRlrCzekbBTcayBnb7x7jCQsTfv75Zyl5z4pwApxxN2nSJDVjxozQP4PndB3Y3r17pUTRsv3amRpZ2DSCsSacyi1cuFCNGTMm1PMn2BjNiY0bN3J5hgPouW/btk1qdjp37pyRnT02bNggJe9ZF06Afcdxggp2MQyb/fv3O+45off59ddfS42q6quvvvJFb33VqlVScseuXbusenrDynCCQ4cOqfz8fLVv3z5pCYepU6dKyZm5c+eqsrIyqVEkZ86c8c3znuvWrdMB4pZFixZJyQ6JmZmZ3p8+UAEMUfBpgR4UTlNJSUmRnwTT4sWLY95W5tKlS3pSs2vXrtJCFcGd4vHjx+vDL/wCE+O9evWSWvysXr3aupC2OpwALyAMdTBcwa4GCKkaNWrIT4MDu4W+++67+veNVWlpqd7xkYcdVG727Nn6Tekn+KDGiTI4mzFeMDpBSNs2tLU+nMrhwmE8vHz5cv3Hyc7ODsw2qzgVBDcB0OuJF4RdamqqatasmbTQ1dBLxQJgP8KdRbwf2rRpIy3OHThwQI0bN86q9U3lfBNO5bCrAW53LlmyRH/HXb06der49uip4uJivel+PIOpHG4sIMjbtWvH7WgF3tQfffSRmjdvnrT4E+aecKJ2Tk6O47/tDz/8oIPJ1gWorp9bZwL+OM2bN1edOnXSW682bNhQfmIvzB3MnDlTv0DchqHwkCFDVIsWLaQlnNBDnTJliq/mmCLBLp44gDU3N1daIvvtt990OK9YsUJa7BSIcLoWJs4bNGigbrnllv9+4UhyfMc5Zl7BWhX0ZvDAc1FRkbSa07ZtWx3g2FwtPT1dWoMNvQKsG/P7oZqR4AMIN0HQk7re2XzoQWOojzt+fnkSI5DhFAk+bUxukYEXBt4kmNC3Ra1atfQ1SEtLk5bgwE2FoB1HHg3cMKpXr57+jmkQXAf0lvwmlOFERPazdhEmEYUbw4mIrMRwIiIrMZyIyEoMJyKyEsOJiKzEcCIiKzGciMhKDCcishLDiYisxHAiIisxnIjISgwnIrISw4mILKTUfwDMC6mZvAl6oAAAAABJRU5ErkJggg==;" vertex="1" parent="1">
          <mxGeometry x="-210" y="447.3" width="34.5" height="20" as="geometry" />
        </mxCell>
        <mxCell id="pyKBCwHcKjXSGV7HvNYQ-102" value="" style="shape=image;verticalLabelPosition=bottom;labelBackgroundColor=default;verticalAlign=top;aspect=fixed;imageAspect=0;image=data:image/png,iVBORw0KGgoAAAANSUhEUgAAARgAAACbCAYAAAC53YROAAAAAXNSR0IArs4c6QAAAARnQU1BAACxjwv8YQUAAAAJcEhZcwAADsMAAA7DAcdvqGQAABb1SURBVHhe7Z0JtI7V98ePzIQQMmXMmDHztExLSGXKFLKsylQhISpLJDKWIRXJzZAhIsu4VGaZyZjM8yxkpv6+57dv/V3u8z7TOe8z7M9a73L2eVnXfYbvOWefffZO8Mwzz/wjGIZhFPAI/ckwDOM6LDAMwyiDBYZhGGWwwDAMowwWGIZhlMECwzCMMlhgGIZRBgsMwzDKYIFhGEYZLDAMwyiDBYZhGGWwwDAMowzXDjsmSZJEPPbYY/KTKFEi6lXLnTt3xJ9//ik/t27dol5GBenSpRNp06aV7YsXL4oLFy7INhOZlClTymuXOnVq6lHPzZs3PXGfHAlM1qxZReXKlUWpUqXEk08+Sb3R4caNG/KC4gPBuXTpkjh+/LjYuHEjvwwmSJ48uShRooTInTu3fBkwUMT++eijj9Lfup8rV678K/Cx133fvn1i69at8n6EkQIFCoiSJUuKQoUKyeuXIUMG+iZ6xN6nkydPis2bN4v169eLv/76i75Viy2BgRI3b95cVKtWTTzyiPdXWYcOHZIXFh+8AH///Td9E26yZcsmXwZ88GK4dS/v3r0rdu/eLTZt2iSvOR7sIHPvHRLly5eX1zE+MfYau3btkvdm5cqVcnBQhWWBwYPYo0cP31zIuEDNt2zZIi8uRtpr167RN8EHS9enn376X1HJmDEjfaOWU6dO/Ss2eLAhQEEAM/dmzZpFffbuBLgWFi1aJObMmaNkVmNJYCpWrCg6d+5MVjCYOXOmvLi3b9+mnuCRIEECUaVKFdGyZUuRJk0a6o0OWK5OmjRJrF69mnr8BwbZV155ReTJk4d6/M/169fF3Llzxfz586X/xi1MCwzWlH369PHFksgqZ86cETExMWLDhg3UExxy5swp2rdvL30rXmLv3r1i3Lhx4vDhw9TjffDst2nTRtSuXZt6ggfehYEDB0r/pRuYEpjMmTOLQYMGSUdgkNmxY4cYP368OHHiBPX4FyxhW7RoIapXr+7ZQQG+sCVLlojp06eLq1evUq83wU4QXAMFCxaknuACB/3IkSPlBolTEmbJkqUvteOld+/eIlOmTGQFF/gkatasKQXm2LFj1Os/MGsZMGCAnHVieeRV8H/LmzevXL5t27ZNXL58mb7xFvfeEdG/f3+RI0cO6gk28NVVqFBB/PPPP9JZ74SIAlOkSBHRoEEDsoIPRnvsCOAi79y5k3r9A/7vvXr1EilSpKAe74OZcdWqVcXRo0c9N3uESH/44YdaY1i8AMQfGwLZs2cXa9eupV7rRBSYVq1aye3MsIGpMEZX+GX8suuBHY22bduKhAkTUo9/iB01sWxyOmq6BVwDffv2FcmSJaOe8IF3HwMAZph2MBQY3PQOHTr48oF1AzxgpUuXllus8LJ7laRJk4pu3bqJGjVqUI8/iR018VDjmkczXgkvFZZFCDQMO/ny5ROnT5+25ZA39P7hRuMIQJjBFHHIkCGe3ZJECP/HH38sYzKCApZ58CFFa0sdy+SePXtqixPyA5ho5M+fnyzzGAqMF8KcvQB2ZLB1V7ZsWerxBhgABg8eLEUwaMBRjd8NDlbdtGvXTvpemP/AKgaimz59euoxh6HAsILfz1tvveWZmQxE7/333w+08xFnebCDqTNqHJsaOALDPAjuA8TXCoYCg71/5j8SJ04sd2jw4EcTjCbvvvuuXB4FHQxyGDl1xfLgjB0TP8WLF5c+GbPouWsBAjMGiEw0fVOdOnWydJP9Dtb+r732GlnqwMuDnUPGGCsizAJjA/gHunTpQpZenn/+eVGpUiWywgN2yFSH6CPymYlM4cKFTfuoWGBsgl2bJk2akKWHokWLipdffpms8IFzQHi4VQDfGgYOxhy1atWiljEsMA5o3Lix3FLVAXaM3nnnHc+eK9IBfnecB0J8ktsgpwtjHiwnzTyLLDAOQXyAjrB8LMnCHFEaCwLg3nzzTbLcI0hxRDrAM29mmcQC4xC89A0bNiRLDWXKlPF1UiO3gSMWI6hbYFeQl0fWMTPrY4FxgTp16igLKcc0lJ2PD+LmNeHZiz1wjCYSLDAugPgYVbMY7BhFI5rV62DG4VZkda5cuajFWAExSpFyRLHAuATyyFgNo44Ez16MwelxN5zefKDRPpGuHQuMS+DkOR54N0HsRxiide0SWzbHKWHL9eImkQ6kssC4CB52N3eUgpz71S2effZZatmHZzD2YYHRCKbrKF7mBljfBvGUtNtgR8npLM/tpW2YiCTOhkm/X3rpJfnRATKHWQXOVfyC+OC8CiJdo52/Zs2aNeLTTz8lyz5169aVkavRBtnltm/f/m/VTIgorje2dosVK+aJM1FfffWVWLp0KVnWmTFjBrXU8ssvv4jly5eTpRY775MdUIJm3rx5ZD2IZwTGrbB7JJCGYzRavgtkvkPNHKfgAYlWThJklZ89e7Z8aSMV48IRfoSNI28zMutFAxTQQ9ItO0Awp02bRpZaUD1h1qxZZKkFoqtj6Td69GixYsUKsh4kcEsk/LKoA6RrVIoLtu0wsjsBL220xOWnn34SHTt2NF3pD38HYoQT3pi9RQME3XGU8/2gFrUOIv0cQ4HxcsmLSHz//fcyZwoKSenGTACSEdE4F4NZC5Z2X375pa0Soig5gn8/ZsyYqBS+d8v3FRQOHjxILXWgrMmBAwfIejiBdvLil0dGtPPnz1OPHpxGhjoVKKugagJKc7gxA4GPAfl0dVdi0H3NvI6OKqV79uyJOBgFfhcJIyseeBT51gX8P3ZTayKexs1zNmbArGP//v1kOef3338XY8eOJUsPKObvRtBdUNi8ebM4d+4cWWpAVc5IhOKOoEojHGw6sRt+rruSw7p168SqVavIcg/4wrZs2UKWehB/FIbqo2ZByZeZM2eS5T6oXW2mIFtoJH/BggXiwoULZKnHbskNnVGleAixzaiKKVOmaK1tFK0yJ14Fy9VTp06R5S7YeTNzb0MjMPAJLFy4kCz1+EFgMI1W6QQ/cuSI1vK7HPJ/PxCAoUOHimvXrlGPO2BphJmvGUK1aHVSY9cqdh92naPwr7/+Si11eP2a65xhYddFNxB5xFTZ2Rl8GIsXLxbjx48nKzKhEhiM1iiwrgO7ApMqVSpqqQUv1vr168lSB0RM14tl55rrdAxHK+zj0KFDMtXoyZMnqcc6eF5iYmLE119/TT3mCJXAAB3xAcCuwNj9d1ZBrWEd8SoYOXX5vuzM/oI+g4kFO0oot7No0SLqMQ8cuqjTPX/+fOoxT+gE5urVq9RSi12h0BHeDdxelxuB4xM60CXOfgX3fMKECaJz586mjoHs2rVLHjno2rWrbV+aocBEU3FVoetht1sVU0cCcXDz5k1qqUeXmOksMetnsFSCcLRt21YGoiICe+LEieK7776T8Us414WDtvDdODlECgwFxs9HBeJD1yhn16mm65rrHDx0LUNQUtcqYfDBGLFv3z4ZwY0wjh9++EGe+MbhUbcGhdAtkXQtQS5dukQthgkvoROY3LlzU0stuk6zMoyXCZXAIAxfV54YFhiGCZnA6DzSzwLDMCESGKTXRBpKXbDAMEyIBKZ+/fpakzuzwDBMSAQG6ScbNWpElh4Qns0wYcdQYIIQaIfET0idqTPeAWeeTpw4QRbDhBfDt87vgXbIbYtoRN0JoZEGgWGYAM9gUIy+Z8+eUSmloTOTG8N4mcD5YCpVqiRzzLpdJ9oKO3bsoBbDhBuu7OgyToqAAWT3L1iwIFnqwOlY/Cwd9OvXTxQoUIAsdUDY8bOsEsTKjjjMikqcOtPEPgzPCExQ+Oabbxyl5mSBsY9dgcFJYl2n2KPBlStXZNgETlHDP4hEY25luItEoJ280QAzGMZfBD1mCVkSs2fPLsqUKSOrniInDFYML7zwgqwxrpLA+WCiCRL0OElLyESHMJ58R2xYy5YtxahRo+SfqnLpBHYXKRpgZGD8R5ijruGzxEwGGyPYeXV715WXSC6BQmPI4M74D87dI0Ty5MnlzuuwYcNE1qxZqdc5vERygdu3b4upU6eSxfgNXYng/UDGjBnFwIEDHddXj4UFxgWQbT3a24GMfTZt2kQtBiDyvXv37q6c32OBcQi2+5DLlPEvly9flrlpmf+Ae6Rp06bi7bffph57sMA4AE7wkSNHaqtUwKiDj3c8nHLlyonWrVuTZR0WGAfA78JxL8GAl0nxU69ePVGlShWyrMECYxPUXJ47dy5ZjN85cOAAO3sN6NChgzyOYxUWGBvs379fjB49miwmKFituxwmUHMK2QmsZoU0FBgOtHsQ7BZ98skncmuaCRZ79+4VGzZsIIuJC6J927VrR5Y5DAWGA+3uB6IyaNAgzrcbYCZPnqy1IL7fKF68uMiXLx9ZkeEZjAWwY8S5doMNzpJx0KQxzZs3p1ZkeAZjAsS69OrVS6xbt456mCDz448/8r02oHDhwvKwpBnYyRuBo0ePyqhGOHaZ8AAnPp8ti59atWpRyxgWGAMQfNW7d29x/vx56mHCAjLCwd+mKzGT34AvxkylDhaYeJgzZ458wPCgMeHk3LlzYujQoeLGjRvUw8SCDIBmlkksMHHATtGIESOko4+d3AySiMH/xrPYB0FZoEiwwBDYmkROl86dO8soXYaJ5fjx49IPhzgZ5j9Kly5NrfgJvcBglgJBwalROPYwLWaYuMAX06dPH7Fy5UrqYZA7BomqjDAUmKAvETZu3Ch69Oghl0Rc6pWJBGa5yGGLsjQcD/U/UDLICEOBCVocDB4QrKljYmLk4a3BgweLw4cP07cMYw6coMe5nM8++0ycPn2aesNJmjRpqPVwAr9Ewi4Qzpd8/vnn4tVXX5XlGpCBjp12jBMwu1+9erX02eGZQi2sMD5TjgTGL0skbCNiyoroS0Rhjhs3TvTv31+88cYbolWrVmLIkCFi2bJlHNPAuE7srBgF9zArxo4TQhzgED579iz9reASSWB8XTr21q1b4syZMzLlYVDgyo72sVvZUTUpU6aUBc5Sp05NPWpBaoUPPviALLVMmzZNzJ49m6wHMRSYJk2aiMaNG5OlFvwshgXGCV4VGN0gwhYvvg4iCUzot6kZhlEHCwzDMMpggWEYRhksMAzDKIMFhmEYZbDAMAyjDBYYhmGUwQLDMIwyWGAYhlEGCwzDMMpggWEYRhksMB5D1wl2nbl+zGSfd4O7d+9SSw158+YVFSpUEHXr1hUNGjQQ1apVk9n1UVLVS3ipMiULjMe4dOkStdSi62Qv0PWzrly5Qi33yJw5s3j99dfFhAkTZCa7Ll26iDZt2sjqhkjPgLI2+A7ZAGrWrEn/iomFBcZj6BKYSHk83CRSWkW3cLNmOGYlEBZkrYNwRJqloIQH/v7w4cNl5UPmf7DAeAxdhfVTpUqlZWaBxNDJkiUjSy1uXTsUdx82bJitGUm2bNlkcvDWrVvLvCzRQNeS1AwsMB5DZ/IsM2UnnFKyZElqqccNgYGP5aOPPpIJouwC/1a9evW05duJC/tgmHjRNYMBcFCqpkSJEtRSj9PlZZ48eUSnTp3Icg5mQl27diVLHzyDYeJFp8CUKlVKLmFUkSVLFlGsWDGy1OPk2mE5061bN5E4cWLqcYfy5cvLWVFYYYHxGLqcvAAvVbt27chyn44dO2odTZ0IzHPPPScef/xxstwF/hi3hcsvsMB4DFSWvHbtGlnqKVKkiKhfvz5Z7oEcy1gi6AJb1HbFGc5ulbmn06VLJ1588UWywgULjMdAoN2mTZvI0kOLFi1E9erVyXJO7dq1tSWLjwW1r+xSqVIl5TtdderUoVa4YIHxINu2baOWPtq3by8aNWpEln2aNWsm2rZtS5Y+tmzZQi3r5M+fn1rqQFiASn+XV2GB8SCbN2+mll6aNm0qKxXaCX3HMgNO0oYNG1KPXn777TdqWQexKzqA0ztssMB4EFSg3LdvH1l6qVixoiyzi7M2ZoQGIzOWQ2PGjBFly5alXr2gsuL169fJso6uowy6fo6X4MJrHkVnVU0jdu/eLbZv3y4uXrwoP9gVQug/HJdFixbV6siNjylTpoi5c+eSZZ0ZM2ZQSy2LFy8Wa9euJUsdXNnxIbDA3M9TTz0lBgwYQBZjRPfu3cXhw4fJsk5MTIxInjw5WYwVxo8fL5YsWULWg/ASyaNgiaRzu9qvYHvaibgAncGNQSPStWOB8SjYrl60aBFZTHzMnz+fWvZhgbEPC4yPmTNnjtbIXr9x4cIFMW/ePLLswwJjHxYYH3Pjxg0xc+ZMspi4wMF4+/ZtsuzDIm4fRJ4bwQLjcZYuXSpOnjxJFhPLsWPHxPLly8lyxsGDB6nFWAH3IFJqCBYYj4MbOGnSJLKYWLB74Vb+Yt1HM4KCmYBQFhgfsHHjRrF3716yGBylQHCdWyDJ1/79+8lizMICEyBGjhzJ29b3gBh88cUXZLlHtI5n+BU8i3v27CErflhgfMKZM2dknlgvpUPUDcqSDBw4UJw/f5563IOXSdbYunWrqWeRBcZHIGR/4sSJZIWPsWPHKlvKHDhwgJdJFliwYAG1jGGB8RkIvsPOUtjAA71ixQqy1IAjA0xkrPgEWWB8CHZQzKx/g8LOnTvFt99+S5Y6cE3x8jDxY3VX01BgEOilA10/JyjgJg8ePFiJL8JrwPeE31WX72ny5Mmh9nNF4ueff7YUl2UoMLpCqJEGgLEGcsbgtLXOOkq6wXOB39FJrhernDhxQkYIMw8CsYcAW8FQYHQ9vHwWxB6IpOzRo4c4evQo9QSHQ4cOyd8tGlHMOAO2bt06shhw69YtWZvbaqiEocAgZYCO6eIff/xBLcYqOPCHAuxB8h0gKdN7770X1TNCo0ePFkeOHCGLQY1uzO6sYigwmIbv2LGDLHXwaOGMmzdvSj/FrFmzqMefIPQf2eVGjBjhyiFGJ+CaDho0iIMb74GMdXarNiTMkiVLX2o/FIgMyjqoAgfNpk+fThbjBOy2YNmEmtNeKh9qBrzQw4cP99QWPMQFs+ty5cqJRIkSUW+4WLNmjdy1tEtEgcEaGMW5VFW9Q3RqGHZDdAGBQZQlREZ1rR+3wDKvb9++ntx6P3v2rFi/fr28nilSpKDecICZixNxAREFBmBkrFq1quvlL5GNDNtejLtg9wXXFUuOXLlyeXb0RXgCknXjnJWXBxmk5URqiIIFC4r06dNTb3DB8hT3xI2MiqYE5urVqzKMunLlyiJBggTU6wyI1qhRo1w7cs/cDx4S+M+w5IDAQGiQbd4LYDmEyFzMXlEw7c6dO/SNd8EuyrJly0SmTJlEjhw5qDd4YDbZr18/13yvhlUF4lKhQgXRpUsXsuyDo/ZwoHGAnT7Spk0ri6LVqFEjajMaiB4ED1NvP2eRK168uCy3mzNnTurxPxDQhQsXynvjZtyRJYEBBQoUkPEJdqr/ATiNMHPByVhGP7hvJUuWFGXKlBHFihUTSZMmpW/UgEEE+VuwC4Gt9KDsymAmjwEXpXIxq/ErCEPBchobLSpE37LAAFSow4VFwXSzuxVwFk+dOpW3pD0EfGoQmVKlSol7z4FIkyYNfeMMBE5CTPBBSVc/LIHsgucfgy6qWkK0/eCjwf3AEgjOa7yP8DGpwpbAxIJau/DL4AF92LoUUy2ssfGgrVq1inoZL4IRGRUbMRrH/TzxxBMPlD3FaHf69Glx6tQp+WfsB+HkYT76kSdPHik2hQoVksvSDBky0DfRAwIC0UegHAQFuW90Hb9wJDD/nyRJksgHFB848fALcbb24IAtbwgNwGwU95gxR8qUKaXY6KxNjfsDoYfTNpq4JjAMwzBx8Ve4J8MwvoIFhmEYZbDAMAyjDBYYhmGUwQLDMIwyWGAYhlEGCwzDMIoQ4v8A6iFkpQU/CHIAAAAASUVORK5CYII=;" vertex="1" parent="1">
          <mxGeometry x="-168.07" y="447.3" width="36.13" height="20" as="geometry" />
        </mxCell>
        <mxCell id="pyKBCwHcKjXSGV7HvNYQ-103" value="" style="shape=image;verticalLabelPosition=bottom;labelBackgroundColor=default;verticalAlign=top;aspect=fixed;imageAspect=0;image=data:image/png,iVBORw0KGgoAAAANSUhEUgAAAR4AAACbCAYAAAC0w/QJAAAAAXNSR0IArs4c6QAAAARnQU1BAACxjwv8YQUAAAAJcEhZcwAADsMAAA7DAcdvqGQAAA+ISURBVHhe7d0LbBXFGgfwD3m0QGmBYo2Hp4ACpWArIAWB4BNBBXkJKpFEjPERoBpEMD5qDI8EwQY1JAYTjAaESERBxASDotIqlCIFNFCQUCiKoTxaWqwU7v2Gr/dwfbRnz9mZs7vz/yUnzkzVwp6z/zM7uzPTqF+/fpcIAMCgq+SfAADGIHgAwDgEDwAYh+ABAOMQPABgHIIHAIxD8ACAcQgeADAOwQMAxiF4AMA4BA8AGIfgAQDjEDwAYJy22enNmjWj1q1bq1eTJk2kVa8LFy7Q6dOn1aumpkZa7ZGUlKSOd3JysrQEx6VLl+js2bPqvT137py0xl9KSgq1adNGfd5t/uw55WrwtG/fnoYOHUr9+/enTp06SWt8nD9/nk6dOqVe/GE4c+YMHTt2jHbs2EHl5eXyb/lfnz59KDs7m/77PlLbtm2lNdhOnjxJ27dvp4KCAtq3b5+0mjN48GAaNGgQZWZmUkJCgrSGHT58WP35vv32Wzp+/Li0wpVcCR7+hn3wwQfp1ltvpauu8v7VG38wdu7cqV4lJSV08eJF+Yl/dOnShaZNm0Y9evSQFjtx8Lz77rtUWloqLfpw4Dz00EOUlpYmLfXjz9XmzZvpww8/pMrKSmkFFnPw9OzZk2bPnq26+X5UUVFBRUVFKoR27dpFVVVV8hPvuvfee2nKlCm+CHkT+ARfvny5Osl14KGCmTNn0sCBA6XFGf6MLVy4kA4cOCAt0DgUCuVK2bFbbrmF5s6dq65v/Yq7yp07d1aXK/fff79q4w+IV3tBjz76KI0fP54aNWokLcDHgi81+b3cvXu3tLqjZcuW9NJLL9GNN94oLc7xn+v2229XvbKjR49Kq92iDp709HTV0wnaCdC7d281TvX7779TWVmZtHrDAw88QKNHj5Ya/BVfdtbW1tJPP/0kLbHhHuULL7ygevVu4B5TcXGxGqOyXVTBc+2111Jubq6vezr14W857s316tVL9X64qxxv/KF97LHHpAb/hr84eAzPjS+NJ554gm6++WapxY6/pPn/l5+f76k7c/EQ1SDB9OnTqXnz5lILroyMDHr99dfVHYx4atGiBT399NNSg/rwyc3HKjExUVqi07dvX3WzxG08Fvr4449LzV6Og4dv33bv3l1qwccDi88884y6axevy8oxY8bEfCLZhHus99xzj9SiM3nyZCm5j0PthhtukJqdHAfPXXfdJSW7jB07lubMmfOPz23oxGF35513Sg0iFcsx40cVdH+5jhgxQkp2chQ8/O2flZUlNfvw333+/PmUmpoqLfrxgKlfH1WIJ36YsmvXrlJzhu+Q6ca/w+bHIRz9zTt06BDYAeVIdezYkRYtWkTdunWTFr2uv/56KYFT0fZaTBxzHrcLhUJSs4+j4Ln66qulZDfugSxYsCDqB8qcwDGPXqRPGP9VtP+dUza/t46Cx9Qb4hczZszQ3vNB8ESvXbt2UnLG1Of8mmuukZJ9HAUP3y2AsKZNm6ont3l2si7cJYfoRDMswOMupoYTbD6f7B3dcglPkPX7tJGg4lUJwJsQPC7g2685OTlSA6/gJVHAmxA8LuE1iHguFXgHZoN7F4LHRRMmTIj79Aq4jBeCc3umOrgHweOyJ598EgPCHvD555/7coE3WyB4XMZzqsaNGyc1iIfq6mpat26d1MCLEDwajBw5Ui26DubxovBLly5V4QPeheDRgJ/vQa8nPlatWkWFhYVSA69C8Ghyxx13uDKZlL/BITLr16/HJZZPIHg04Zn8bqzpErSlZXXgQeR33nmH3n//fWkBr0PwaMRrN+MOl168vc2sWbO07TABeiB4NOJ5P7GuX4RLrb/jqRCbNm1S637zCzs3+I+jfbUmTpyoXibwB8opHtSt2zaZF9DiJSbjPYdq27ZtlJeXJzXn+Djwjh668QLpK1askJr3mNrCmL8seAM+E1avXk1r166Vml08GzxuTT8YNmyY2v0xXtv78m3dqVOnSs25V199Ve12odvevXvV77IdgseMwF9qbd26VW1TsmbNGmkxi3fjiGUzOIAgchQ8fr7D8tFHH6nF2k+cOCEt5gwYMEBKAMCsGlw+dOiQ2hnS9E6OPHMdAMKsu6vFA5Tz5s2jmpoaadGPx5dMLQ4P4AdW3k7n2688sGfSddddJyUAsDJ42MaNG6m8vFxq+qWkpEgJAKwNntraWrVmiykIHoAwa4OH5efnS0k/XhQeAC6zOnj41nppaanU9ELwAIRZHTzsl19+kZJeCB6AMOuDR+e8nysheADCHAVPEGdKV1VVSUkvLIUKEOYoeIK4KJWpMMXyFgBh1l9qAYB5CB4AMA7BAwDGIXgAwDgEDwAYh+ABAOMQPABgHIIHAIxD8ACAcQgeADAOwQMAxiF4AiSWuXQtW7akjIwMV1+8m2taWpr8BoAwRzuJ8u6eEyZMkJpebu0k2hBTfyeeJDpp0iSpRc7UTqI6VVZW0p49e6igoEBt6exl2EnUDPR4QLukpCTKzs6mnJwceuONN2jIkCHyE7AVggeMat++Pc2YMYOeeuqpQC6zApFB8EBcDB8+nF555RVKTEyUFrAJgsdHgtZDSE9Pp2effVZqYBMEj48EcRXDzMxMmjJlitTAFggenwjy0qmjR4/G3vKWQfD4RNAHYu+77z4pgQ0QPOAJgwcPptTUVKlB0CF4PI6fgbFFVlaWlCDoEDwe17x5cykFH0+xADsgeDwuISFBSsEXCoWkBEGH4PE4njtki1atWkkJgg7BA56B3VbtgeDxuNraWikFX0VFhZQg6BA8HldTUyOl4CsrK5MSBB2Cx+Oqq6ulFHz79++XEgQdgsfjeBEtWxQWFkoJgg7BA57w3Xff0alTp6QGQYfgAU/YsGGDlMAGCB6Iu3Xr1tHBgwelBjZA8PhIEJ9zKSoqopUrV0oNbIHg8RFeGiNIy2MUFxfT4sWLpQY2QfD4TFB6PVu2bKHXXnvNqueUIAzB42N+DKEjR45QXl4eLVu2TFrARggeH/PLZdeZM2fU7XK+rJo1a5bnN/UD/bCTKHYSVQ4fPkwrVqyQmjv4MoqfzTl58qS0eB92EjUDPR5Qzp07R/v27XP1VVJS4qvQAXMQPABgHIIHAIxD8ACAcQgeADAOwQMAxiF4AMA4BA8AGIfgAQDjEDwAYByCBwCMQ/AAgHGOgieIK+CZ2iI4SAt4AcTK0VkXxJMnOTlZSnphBwWAMOsvtVq3bi0lvXhNGgC4zPrg6dq1q5T0On36tJQAwOrg6dChA7Vt21ZqeiF4AMKsDp6srCwp6YfgAQizNniaNm1Ko0aNkpp+CB6AMGuDZ8yYMZSamio1/RA8AGFWBk96erqxRevr8GLqAHCZo+AJwgOE3bp1ozlz5hh7cJCdOHGCysrKpAYAjs4+vz9A2K9fP8rNzaXExERpMWPnzp1SAgBmTY9n3Lhx9Pzzz1NCQoK0mFNUVCQlAGCBH+MZMmQIvf322zR58mRpMW/Pnj1SAgDmaCfRiRMnqpcJfEnkFN8i5ykQ/OrRowf17duXmjVrJj+Nj127dtH8+fOl5hwfBx4M103HTqJu4t722bNn1d1B3nxQpzVr1khJry1bttDXX38tNe+5cOGCOt784l1h3eTZLYyDgk/mjRs3Ss05U8HjJ7w76fbt26mgoEDtWOo2U8HjJ4cOHaLCwkL65ptv6Ndff5XW6AX+UiveYh3fwXIaf8fPX919990qlPnVsWNH+UnsTN7t9BOe08hXO3l5eTRt2jRKSkqSn0QHR1kj/jY+fvy41EAH7g0uWrSIxo8fj9AwgI/xiBEjaOnSpXTTTTdJq3N4pzThMYnly5dLDXTik2HSpEn08ssvxzymd/HiRSlBfbjHw8/DPfzww9LiDIJHE74WPnr0qNTABO795OTkxHR5il6TMzz1aOTIkVKLHI6yBn/++SetXLlSamBS//79Ve8HzJk6dSr17t1bapFB8Gjw2WefUXl5udTAtLFjx1IoFJIa6Ma9xOnTpzvqLSJ4XFZZWUkff/yx1CAe+FKLn1QHc3hBvWHDhkmtYQgeF/GAMo/2V1dXSwvEy6BBg9QDpWDO8OHDpdQwBI+LeFyHn1SG+OPQcTruALHp2bNnxBOwETwuyc/Pp08++URq4AWmFvKHy3iMp1OnTlKrH4LHBQcPHqS33npLauAVprYugrA2bdpIqX4InhjxRn0LFixQt9DBWyI9CcA9ke7a4ih4zp8/LyVgHDYcOjxrWpc//vhDSuBU48aNpRQ5fnKZZ2VDdCJ9eNNR8GDB8v/Hd7B0r6WMYx69aI8dtpuOXqTH3FHw6Pxm9xN+VufFF1+k77//Xlr0wTGPXrQBgmMePS3BU1JSYv0kumPHjtFzzz1H+/fvlxa9Dhw4ICVwKtpjh2MendraWrVuTyQcBQ9/09u8jCevrTN37ly1EJUpvPiS26u/2YDHI3fv3i01Z7Zt2yYlcOLHH3+MeBzYUfCwWFbT87NPP/2UFi5caHyAnQc6v/jiC6lBpPhzGm3v/Oeff6YjR45IDSK1fv16KTXMcfDwVi38xtiCT/w333yTPvjgg7jtsrF27VqqqqqSGjSEe+axPsz53nvvSQkiwb3LvXv3Sq1hjoOH8cNyQT8R+Nty69atan0XXlsnnvhY804Z0DC35ssVFxfT5s2bpQb14aBftmyZ1CLTOBQKOd7OgVf556d1hw4dGvF9e7/gDy7frVq8eDF9+eWX2nc0iBTvRMqPpGPh9/qtWrWKvvrqK6nFhsf0MjIyqF27dtICf8UDyvPmzaPS0lJpiUxUwcPqtuXNzs6WFv/bsWOHWsx606ZNVFFRIa3ewV3ZVq1aUffu3aUFrrRhwwZavXq11GLHX0I//PAD9erVC+HzL5YsWRLVIL6j7W3+Cc9InT17dsyrzscDX07xeFXdVikm71bFYtSoUfTII49gmU7B7yOvb63r0qhJkyY0c+ZMGjhwoLQAfzHzzZZoHz2IOXhYcnKy2qnztttu8/zJUHeblcOGb1Xz9akfdenSRW0zwhsX2ox38uDQMbG+Na/xw4ubp6WlSYt9OOR5CIIvaWM5d1wJnjq83CSP+/C6t507d5ZW8zhceNOx33777X+vujpfIgZJnz59aMCAAeqkSElJkdZg46djuYeqa0O/hvBnnI95ZmZmxOvP+B1PDeIvar7h4saWTa4Gz5V4m5G67YS5q2oCP2jHwWLrI+98ucvHm3ugQcPjLfy+cuh4ZcCfcdjzLPgWLVpIS3DUbWHMU0/cXn1BW/AAAPwbjE4CgHEIHgAwDsEDAMYheADAOAQPABiH4AEAw4j+A9EobRmYRr1vAAAAAElFTkSuQmCC;" vertex="1" parent="1">
          <mxGeometry x="-126.9" y="447.3" width="36.9" height="20" as="geometry" />
        </mxCell>
        <mxCell id="pyKBCwHcKjXSGV7HvNYQ-104" value="" style="image;aspect=fixed;html=1;points=[];align=center;fontSize=12;image=img/lib/azure2/databases/Cache_Redis.svg;" vertex="1" parent="1">
          <mxGeometry x="261.91" y="614.5999999999999" width="40.25" height="32.7" as="geometry" />
        </mxCell>
        <mxCell id="pyKBCwHcKjXSGV7HvNYQ-106" value="" style="shape=image;verticalLabelPosition=bottom;labelBackgroundColor=default;verticalAlign=top;aspect=fixed;imageAspect=0;image=data:image/png,iVBORw0KGgoAAAANSUhEUgAAAJIAAACbCAYAAACJdMJGAAAAAXNSR0IArs4c6QAAAARnQU1BAACxjwv8YQUAAAAJcEhZcwAADsMAAA7DAcdvqGQAAHDDSURBVHhe7b0JsGbHdd93vv1767zZ9wEBgiAIkiBBirtIUbQoSyJt2ZQdybZsybJkbXbixGsUu2JHVaoklcXO6koqSbmSVLkSxU68xHIsiRQlSyJFWaa4ggCIHZh93szbvv3L73f63jdvRsRmDkGQNf1ef/fevr2cPuff55zuuzXi1APzuB1uh68yNKvt7XA7fFXhNpBuh1sSbgPpdrgl4TaQbodbEm4D6Xa4JeE2kG6HWxJuA+l2uCXhNpC+lqFhnN0Y63Dz8Td4uA2kr0FI/Mz9dUfAuC2H18M3D4gMt4H0NQjzRoMIa71mMAcwc/ZnCxHTFglTjifETub9Zgm3gfS1CA3A0hiX3XmbX7XSTklrCSbT+RFg3yThNpC+FmEOWDRpzVHRTCF40EKzcXRnE3AmyAYlzzdJuA2kr0WYYrbyUviogAXN02/txPEDO3HP6YgDqyMU0+9xmsj3jXv9/DaQbnFo4B9FC22D1mk2+mwb0Yn1ePPdo/hP/sO3x3/3X39HHDl8LqZTfKbatM1mpdw3cLgNpK9FmF1F4+Ab7TTiyNJW/OgP7o//5j97V3zku0bx2rsei+/+/WdiqdfNrAkgnXO10TcwmG4D6WsQOp2D0Z5uxr1nLsTP/cyb4mf/2pvjDXeTjn90sL8a3/eht8WRtUcADqaP0Kwc8G/kcBtIX4PQnG3EO9/WjJ/72XfE9/+h/bEYF0gbRRtuT4br8ZbXr8VHvucYgJvHHLP2zRBuA+nfJDSYge0GZmA61Po5TPO7zSvx7W+fxM/++++M73zfcnTjqehhsjrNFn7RNLrdWcx2nowf/eNviNee4bi9XcqnVauccw88zvRvDKDdBtJLCK5Wp7wrYTdnHM2mONVTtEsjWuOL8eFvOxh/+2+9Od5+z2a00T7dRi9mk3HMJ+RpdcFgI/rNSdx5cjv+3J++M5abZxNowfkEkiHXnrKlb5hwG0gvIcyb05gLojmAwDeeN8fRaLZhYisa4wvx4Q/uj5/5S/fGyeNt0ucoKbQPsd0ux3UQIk3q+e4PrsZ3/77TlL2Kn73EiWUiYGpukaMsaJY1qFd+uA2klxJEwF5F0egyO+vl9P69b1+Mv/lX3hVvumsLTeWsrYUZ6+ZsbDLZawophgZqxTwOr2zHX/ipd8c9d2yhlSjTBkjzPjkQi1oplwfUVK/8cBtILyUo2FQskzJtR9iN6Xq89f5u/M2feV+85sxGxHAnekz9p6NxDIfDaHU6qZFuDpbvzFvxulfP48/+8Btj3+JTaKYdzngNrsp/20f6Jg1e3qgs1AxENRsbcfrI1fi3f+xN8Y43zKI5fja1ymSM093uZJxNRzHzIu2MgsRcLzK4Hc+Bzfn43g+diQ99x9FY7Fwo+Qzp0AOi2W3T9s0X5tUKtJMrNgdXL8dP/OnXxwffuRCzrYdxotsopGG0MWszr6fNMUsAowafIfcTUPhbzRFAmsSBhfX46R99e9xz57VYbFuGPC19sSnaTFP3yg+3gfQSQrPTRinNorewHwBcjQ998GD8iY/cEQvxbPQCgY970e4685rEHt86g5poVxtVodlsxGiIvzTfjntfPY2/8ONviWOrO9Gijfa8gzvWisloUOV+ZYfbQHoJYTZNdRLz4TlMWcSf/6E3xkG0Scvk+WJM8aGaaq2bQFODaC+Y1EzNBuav2wuv37aml+IPfsfJ+Ok//epYbj0bnekUreddBPXs7ZUdbgPppQR8pC4a59DapfiJH7ov3oij3JpsYakasTMbRWuZudgETTIrbG3U/s5XDM1coIzGIMHV6y5Fv7Ee3/8DS/FH/8jJ6Ha2aa8R3X65JvdKDy8/kHQujLbMjMTV4JLO6GviYH49Zil7Z0f1PsJN2vJuxnngN0ej3Y1uczP+4Hcejm97Sy9iB21ElmaziZM9jzFmaIpG0hGvHeu9Wujm0KKc51otnPIx/hCq7eDCVvy7f/aN8e43j9F0F2M0cBlgJ5o2NAbIXgx2OSHp1BFXa7mvc/71Cy8fkPYIiJ+SRii3NvsDKfVtFV/XAI17QiPtThNlhKDROscPjuMHvveeOLqPqXquRreKmZrhPE91xm8Ej76SUe1UxyBfLlZSfj5tEMfkH6OhxuBhHHce345/+yfeHG96HSCbbwUeN0CbRKeNzzQcAaqKT3knZk3v15d3LzOQcEKZ8jRzlJvoiJIEDvLeZo6/LmCyTeJNo3oOyudM372/aDbBzMwuxPd/z71x/2sPI8NRrg8JiASN/lEWwre5CYyGGlx1/uvAKreQcIbtDO0kV7bi/e8+HX/xp94RJw89Fl00j21N8ZcanSm+mvyzNe+ydO1Jvn197wF/+aRmx+cw3mtPRDhAlOkjRrHz6SFRYWbur0OgYdve0367i4CYWTUY+Q2E9/q7WvF93306WuNnIF3zcj1zg/6lZqpiSSvbm0MNKpcSKJXbOhpa8GO8/WB813v78Zd/4oFYwV+aDgANFU8Be6NLXmd13hxnsKFdzfT1CS8bkGR0M5+i8ECTMISFE0ZiG/OGQ5lCVFVnjq9PuGlUz3CuEyyjbix11+MPfPBM3HV0JxabWyl0zYzrQWTcNVcC5CuFm8GyN+icN9PGYyZnzOKiFwscLjXX4wf+4N3xYz94PA4uX8a0kmWKX4W5nTcZeK6Az1xnks6v7+zuZQOS7G3qb8xQxfNR3lYxDwEkuCbRn17jHMzRxL3sISVE23tnSNPoLnA8nsViayXuOjWOD37b6ei3cLDVopgkp+eap5zyUwdHu0CRse6lsrgJW5mn9hkrMyiYWhWg5pjRdrMdHWhY7V2KH/+hY/HHPnIq2tPz0emghSbyTA2OE07l7RZ0Tr4ygF+u8LIBScFMpjvlKhICG49bMH4affyO165eiA/c04llRxVO6wuGWggvJr6oYD6iPlod0DTDna1o95ewutvx/nccjNechmZ9IM202pWZVnMKkFxfAlD6VE7ZVVI63t60tmvGKkDtxloz7aEx0xleeS59IHQOZu7I0tn4yR9+Q3zHe/dHa3QuFXertUiWMU74MCZb+J1f5xXwlw9IMKfZ6aF7MB/TXvRoeXn4WHzodcP4L370vvh3/uCrozffrjK//EEhFkCV0GK+P9/Bd8MXOriyFR/+wB3Rj6uMfMCheREc5G/kJAEwWYhBUAOlNnEuTlaQuSHU+coBdWTURGEum5j8Ju2ouPjpkfyqY9fi5/7GB+I9b0ZrDZ5FOwHkaSe6S8uiKmd1X8/wsgGp2cDR3h4iIBxtVPKpzpPx7/2Bo/Ef/8jd8b4z52Pf+MvRxQn4Sj7E1z7IBmIDhzY1QfF3ooOQJsN4/b3TeNvrDkaH/flIjSOA0EY1RADLXFOXuzdqoDrU6buR/LXWSffohmDBqjATlGZzLZrj9Thz5Nn463/pW+Ldb8H0Ta5Ec7YUo+1RtDpU0HwRmvxrGF42IMm89mI/2vMr8YbDl+Kv/aHD8ePvX4hj7UdRyzuxieAGo+d2Vl9MEIQ3xxcVctmB2HQqLaDK6G63etFFM7zznQeiM99AmAII7ZNmbEqcJOC0xrklNhJkBSx12nPel513QpaQYKqAVUKh3Rvpxpj8DrT055fjgdeN4mf+yrvijjNb0Wm7NEGZFi6BM9+vY/jqgWR/61oqFd1wGg8oXLll3kqHMQVTRtH4Wrz90OPxH3/fvvi33rPK7OdSdBi2HbTVQsCsZgdnU1vvCKOulqqew4nLBCQ5DYdhTc/JONryBrIOTvra/Ml40+kRs51r1FMWB2/weV4glGf11ZYKhJkkGmNpqRFHVwbx3W9dQgNsMVngNPSWS278uA5UqxM1FCd2wbNnQKQGquINQcACnhvOJ5jqOtlPno6dFOKf9WMJrfnO183iZ//S/XFi8dlYaS7EdNMi3bzrIFe9XcR0rS5l4fKKmhaXogXi6+qtN0PVVrZj9Nhl/JL8YoPVfvWB/ufaSa2q5+NodfEgHImtfq7grszOxXtOrcdf/SOvi2+7axDtjUdi2VsmZCACaGsHZGp2xv1Sr6HZdVpeOj6f6Q9gVGbd6Iw3Yv/48fjgPaP4T3/qHfHn/vg7YqGF8wkzG4CSglnmBYPt7TKWAB2NVju2Ns7G2954KO44jOYY79AffJcUOObNvulYa6IElMCiO7klqJVqsBXA/d5YhyaAN6pBE0wMuoxVXbky7i4azJndQmsnvv3dh+PHfug10W08FIuLLgM0YsJA7S70qGeBWN0CTJS/LdcOhgySnBVX8QYwKTujjRWN/FLCLQBSIcopcBKUi4pyFKcRAPV7mIfJpfjWO7biL3/vsXgn0+jeztlYXOrEbATgYMwUh9ZrWY5474sudVIF5xhipAm2subUBZi9VidWJtfigSOT+Ct/5DXxX/7UW+OPvn0x1p/6fAxcuGv0irDRhi8uyNS63cJQp9WTjXPxtvtXY42ZQYv+qeUcHPWqdG22ElyqjCrtOoDgS7Vfn3dbRwHvhds61ppsb7RMjiv3Cbr1XnbT8f+hHzgVP/qnXsX+05hgNGIXXk62Yz6Yxr5FNHVs061RtLurMR1vM7h7qegTlLXoU1Y2gOyMmeaaFBlfQrgFQDLAYCm0upqgBsjoLkdj83y8+8xO/PR3H49vOXA51kYXMD2NmG6oj+04ZSej6HcZNd5Mn7MgyWIk5QsYYK79A0CO/snWpdg3Pxt/4l3L8bN/+i3xIx84GadaT0Z3cCE2t8nf3o/PIhC8p+el+A0V47Jt+zBlttaM++7ATO5sYDZcuS6CrYFQAyq1k+eImUafcmt2zlmuBpRpNTCypWr7nNH8lHNfTeFDBLoMC/hF+7uPxU/90Gvje3//UfBwIWbDUnmv04njhyK+6zuYCTfOMcNDw0x02jHZKR9HrFqeWtMCqIEoW5uAf4OQ9H1VQcbnpQ+JclQbm/CsHe3RTrx5/2b8ex88iG90JdbCWQ+nJ0yt24suw8hpNNcg+jiOvRajR9u+a6DtJNGM7S4jbxhvPDSMv/6HT8df/fDheO/xjVgRmJyZzA7Gg09OcM36aDYf+5nkms+LDwKFTQKJCPNPHl6Iu45TD6ZhXmmN2izV2iLBUcWbNUoNpr1pdUxA7j226Wq7N5Q0Jg5sGH784C/Bo/lkjl/ZiMPLl+On/8y98c43a84WGEQLdKEXly58OT78nafiP/iL3xpH+o/HAqZtPERb4Sft1fq7QTDVJm3mJayXBo2XlvsrBoQO2gObrBmi59TaBBiDeN3yU/EXv/NkvOvQJA7oEToyGBGOrzlaqAPwZkMcw+EwlvCD1vre50x93tujo45QW7FI/4axb/hEvPfEtfg7P/b2+JE3L8Wx5jA6w3E0Yag3nE3G4zh7+QrVD5DRMGY4niMc0RcXbEvHvGaHE4Vp3HVqNfYvw3AAtDPETCp8NJE+n7MzwWUs+2ieShOpocxTA6sGk4OmBqLBNKP5vpJZM0rTHO2uk5/7+mTefoJWd3LQZRDec2I7/v1/5y1xz6lnEzCjYcT2eDk+8RufjD/64dfFf/4fvSdOrj0R+9dcc6Ka6XZ0dB+nzgZ9AZiyU4Zs8tk6gFZIfNHhFgCJFpvMDGx8YueYec3GmLAn48+8ezU+cGY7lvFnWjqUCLwBw+BQ5jG2vVSCY+n5o2v9GI+28zaJ6RjBtVHFCOjw9Fp8/+tX42f/8P1xf/9i9IeXUdeUp74mDnBL4AHS4aSAj0aKopbZLylY1pGJN9bcjntetRYd/CxniwkUnGH9E2OtjepYmyjvlkwwCQLTq/0CCrt+fZtaZk+8XteetCqvBzlDrEwSuhcrMKW9Ofp4K95xX8Rf/vF748gCpmxhGJvDxfgXv/x4nD+3Ee971774ub/+3jjQeiK6DLJoYQ12JtHtwe+BT/rKJ+uu4LDrhL/4UJX8KoKMxyw1AEVqEBh/LNbjh955Mj7y+sVYmZ7Fv5jkrTuNfCJCJ9hRTnY1LCQ4E1tAE73qeAczBYMAW7PTit5sJw5OL8YPv+fO+On33B33dzdjjdE0Y0Y2y8UbfAa13HSYWmE07lMdahk6ctVZDfliQgoMYctMVT5+mvcBvfY1+/NCqX6J19byUohCFQQCxH6wTW3C/t6Ya01Ves7dPaac0fxFM1F3FWsQZb6qjvpYPymD605OQOSla1juENoArDe9HD/woTvjT/7hO6M//3L0+ytx7tJq/LN//mB0OtP4jvf24+f+2rfG8eWrgKkstYxHtNG2cvnENoFErAH1EsItAJKRzjaYjnfbsTS7FB+4Yx4//MCBODwAREzHhpgdL3DOkwkw2eV9tJfAmvhIDv5VbzaMN9zRi6XeFF+pGZ3BThwZX4wfe9ex+NF3HIm7e5vRG+4wLV9GEF3MGVpCdKKF5phWlwRG80XYAbMRkrOuFNCLCTkCiWme9ZUwzZ1JnDq2DLDRAIzYfi5j0FnoT+AQ817tSuh7Y/pQ7kNfOuKAQeDVwDDWmunmcLOJMzgonIPwy77A8rGoIvQCJWZo3rM0OB8/8v13xPe893CMt8+BueX45x//Uqxf6UVndjG+59sW4s//yJtjqfF0rDDm5przlB+10FTReJWJe4la6bmBlJWV3Qx15TdHOzRbQONgdGfb8dqDO/GD7zoYd04eZmTMY3PUBUx952BVNYWRTQiWcBdlezIBX+kNRxux3BkymqdxGin9+DvvjZ96YC3unD6KiVmPMfZ8e6sRXUcS7c2niwjX2RxtU1+nCYO18ao6/IqZM0dprMPNtNfRkP3Q/HaizWRghcnAMj5WY7gW460FfLGD0RitUvUyeZagUc1XgFdrDAWtlnDmmRqHo4bX39ySJ02xW+INIL+JnnmqnJquUr6IyvPwh/MtaG34glNo8KwLs+3WTpw68kz85J98R9x1Eo63tuORp6/Gb/zWOornYCw2N+L7P3Iy/tj3vyqGg0coIyHFVNY0knC97ZcQWrF6/G9W+zeGCkSJUm1oAqleX7iOPxtvoyrn/Xbsv/ZQ/IX3nYjvPDOPxcZGNNut6JLVRbGcw5NZ9uYichJMB1CxE0dodzH6s6vxycdasXN5FD/8ttPx/fetxRHqQbzkxvfK3yIc/R+v30lPiziEoR9/6FJ8/rz09WA0zm7Sa7Ssf7ZaFhU7Mp6R3UVLLs+X43AcibuaJ+N17XvjTQv3xQP9d8aB9XfH5c/cH2c//dY4+9kH4pkvvDEuP/qm2Dr76hhdPQSIW9FyEZH2XetSRXnj2Sz5Zcftr1goQkpNtatlquhxLnm4hb4qXzl2www3NRC5OfbHt+am8MmcTSUNuA8J2kVmcjux3DsSv/GpR2N9ux+LvcX49ndvMaCXogtPXnfXyXjwwS/H42fhX/MQdQ+gHxkmqBg0+Jw2Vyh8ceG5P/xXoVIVmhmsU38oVaq+TlWMTQvilieX4/te04y/9O2n4q72BYR0jcmFQCkzjJxywuy8p9n9xBbp1gvgxgIUk/Z//nYnHn98GD/wrvvjZHMz5tuXo7fAyHPmEkzrKThHYE18quy4V8pxZDY7q/HX/vkz8T//9laM0Bpd2h2pHTCjc7WUzk6rjZPejoVBP5YH3TjWPhx3HX5t3LFyZxxqHYx9rf3RbyxlmS60zJkuL0KbIBkJBuju6FPQ31njKk7tVvRXh7F6FL/w1Vtx5M7zsXL8HDh+NsbTDXo0jXa3WxZa8bFyXUzWKX0Hgus6OSHA3DtLBRyaNo+TTylHAXP9uqFnd8FYpRnUYmNmjboYPijw5XPH42f+i0/GL/76Zuzvt+L//nv3xqsO9GJhYR4DNOqnH+nFD/+7/ySevnI6Rmi3eV5ykgbAtbuW9+LD82ikCiiiXrTksVyoG6g6AeBaOL1vXb0Sf/69Z+Lexa1YmNQzAZfoocmydfaMpW5Hc6puNjOcdV/Q+arj++INZzpxct929BeuRXcNhi7jzC8Cvj7apYMz3is3yztqXWCD7WiCbnzx4jx+89GrwAbACQDrFmuQ3caPWhuvxvHp8Xhg9f54/7H3xXtPfHvc13tzHJ2ejEOxFivjFZpYYEwuMBNaiNkAbdXfz8ymzQznAKT2AeIy/T0Ifo9GY3AyxhunYvPcoXjmkX48S7z82Fo0h0ej11zF4e0i3nUsOZMBtKecTO45SOGJQJs7YeCMlzHwvjxZxfqXPAVRGXJPzcWmCePkZAEWKeRruE7E4dJqM06cOBkf/djn4trWchw53o33v+UkftsV+DGJI4f202YzfuU3vhTT1hr16BvlIh8RV+F6ky8qvDCQDHT8BhOn6PJY5A5jX2MQf/KN/fjeu3uxvHOJgY+xyXWZ7GaO5CyX/aWzplmW0efTpj7erI1PR5OO7l+ZxWR+NZqLs9jStK2ggfrDaPVGmdZaolwfx7tLTfQfI4bPO43zo3788ufPxxZO5pwR5WUDaV0cLMQdkzvibavvjA8c/fZ48/Ib4/jsVKwMDscCo7PnBc8u5k+tAPimOJ8NtF6XycN4wgynw0SiByI51+0Un8JBa1/mY2jByW/NjsTo2om4+vTpOPfYYpx/Ck0yW4p9a/hU+fobl0gAP3yd512hRuhT6hUwPE7eQLtcqlnmj/v1scCptVSdPpuQ5uq7dzDQp/l8PQ4dWonNzWZ87BNPxPL+0/Ghb91Pq5vqPdoYxJkzx+PBR67EI88MSClrbmXR0wXJbPlFhxcGUg6hJJ9/DyZYCQVUgNJnOv62w434yfccj2PDZ6KPUzRmJuZjPK52OGoaefmE8jKev8IE+ouQ9KNGwxEzPk0XY8Gb38YTgIVvYCbKujjYCJxMTGt5RxFbgNXs0UaH+joAsT2J9UkvfuFfPxU7jbWYMLiWQNmB4cF4YOUd8cET3xVv7b0lDm8eigPz/cxi8KOaPTSXvpRXyIsJ0Yy18qZ/Zo49HHnXvgC7C5Id+5brGG20qa+0QSDMFoqDr1FYZPa0P0ZbB2Lz0tF4+qHluPLsYiwt4rjv84a1dcrqo9G3WaeUzz81t7yVz/aVbM4WPVcN4hpaCSLOFHZapoBardXuAIPxFrUd4niAy7YdJ06dis88dDk+96VGfOS71mL/MoPSwlMUwDKmvr8Sv/hrD6a5y/c+WXfW+9LC8wIpsVRXWgGrBaO9G6/VYUZD0qHxpfiJt+yPtx+cxmp9QzpT/gRRXiGk82T0z/nILhf4b1Wve2m6zVHmNTKKY4uY08EIQOQx/oXM1DzALuorfhfqi0oAYw9t1QdgzA4fvTKIp57ZipX50bi79Yb4ntXvjLfuexuAOhCLE3wnHM4R9MycseRLslKR55JEi4HSIq2RDGVWiDlsMTr1O1pM/5M+Rz0apUk0XwufqunqO7TZX1fW2/hirflaxPCO2Dr/qnjyi4tMx+exsg/fa3GIxtsEi3g1LoEgAu/8aDX7uTqfdcgefSX67yNKHht2QZQD0bKklRSTVL7Qo0mHHvjTmA1idakXW+D8N39rEA/c1467TvWYaMwY7JPodedxAK312NmN+OIjTI5wvFOztb3tRM6Uul9MeF4gqQLLhVN7QhQU2PQ2I3UyZX4wGcR7ANCfe8tSHG5tql9jzCzIh0Eb+gWUmtoxe6kpdGZD6q5atr4yPjJdpsxzlqVPUdo0z0zw1ts0k4xaGJzdJD13cICXViPufu2JmFwexIGrd8X7D/+JODO7K3qTVcBJe9CFsoTJgAZfAp0DA9A6mNU5fsNMRxqgiOYmbRWKcLChxfvLm4LYMmqJ5oAondWTJJxxFuknI3J9psW55hZghO6to5i7hVg/v4AWOBwr+6G/8ximXE00BnjkwVHutF3GUCOl3ubPaqHJQZT7xKq7RS6ZupuvqfDx4zRbUyYhbW+lIf2+e++OX/3Nx+LS+SfjA++7h/RrOTDSVPemcfqO18Uv/tLnYmtnlSYcOBtstTi28eLCC5g2YzFheazQAFAD89OGmSdn6/Fn33483rV2jVkapgYENelgi7ywJrPPlV4l7JZahB0FWdSyLJNcz5NOmiy0zaLuqwiDSnrKmPwwm+KmCMTUguxNJ5uxujCNd957X5xsHY/hk5guHePGaub3dpWFPtNb//RbAE3RTF7TQwvB+N37eNROts45qdRE23aamvwjrzfC6aS5yGg1lEiiXOCz/wDA8i20TCOWY+vSvnjqy97psBQHDqLVOoB3jq/H4HCBtaXgdXZT89AudeWSQbZnvaVl26j2Mm13FgfNM4DQaOyUQcexNbq+hiqMX/7o78aHfv8bYrmH1mx2AS/tzoZx6MjJ+NLDV+LTn7+MeFeSphx10PBiw/MDSQ2CPRcUhTmobP6m6OJe7MQ79o/iT91/MA431kE4wmYkyrjZGF0K13Nk2l0YrQbJmW3FmARGMkzpkE5bcwXiGUeWzPFQh7wCdZYxs6cEZ9bjvr+S2GH6PmXKvh2nTyxFHzlfuuT1uzUcZxjEuW5HZlMmUdFLDd5SQ2G+dIJ9J6TgdUAUuqBQMAkwjmVtAtFrivKD/PJKcuSBg8HJRjENxc8JQYumnk+hYbgWT34ZQU0OxOqJDTTCCH5immnDP3ltPwWFdWSP+ZEUf9wWLW6bBUy1B+XeROCqIemL8JXmFvUvH1mMT/3W+Xj7A6fiwCozRUCkeW5r5qb4qAtH4qO/9lBsDJmVdtDQVX0vNjw/kCTUq811T9h0QPLUW1tnF+KP3bsW337Ucaiz2orhzk700FY+UtzAXKgG7GAxE6WKTJFHyYhSbx47i/O8x+wXVskytY/51HBVDbSlF0UqR5RLX4yU5hrOJpqxuxnTztNx+Ax6g2n404+Ths/SbC/EGJ/KKzVzVXtD7QQgqLaSG3RIjyad1l03SHpxjhNcaivbJy3psd1i1gzO+lI5CBoTMl87X3czJ5/np+N2dBtn4tyjaI6li3H4+AKC24a2aWwPMEc49PqXDsLU2vIoq6Ku7LA8YD9//Sn0FP8JQ4zJ9mZB+eFsVtM52L4WyweXAOtxenstTh5bhB/QA/DNMxvjChw8Eb/6yS/Hsww8rwhkP7L+rxAN2XcyJVEOvecEEiVQ2+1gaqjfAEO6ACTXkRHsW/oX4kfuPxqn0Ux9jpVlj5mWFOSopoO619l2jiyZWjNGU6Eg8iQ/Co6DqkzaevJ7VNiTRRQh5yqG0g5KjnKl7uw5jq4g8PJLOuyNy7F87Atoo31xHv8kpsdiNGkxGyMrRdqdRSpVa6hpKzOGqVMDqWmauZ7itqaiMM/my7F7Ni3gTZE2+oLv5MzSm/YSAM6mEFxqZASca0Y48heeuIu2LsXBU1dh9RXaxAQnX3wsa4HaaRmzp/YT5YpLXmoyVd7XNZH1+jNnYkJe66Ccd+RozruLDO7RNA7tW4iLF56M48cOowzwzaBtRh870Nxj1jue9eOf/vKz0LtG/Q4QQlX97wkphDo8L5D8UfCqWg/cRzvgB3WGG/Hhu1bi992xLw7ms2hVozJWRpNdQNRaxpDsR0BZW6odwWIz/OWsjNOCkHbMY5gVxOSxey7YqSDr87aTCrMSbh0Evi277N/qXGVm0oj+4iQuXobW2WkAeBrsoDUxgV4ySQPZll4Eg4lTi6Cyst6G03X6PYNm2yOz/xlSa3GQkfOmu99oLgGcYcy6G9FenDEbo1doijaapwtN7Rkzp+nR2N7sxYVzm7FvtRNrB7ejvfQ0dEPDhBkfwm3OvVXGvpQWBWzdT1+fU/tGM9O9zFSOIECH3aCZZWKEKzIBxX3M+xxrsrqCFkYzq9dzbCMn5rz4UYfil379ibi0qbku8tnt7M0hZVOHFwISsYCBnfqYv6PjK/Fn3nI67lscxbKOXF7juZ7HceJO0Tj8G/NPTQQBCqXk4E8TWDLlCGOrJUvnFqkUz6Guo4xA//xPoZmX8/rMahXp00FNrPLnzKjZvhrLaxtx6HgrLl+5nD5TM44gCDSnjOwAVsCjQwyHaYs+5XU669OEuuRAA45066zaLpd4HNVuBV1pP/Y9GXd/65V4zfu/HAce+NU4+MBvx8pdn4/u0S9Hc/VsjDoXYmP0tE2hKQ7GhafnceLUgegsPxqt/mUqZvouwG3SXkGkPXeY+UdykaNMqdLKf3VO554y3nLc8NISIFLbjgGUN7d1mfYLNu1N6QsaczqO5X0H41OffSa+8GX6r59n9clktjeHJKAOzwukHNPulMNkmkKaxDuXZ/HH7z0YR6brOWrKwLAbxafwPxla0SAtaR48zp+SzROFHDpdE5bM2RMyO6W1Y+yp1l1jqYWW0CJPAihzkA+CsmbyzmCWv93uTiwvb8XRE+q1a7G57SWWBZi+EmP8lvLgJmUwCZo3p/leC7MdwVacb/cdxQiW4zTV2ap9rc7bGiCcttdj6fiVOPWmq7H22i/Hkdefj+P3bsWZN8yIwzh679lorTwBXLbj6vo4rlzeiTvv3h+t3rk0W9kpqkyu2KXrLeWPA630kw0/pWV3OFkNft9YMsWkZVWk+8rmfq9D/Wg6ZYkvpXWY208o8eM6l65F/Mon8TExwUmA9ZUGbgom1PEFne2aoKoD7Hvf0IePtuP3n1iMfdMdfA7vcqw7UUf+a8Hnb6Elj81rHgNZ8gYxa68aUQOW0X89PS+dZOnC2SztbsXMkp//bNv9ql22quwmc0w/KDOPy7G4ci6OndrEb7gaG1vXYjTsMkE4DDgpwwxGotLEwdzsCxq3PE+nUy5jhS5bYu3zSVuhy3P8jVdja70TZ5/ajq1ttMBhBLV8Nub9p6K58nT0DpyN1WNn49T9O3H63gmaaBJPPXMuhsNJHDmJgNtb2bfi/+EjoVkyCJyqb+7bYmm3xDqtmMBCn4uc9R0G+o0OsBk87nQEGfWRNsZn0zXPBd7mcvzCx6/FxsC6BJPbqv3nCc8LpJyV5IiWWiubxyGc7z959754Y3+KO4hDSbpOnUysp8zXBQoJpDl6fM9iMse62XfPGs2al1HMr9gdIRb3EovTafqiP5BV8pOiKnYLmVeM1fcSuKQVhzZrTh64Ep6MFCj2KTaY1T0Ra4efRGiT6PVHMRwTd6BzvoQfsxzDqa/w28G/sgobqhiahFV9JCUDx/YmO8a+focmqznFPA2Ox8Uv78OpbscSDu/aEbQhTnWjPcZnoZ9tzNu+x+Poq7fj9KsXc1C22puxsLKVgyffMuLAo0/6QKmFCMUfKsflrgHp8a/4U8l/6YHeNuedKxU5eBMOZo5RNZV31K1fqmMiS11oXV4+HL/6W5vx2FnXt3rZVvaxantPz28ILwAkqSko5oCkadzXncQP3bM/jk62mFpzTirTw6cB+0RW3WODTeZ4tZo8WWVIkAFCpqa4gTHBEWVOHI0eNrtHu15D47jZowMdZk1dwNCh81SohpnQ+VwRADy5pV6pzPuAEqTSaqqXKgqQy20s0uHFYc4zw1vddzX2HXk41g49Gd3eAI0AoAY6ogsIyNV7HO/5CvuuMY1SCK69ZChN8UMPocGLzwpLx3fIjMiXtHca/eiNjsbowuk4//R69DGt+w4NYjS/AlDRAvM+W+jBZ+oefIbZm8+geWP+JueAxJS+q43wQWkihXkDT2vhUpftSpS9dtC6VQvV2qgco+Hge1nzM7sIhadTTL+vfp5Nor+wEp97eDt+67OXkIyLm7ZhZ8lY73+F8MJAclExAaVZm8R7mFB85PRCLE99MbmjHSZCEOKqyrFFuqWE5xRqRYQmCv9hwoicdpkJLdLGSju6B7rR2tdldPaitX+B/R77+C9rTNlX+5gFBLpK+upSzJZ6Me0zhZa//CWE637aYmJYatQU+jtXOekDk15RY1daAUZzvpwOZru9AaAux+FT5+PIKUxP+1xsb23EZOQa0xLdwZdqjfKJqAQqI7xoVvZzy58gUjNUx00GWBPgzmeD5E97uj9mg+U4+8QWI34Z4OJI9x6P2WQbOlaQpyvkruswONWC8ElQuvUpFUPyufSQvhR+um8svNUTtP2SSzbkIMsCyNCFZfbLepYLjtTvHQkzJxNZS5YjQ5y7tBX/7NcBEj5kaaGcL5XtOd4TXgBIFFBiWUHEwnQUHz65Eu9dG8cSGkK150VVUW6Qwcli0/jLOjxRHU8RyLxLd5dxy/cDoP0AaIVOLtEGmmjegfle74IDDvx8wpbooPQtZamdel2m1DB+qR+tRUDWQRfR4CxVMK2zyZVxGlVb+hodr4y79KY+y8sIxAnT8y6zNUfrZLRFP9bRBpfj4NErmLz16C6cj9F0i3Pe0guoOmy9Jpb9LH0yuKZWNBMRQLlRI/tcX4Opdz442h3STD/GwwNx8fx2rBxiUO5/Jq+ttfPBCeiaCj5o9sUQuSLuAij1e/dBrqDK2yKLBIkD1oYLs0vIY+jhWJL8LWt4MpNyiSxA2nYm5+LlCI3Xh932gbwAbEJ7c0zf3/+F85j4Jcpaky1WbVU1X9+W8AJAAt1SZQfYLE024wfP9Jn201UcI2/3aPuCCEZTdpO6IcPC7JTeeOSPWqixgpN3CC9iP7abmXajAs/MuxwZKebN/G4p7yJejk61ANv0g+iU/tO8C22YwrbXzrp96mljMsiTYJL2AiqvhwkiLyLLR/siP3wWfjIe5ojstKmDRO95brQvRX/lYuw/dilWD1+g/nlsb+yLyQRNqG21sDEpKe0YEkwGjr2bwdXsGXRPMKFjr31pTuf7YmenHVfW1+PUGZjYv0CB6oUPAgVapt5ZQV0K0KonPjeHRsnjCkgyKWevAoR68yleyzP6TM/LK5m/8MB9g3X43qVyd6n004MZ8qBB9dhUDUhdrnn9X//8QlzdLi+hL74ywdGNnGiAaJ2lXsPzAsnKU+WiFhXk/vnl+MnTS3GC0VnuTXad284hXCrOa1IcS3tpizqg2G5N8a3ah/Fl9sMc/IA5M6Q0ewKDfF7QLZcrGC16qzSdaeRxUFtfAorjLJuMhBnae6a0DbRTdxnzh8ZScwnLfJ4eRzpfQSMDku8Slh3knwS1DNzW+R35qBNpXodtLJ2P5aPn49CJ/XHuyTOxfW0fNQJYSkpDFvfAUNFZrt9ZeYlAlXP0bw5oSJKHDaYom5fpKebs4N1P49BPoRU3wRnLhP7TeLoK1GXunJ6rTBG4jedjTtZOugBL71BhG+V9Asnmyp/0pGwkk1+1EiymPEz1wVb56KzUwUf0o84+6v6Jz0zjoaem8AXNSoXZLTVlrrFJUKmxDs8LpEKx2b3cMItT3XH88N2HYx++kqjNUe+IyfrIKMzdeGiKGEsV7PObCNOXMSwy0ewUhNsxyZFIizqQHDUJxayq7oBBQQkwG9O1pnQWJq9MIW+W78MI/Kg2PlV7ZQl7vBqBjzVbxJnEgZ9gWictQAYPZ2pTwDnzRVWUafVPRmf/cnQP085yL3prb42HP/v6eOgL9wKyNWjMYZO0ZaiAU/UiaU8T0Si30KRPpVZHAB7LFz/hPh0vxpUrg1g8ciUOHd0G8JfBswByLQu/qnSMrlleIMIzTA6IzzT/bAukUSn9rqN/Cday77+tmyejmot+ezOgwfsTdQN8QYcgMtVlD+9WffDcWvza7zzDoF1mMHpnh1pR/quRCn3JeyP7LwAkESrKIxaZYb1xrRM/cHI1lvPqPtqGCtPa0ISCrSu1I3VjyRR3aX86AXR0pLMAQQg/Fxk1U0pHoXhNiWCXdi/UpuTI69I19dtCaaccS0NmwpmWKfIq57ve26MPssJmuQO4+uwvR2ff/uiu7s9tZ9++aK+tEleI+6OJYz/H8Z57s+D83njywbfEpz56d4yu3p8MVljpVCeAkoKKHrbEDJ7KEavvVsCuABq5Um5kMDWx69PluLqxzrR/K3rLV3DmAZA30/lERz2qzE2bWYcd8xYeAcW/LFBTmCxdGdhWe2XfPLmbmUpkkuNNddKmuW3qbLuOJM80oTSmzM7t7Itf+PjDMZ6vZr7Cc/Igk6y0/FQhpf88gYa9Fda5kZ+DunPfSnR8lBool7drWEFRre7nc+lJMHMmRw67GXEWu15f2urE7BIdZCLVVCUIUgizo94Q1vRGL+nNpq2LPO4n8Y4E1SrCSEERSPahS5mRhsBVaaIrt+GKey4voMGpZ8xoHzcXcjsCzbiZMQIQYwA61pchDjtMywH2YOveeOKL74p/+U9fFTtXABGmydErg103m6EZjblgCJm5LGGEDWW/1Of1OQdcXrIQiByWG+y9A7EX1x67Lx7/9IGInSN5icfbSRRaaoqJCWzlJ/2lSqpy1BZe5zgTWPJO9niKsMtzGlO4aa501lNeROtLVaZ7UHZ3ZUgwTZfg1LHFwFPI/WZLjWojFiBf5i3563Dj0c0BxtFcOmfdyShO64cwc0t+CJqUZ9FY2V8a2AUTRO/mMbKfS/JbMPkySRuYiYkzIsubn0yYTAonwymdMddZ1Mck2g8Jzv4kU0in3nwBFtDw2a6coamdbNvOu9W/SBpgSgpF0+xtvKpkZ0cMlakvGsW32rw/nvjst8Tv/MprY/PSt1DfcWYvOMA9HE/y6lcxvJIvc/wJAUVlGR3NUjJB6gkom7R59lw+8F7tLE97Ljg2B3fEE585EjuXj0KaA3ETcLh2Zd8sIE/sH0CEbpvJp04471hpADY/0Jx8lz/ydzdKAG35JLIMhc+mUUWWl4elCXiERtJ01k16teEAM+slV0zks/yXlxkJAsnkPeH5gUStIlKvHssep/uLwSQG8UJOApTOc+xtH8YcGRRLIiWe4ySOffROjujWFD9gvRWjs6SsN6MNmBwRapEp/oFrG2qenELDQKf1tqcTaodoJUdNEi5DFRcNK1rHYBvz4DWy8sg24MK+O7PsdHHEyeG9UunkywwY7RO7sylObhyOyebb4qFPvR0Q3YuDfTcNnESbkY/Z4QA65i0nGQjG1ivgFM1EfZqGClC5hkjpBJEy5E/tNWt2Uzu6YJiAmi7GtbOvjitPHwMQmFgcb2du5TbimnmUlcmEvCmBvqqYEijJ86oRBosXaZPXFlW7A6j0gao0JyDKoAzcqk7LVlv5bF5nf6vdeSz1vWoB3SnDkv+GIG+MhPL7HIH6aBBhTsexyug73u/niqtMURsInqI2q87QmAQlMbRbGvdc2Te2hq3oDhajdaUb209PYnQBEAzLfT9OIsqUFLM0U/ORn+I5QiF1t86cMQogn+CA+aap5nNCARCZfTV9igJQqnkmQzTCNtpmcoTu+Ljymdjavis2t4x3xubmm+Pxx98Tv/aL3xK/+dF3xPqFtzGbOgUgMI2WTw1TaRm3mK00ccQCEMCT58u+jMvbTqBZbWq+qSZXzWdZHAXnuy52jrdOx5NfWonm+EQCfCb4lZyTmInSZ58NjM1+U5w+UJdpRtefdtUfcSwf4JXCl0XKQ22TPCTkICpbB2UmGZFZuiOeh37mHrFv2Zv/qJSyZcE1s3/F8LxP2nohb95ktE4G8dbZIP77970lHhg+AnNdGdbuK1REmb6JaOfYrThj6+iRsKxODcFuziqYAcza0xg0d2K+MPYla9E+hDligtX2ZQCUo0/UQT62xcEt9Vuv8Jc6g+dy/YRzE4TQxJH0bSXzufceL/vyu9jaPBSb147H+vqRuHr1YGxvHY4Bfsl4SB405AQBDenPcP1uxL4/B6v3MncYPPptBp1lm659iewqVOzdGnOwqDKc2bJRj3oTmYuOhfAiWOvye7eTySTW7v6V+H1/7LPRO/pLpGFGBQR0Zx4qnaFh5a/pcwbi1OuCXj5JMEqfFAhq6ZSQwndnmaaB0OxjCy3TXkWHt0ZYGbTrkHLEZCl8zOucaFZ5voMw/tR/8Kn4p59kgKM5W13n3Q54iZK+G8PzryOlo+UN9OM4g+n5yOkTcQgHZyq47KgQlVCRLMU6l/bDTliFHWXfv1SxKXDNgWCT4ajOMaZlA2ZvkmfgDII6UNEaqXz0iF7lEoL1wDSglEDVOZdpacJsT4Yqtf6+2Bm/Js6f/5Z44tEPxEc//o74zV9/ffzOb98XjzzyhnjmWc5dPh1XNo/F1vBgDKb7YjQ5ALAO0hZzUzRZswu4O16wrAWxRasKzPalh90MtkuK/ZfBmQRfINDrkvpiZp05M2JrWcOudiAFHCHYC3Ho5NVY3P9ktNrXAAw8T3+qKtFAgLloaX/RcPmu7yIBCNjdmjtvoYUem5D/Doqy2Eu6VQKmKZ5cyo46Jt4BYB4K2NecQHCsFv3/PnExPvc42l+t5+DGNJfMSfwN4XmBZOWi05vJ9Ri+7/jhWPObIXRGlkpLdtUOJ/OEDJ3wnJ3Js56no6ZJBAR5pPBNEjI6vDlL2cGb2JzFeAOiaaZ5le0mpsCR3Vdo6mo7WkaNtftYjc+8t9oLsTF4VXz+C28COK+Lf/kvT8bnv3gC0JyJ8eg0xc6gCfGDYoXtMu33cqS7cusjVDO8QAlrwmgoKVfnBW4ykARQmm0SGe9sjdmR3DdIT9lnK+/c2jfLpKB0xlUrZsHMseu9Tz7Sve/AlTj2qkcgwE+bOkuSp7StVDkqTUGIREDobACwfYmF9kvAS7xWQt9I3hPT6Sbd1+sIIp9SVq3lSymk09f0jPXJcPAduNJjGZp0EH3sdwbxrx/yfVQMqmyWH7Wt1HhcR0Ky6DmDDiRBIvMdRqhkbBINCTLteSE4O1fFBJPmgP363mt5kQzJTlsHyeyW8yRT1PcQdSfEQS+6m/hi65jPSzDoPIzYogCmIVeo04FkVOFQqY63d7y8clc8+dT98fGPvT7+0T+4Jz796bfHtc1vjY3hXZzDVFWM0OmVka7KZ0Sb6Bj7orcx/srICIPH+jgIeIKZdfFy4u0XtKWyNK/flHE7Ja9RAOXzezm8ir+kedUU1H6Tz87pTiYdWZZ0+k+xmI6W49qlhZh5Sy4nC3hqEMFB+u1MKh1jpF20n+aNinAV8m0nDMQcjG5drgIk+ZSwaZTNV9jgTuSrq6E575yQcuTp6mxaAgj0fZktyrY47jLt12/r4Kiq3Wz7eiB/jSIClDx3KFqDytFAaY/lAsEO2scaCIa60+Xc3iiB9TlBVdLrNIOjoAQZw0aQ2cG5t3MoHF+5UvLbplP4jjMu8s9ax+PhL98TP//z98bHfvFtsTN4LwrzDqbsMEp/ic7r+BY+sZ/kAA5qFVgel3PUb5Puw/QibKILp7Qt6LIsUUpy63G1b6jPGxx89fl6a6h7XedNszfrxwbadzLSnKI6PEGh9MfYZ8hyDAjwn67zUoebdM9nflrkVIG1fCqNePM/qMjLInCriL8mgjaS8/qtCVRkQ5W1nJ3pJAa+YrCSuiLrfp5gfSJSb8WZAROpJC79FgVNo/k6PDtiOgDwnMTkVmZkXs+VPLv5qnJ5jnzpAhATKB6b37ffjmxHggFyLJLm1WrydDZjuHM0Pvuv7oqf/z9W0UhvQVm+IQbjfgyHO3QM9Y1vN4GYEQ26NOmrc8Y0MsZEjgGjnoNpE8A2BjBDUnB/M49bgTches57ptROgkoHuAaXPMpYWFPtw6vcCibFV2Z0qYXgZ12GWjGr5G4sxYBZZeDUzgWWA42BIFDcr7f1vgIvPk4lD3nJvg885vVFAZazN9qxnAPKx7Bcg6oAkzy1/Fgwkof2lEsSbqxCDro0Z0BFYBsNdlgAZHwBIEFFbnTwdO6GAxstZmuvScuOVyHTqVYwOKTLOY9hqnm155zLCAOKc001Vk1MMJHmynkOQFU153N0ZpTxndiYrMXvfvoN8c/+yevi4oV3xbjTiWHjKXypjWi30TeU8ekNmeDoTcDQe30UbyqTvEmCIhccSDOdyNGY34lAA0DGGlBT8qY1ISbZxmp/bDpbe1vMXjnnsW0Z6/M1t/T5fNWx6mI0AGgMHDPli8SgNLcutmq6KERxzrNDdD8Fj2bWlXC/VckiNZTR89Ccd3raV/mbvOd0BaTkbZYrZVNe1VZtZDVFhjcF6t0b6OrzBCvLRmE1YBqmdvB2CimQ2NrcMT5yRmZUXZZ9wdR0TQNeSVH5VIIgub7AKEC8KOkDj/6ms5hMMD/McTT4wD5MbTZHMZxsIOh+PPnsu+IXPraCg30PvFxLgfh2Ed9JuT0aMyABRxsNgCAEinARJgkmz9nzylzlJZhcYoCZ2R1+BIOCrsEk4CowFQ3lsaQJOvmTJJe6bS81j0sjJd3ztTiUbzrf1GO73nMkS8dD+giVoMcMbPFX5AGwSS1CnrKS7T55svICIhqmDs556UneIq+RzpK32/j6H2hUi8lvV7F1HaYM0npFW57nYIdQH85EmTOjtGLa9+3CXwlMewKUPE/ITlSjFwGPRkz/pq4h2aCoNY+dZAtB9UjIRut9aaHDu6NkN1J0T0cyn/UgHZf1ZZoP6bmwNt2hHvJOpgO0TTfW1w/FRz96NC5euhNQ0UnvIxKQeUmf+qhGh1jnuYCFEe2IzFgAJfC8/4Y9/kjn13PFJ6pAB3i9J0rtpEbzXAEQscqb9euDVWYuwUR9asJptpcsysFozLbgT+7Lg0pA6cwSih9ETKAQK63sY/KpnTFFc18blIuVFKCLvqgiecjWosaJ+e13h/yOyAy1VYAgRV+r1qRDuSlLQESadQ2YyEyVBzQ+t69UwgsCSZTI6iENbLkY5iUNF6/kDsITahJTHOaaQIkT/UXjuJ8zCLZ5v00KvXSgaB+qyljy5syvAmsTRMx3mJ4CEkdQo3kgHnzwSDz0Bd8BdJQq0ETY/7KaCxiYSqsTNF+aKKu3G0luNslZhOwDg47YApZJCl4AKORdMFC+bDkHaIp2crZXAUnA4ZAKvCzjMX/WX9qpQJPtXm/ffpkmFkzTnMrn2cQnPhw5ZrQ/xY2wb/KhgalOK5AVwsvURuajHqIgaM26ORDzkaMu/Otat+gyf5GD+7vySK0GcYLUetwCIkZnbG37Lm80mNrQwIYzXzEo/ecMmidazc4P6PXmTsQQZ8CZlOm7mqcKIj19o6y2rpqOCpyMEkiS4CK9KbMyzUhaphtUz7SRXCbfECcbs+oi5Wi8Fg89dCKarcPQsczo8aa7onqnMaD6ISQ54ikOs4rvowOtow0gUuiaN7bkdpAoZMdBCp9tbfr2xnSuiZJUtJFp1qfGoj3qqc3mdYe8dCHNGNsbAwDR96Skl0W8v8tLPgIgL8wieypjW4RtzPc31TxLMKBxJETBU1yNFX6PRAcazdnqsW1TnxfavWrM+RpMpX6izVYWIJcQqE+3LZg97uxQTllDf1mZ3+Or3RSo4bmDhQwySDdlOCQCJoWWowppecmj3t+NELr3eG+efJQm060HknbBU0LWnUzSvyGTDII5k53yXP983mOK/yo0xIAIaDqo4AYzuOYOEOrGyO9xQG/Tm8sQkOarpiO1D1t5Xws5/SIv6Nk2G8vWGiUj9Kit0lmn/AQhZz1ov3Eeq9XQfeSRdrVQ1lX111jPpIzZv+pc2Rad12nPot/TNCH4avZ1PVKvWwCTrgDn86EA+YzwfSWOMzaPExDU2+4w7HpK3by05Xk1C+2WW4CKRirarQaYYIJ26hkNx7G9Vd9kR/pXY9o0YapuPyg3ZPRdXWT0X+vGbLQIfaCTPFOQu2uujIwYRw3udGq01Go+bRJOHZSg6YywCteFwVYkE2AY6TmzAsUtNY1rGTBmeGkY7alP0m3F/n0X2bZyduSLt7IuRzL5rEbRDPl1YXF34TEv8Mol8o0Boc+uMVIzzvx+yQ5niZhGPaJxjBg8mjzK0HeZbf1F7MTURAg3tRP5APVUYKtVOM5o2/yprdR+6TfR2dR4SG0+24LJCnsUrca16Dauok0Ay4R+p7ah3TE+C75pY0xUQ41IH+FR+XTwpBdNv10HiZ1xPzqDBcANsHvb0VyWDqL3gMNzH9mmE/w7aSmymW1bd6WhlIvmE9l0kemgcSDWN+jDiPwtb7iDTvLoH7JXZLknPC+QZKCFrGQLJpwdw6wxI37oozou4wOSRDSZVLkVwtNxY1vusaG8MYd7OUdf2FZpwsBOpD+ls2zDNM35vGDqOVWI6yzwvdXYjv0Hn0EQA5zpSQJ86oJpk/O+iBNBCqNyf9IO1RUBlj+EZ8NV/favnC+ASVCzVchqFoXvecukA15FiMo6DJ43mt86cqGQknXIshlNL3V6nJpLXtD/efNqHDyiVvHyiGQBEH3RCTzW7zGrfhOg8oXy8tomfNuJW02TYLBe32rriytcxZ5M8HEcOwCwPp95HBRosgSmgACwztKUy4Q6tSiXNmexNSDBC8aAq2gkI3XXu3vC8wJJ30J1Z+d3kNP50Ta+ElPsbW++wm+hOE1AXIm2UYND0KiljHmc6QKlEJ8zB9LKUoDnS8z7cWgzGWoa+dpeD9pEG16e5vdJjp94NnqLw1y59jLOWIeQ6EtF8eYoUzmtgsK/XRNXhJyAMF3tUAGo9qVKGucrQPhnnmLuqJNfQaUfVPtCGTPdLllPARUls86ETwqx3pLXPAzGiX5N4wJ9gna0pJqolVqG/rpGZJOYO32LFLYLVgysqbM3uyjAmIjYh0l7J1oLaPIeZahdvjs4ZwCvuAspICopmiideFW4srAu/NJUAORZ35zGjtoPIBWwk8fRx+YrBah67kCx0giVDbC3T0+Gsc1IGV5F9fq8lyODZopGcV+CBYMFy3GuFVFHAZVUVGl1GeunA57L2Zp5K4cQfme/XfNobgHgi9j+wXYcOvJM7F/diOnIZ+Rdw0ZUVFWuX6kVHHEF3Jo0AZCahnyKvGickpZaKEVtGsJFciW/AldzkMdjhnYBmyArGqwGieftWrVX8hMFZQKmAmrSxZndNh3lCLe/cCHWDlyin/Q1tQxR51jHNKf6yA+zI1+oln7DF4CgGcxPabgmhIlvYM58dbQDyo8p4m8XNyNl4myPcvLb2eAOsspVVOUCWEgrLgrnQMvZyxh6F0iVqf6ZwoDqEtxSj/JLuRepPnfgrACQSVv08iwjZoPp5XiDkTSkcUeTTLFz6fFTbxVpma2jhkYhPtMdJI4AYq5XVM5jOoxGRlleZAQVDTo5cxRSv220hvhmVwDgtXGs9C/Eq89cjm5rM19g4XNjfolaRzxnUgoNO19mcymy/Evh8qdznMBQnGoXiCtONE7zVMd5kksDCbYsVUqmedoDotRk9j9jrdlKGwKq3rN0aiphJJiUAVvrbrUx1fvPA6az6CfoR/umBkotBNNG8AJe54eACPKzKYAGrWiPMH1oFWmfddHQi/TLN9JSb/IcfuojJb+T92gcGtePVRH49jgXL2fesoI8HHzT0SgG41E8eW4TIJHPRgu2btJGeWY3PD+QEm2URriO+Ke31+MqhyO00hhHTTOUDjkMzNFG3BvSFsuwZHTiIcGUDAfl6WdWMfMzQtVS/rkym7dNZMAI+Pz9Zjt2zs1iGQa+6fVPxr7FszH2UZlOG18J5zlNHI1QcTq9mjRnNCDd6WtqJWc7Fa0JDNInbG+knzoSkEXjFK0kEPz1r+RNkNiXzLW3r8ZSZ62JDG735knapo/F0SMX8P3O+uprpsXYJcCTs1YFqbA51pT5DWD9mtjpRhs/VfM0muzEfHEQnTXa84neiia6VIIyoJ1sV60jmIaYrwG8BUBk5ZzaG7Ch6vygkErhMw+djc0dBnalNV8o1JJ6jqBg2MAHJoix1QVMeLzjJl79pp3s0aiA5c8GAYHZa7NVTJVy1bRV+fjLSyXZtGqVeszHyEhnm7RUv0b3Pcee+94YP7pI2oVu3HH4iTh95HxqJX2ARhtacqZkGQUnYLzt1hGJENA0rhrndNuZmxN6R3JqlgKw9IvqWJ1TQxXBs19psnKrq1vSU3CljoTUHqCUehCMZWnbWNcliL1lY7HzZJw8uoVJu5zLHA0vSuPzlFtE6LlCJOYaj6YOTTIb9NEcaFvUTHORWdnyTjR6aiKBSt40ZfBW4ckLo1N8B6n8VKM5O6T9pBetlYMeupxAbeHUf+HRS0wFfV+35akzZ33PHZ7nLKcUcq0uCNtowCda12LQ6cS2r9Vm9DjDSK++BgkxQwWEXT9I5GvGBLejRTlnRwqYynpG8WvqaJ5c3c06vPuZmczWYoyfasXStYvx7vtnsbrweHQARkuzwEzNT1dMKSsIZI5rJnmdqtrmPecKXRM28/EfyxTBFg1VCxsAmEcgYWaug6g+XwBheslnfteW6mOm4fgpdXoC1TK0ZXC+1pmdj7vOXIzDK1cwUyMmWgwkAYQm8oazNGfQDMlpwloIuAGAfKyQFqK5NIj2KkDyOy34dkW7O3iLDyrPa6uQa3fQkOYNjeRTUclzQJprTPbd041OPHsl4vFnN3BlAS3l1EoqkgzWW+0r4TpUZ79CkCgbwjcqBZoxaM/isemV8HXe3jvjDfUzOg8NEF0IFwy7wmd7XTsVAvIWWoTtupIAUuXlknyWLeW116UeF8oEWjsdVgdWd7YY8/Pd6Dwd8cZT6/GaU08AoSvRkvkASd9LQPjn9cHyudJy8bMACtCkZijaIgElWBIY1yM/VX7AL9BqzZbnq/IJviIoQ71vNF/uQ0cB6I31u4K9vPRE3P3qiwyEZ5mZ6hTTb7TOHG2RjrC37Xjs+s4EvmnyhlgJAbGANlpDCy0y20NGkge6EnA5eDguA5J0eJB+kv0e0vYOPBaU8L048sUpV7OP0YgPPrEVW65lCQ/66pO3WVHpZrWtBKbJIcj9FxFgCr8j6ntssh4bEOQDSoONZgx3EBxCF82pRQQUZwXLbgAwefuI+ZLBBTimJZggw/1yHYkjzydpMqUapQRfsID1YubWienj/Whd+Wy8/23jOLT8DLDEvgskUZ2dsx0X8djVLOTKroDgXAUQFzoFRKYLjl1AqaHIs+vAGWmfv+tAKJopTRb5J7m4WWkm8utcS0OJ1lAAlROQbOtqHDv2cKytPgzYUQEIbjKg3hFtj8it6cEXnIzxY1w7cgkE4Xvxlol5tFYA0NIW43AnJykCo/hV0AifEmz2vR7UGegv2mjk+2PTD2Obs0TSGdDGAfU8dHbEZIPJimIgJC8Skc8dnvuebYMV7XrCNAY91zqT+LbJWhzB4W41lvPSzsoy03CE5u0Gqs9EsuBJQUAoFBUolihhulRF1XHsro52FW2rprvMuor58yVX5Q4PnU8c/tGVOHSItJVZPHJxIbZmJymLmbPZRg/8jKObbTO7wdY3EaLOpPXUjrmzqBagcqoMxcTKrDoYxAB1qT/zjRykQ3nSprbyIrEv+mxmFHxjtml0yDWJto9ECVTvmMCMOhOzrsn4ahze/3h86I3/JBZnF1LjlsFGnQ4utHx+TNo+C4QhA0fQQuR8YYhPNMJ9kS+0ax5iDttkXfaAKHjU/k7hqcu6AWtzqx8znN1GE2ddl2S+nf6leTWhG7EYf/uj5+LxLeSIL1z3FwbwUwmlNJSbEkprLxDIYq6q0BYV/OvJpdjpgX5vM7gGuHcWARWjaLRDDlWkmUuh+kY2Q0E2xENUrZWyk6ZJI52t81wPnoPJ5C95St0tmBAXlmP08Pn41jPDeOedD2IenqRoL3VTcz6MBYS709qiGZxZRm2LUd5whKOhGrMdhISPwYhUxduuMX0rhyoAmKNhjOmoM9JT83h7RmoelxvIj4DrsoLL4/ZkI5reEwUghoy+UfhyT/jTQIhorsX5Q/HAHQ/GIhOFvN+K5ubQoXluYLr0kcBkmStAd67S+1Ks9jS/0GR0Rlp8HLjslpg+Z2rcep868lhNbBukD5FH1g/c6YtLJN4rnssNAOfLz27G4+e3qbZYkF1ZyHv3d4+r/er4+TXSbrBCRi17kBcLdPBdy8djDVubn8rq4vH0ERgjMN+Sj4pk0FNKB9BO2ws65AioHPPdAIHUXkAihtj4HiSdxrIo6MmSx/LmoPZU4Z1YiunONoy4GGfuWIktTMDj59AC3QPJnE4TPwlC2ppM6vRa2MQXWanZEHDbpzUY+dl0NlC3IyHFDEm3ZRP07vsHYOxBoRt6Mpahk5WRuVzuUcuoqTSDCJH9bjwaD9z5aLzp5G/FQvMyedRq1KM/iaDzEgj7Ct1LFWrVRg+Tzoy53aPFlhqf+tlVFqnFa+GSJt/kkAf5RAv9yG/DyE8mR9OtsrzgC1gE8ZSKzW1/thsL8Y8/fT7+2UObQFcFQGL+EFIjPXd4XiDtFrUuiXGkszsBPPfHWpxgxqZJ8Ab2Vmczun1OiuIECx22gkSto8r6qCHPGS0nByuwZAppMsn9qvPFlHnaegoNVuy7k3wra7fRjdHVq9FvbMXxEwuxg3O6NVyMHZxG353URpguN3gZI00Dpk8ht6ob9EBUtikNAr6IAZqkLY8lxd80sG7STNjvAjDyI/DsIGU0dfUlEJrMNH0PR/9y++m46+CDaKOH41DzX6UmyfuycqbmvgCiiD6dBNn3Nuk96EDS5WEG+iH4snLpcZCwLVQXOjSLQiOrwPyRFD4Iikmb7gjUwlfBM3W2izk24cJ0Of7HX3kkfnedmgpSr4evBkglpFhzC335rdghnbhzuhCv6e2PfaB4MMT2d4axvIxzmO+WpIT/uclu5Na9AqTyV9KNdf4CsMxJ4d2/PFcfmYeRirbo9HwKNKLfXI3YdPr8ZLz2NUfj3KX1uDLoxo7p+Cre4+0CZ5rQFJ7gclyjKZg2J78QeKG0AElkSatpxXdLsYk7RrJ1FBDl7RzsJogEFOn5qA/HCSIdS0zcvng2Xr306XjPPU/E/ubvxmIbk8nsJTVRTihoALqmmByBInZbmLB2H63WLcDkN2nJq/f0RbAkNxNI0llAlVQzWJJmeWe/x/2Ybi7mU7o5uD0HuTMGYh/2bELu56924r/7pS/FtTYawT6ZqQ5W9jzhhYEkjTUy8WIdqZjZWBxM4429w3FwA7Xb6aaWYhN9O+5r9lzAkhgFotNnJ1NAMpp0O2jdssL9/LMshcxGOTVBMoFt3qzuCYXnOaakrhrn6jcIb/tJ0QEA23o4zpzpIohmXLyyGFutfTmK1ZAdynURmk1M2s558RM0w4DLLyRpohRM3X5qlsq8FZ+DeuxT5WQnHZ5OmgFPld5zi2b0bWde7OzPno77ln433nvmS3Gi89lYaFyL8XC1mNw0u/ZRZhBpvtltRasPN/SB84Y30nKQyQ8ORZnJNJtRejmXGh6aCpv58TjztWK8zbx2s51rVfmIF1FNDYQpMoqN1kr8H7/9ZHzsyXGMUkPppEuPwiG+QHheIOWipvqPbalqjl8BbbbOyLk3VuO++TIMg1pmbRPU99KKMyQXNOgEIQGVILI0+ayMIFPKrwIrZ0u6P6YDqiot87GrmDNJYFmt2sUE7QHt+Rx/h7TZ5oV49aFerDV34iJDzfWkAf7QEFM3aeWcmPz4BjNmmraUdSsKdjRVCsOt0eZSOERDCqhsBVAu8mU5NRIOM/lGvvYYkxGj9TjQ+EK8+dAn4u0nvxhHu09GY3QVITOwNGfQVQBLFTYEIa0O+qRDT2G05kwbWvOhyJOfxAvtJcXk40Sh0UHK1ozyFJ6os1wNn/h9kaGzQSux4gLMFnQPSHsUd+Dv/uJn4qmJj0T5UZ6S58WGF/SRShfKvkSWF4LSF0BzBEHc1z8Y/SEjMBHHuMehXFgCTJoUCMyRJrPscNaRYx5C7Uap33zlVTMpStLtQDkvQ3Jbnbe8NTh11U/RX/F4yqwmBTLuMuI70dw8F0eXrjHN3saLHMUIUzdtwCQ0Wb4zkb/yER1poF8wNMsTUxhubZed7Jl5M532GDg+Yy/QHBx5rzVpXbSPvlCrMYje8Il4VfeReOexJ+P+A5+JI+2nmDl6P1fxX5qUyQu+8pOONPF+y20xRCYJso2zCZDStqRAEQMleVPzKnlCGhnsTaG58DiH7xwHexsgbfdp03c22AX7USYDGNMY9Nbi//3ixfh/Pns2rjTwe21Zd6Cq7cWE5wYSaHYdKJlnL9wn2YW2ZEUbMtFKp7rLcccQAjXGaKWxS/0wxK8jkpAE6+AWx1XTRb78hxFZoQwwWJ4cjiYZke2VP8+bmjtJD0cwdHe8UC6XATnX9fFstETf90Nub8Sh9macXGrFIsKdDLdjiCaYtFxDsTo1Ke1nA9fbSXHYTNVeaiaPSbQNR7EmLPvkuKI915HapAmyI+MvxZtWH463Hng0Xg2YDjQuYKEEW9oqIvmoT7PXwpluCSLlpvbBrKQOygErHaXNJC4Hq7Ng08tgEzL+Fv1kHqks5aiZ2Ws7Btcw9S7R8GdV5Rw8S15P41LrQPwvH38wPr3RKC8E8z7tPJc1vqjwPEBKzhVmSnMtNcxDFyn49tiN8SBWWr14y3yNNJciIBBTpr/kq7DnLkNTru5mgshqKyZYdWEIIWmmfPoCRNoo56vOSIv+EKGQJFPZ85907b0WP59t59Rk3IyFDtpyMozF8fk4ubIVx5YnzO7GMRmMKOQ7G11HcfwRMXlVS6XrxJwdyXRitszWqXw61ET35+OtWJxvx+rsahyanmVgXYn3H3si7lv4YpzpPRGrzQ2carGGb6KvmOB1crKQL4ltoRgSRN4HZd27AY4hTIEqIOSZ4pdf9cSjBpNCl7det1SkqbPl27SDNsKkX/O6XZ8zRRsL0TR5xCEm/pMXJvG/ffLRuOBn7nuCzXNyuebIC4fnfj/Sc4S9VbsoePdWJ/5W943xriHTbaZQXvLqYmbWlrajcxyz0kfNCzDNgMMwh3AVkg+aKUaouKCTxQM3GkpeB0d5L1IhNa9IV0ENKWNLx1VU9XE556hXfVuXL3oYNJfimclyPLR9JB6d3hFPTg7HpUkvRgwQF+D0X2RzLTAJE9pCKZ9Q8a4y6vW7HX72dCV2cKCvxb1Ll+M1nafiSPMc2m873wKcNPiTdNB/TRdmSwDZFz/vZRPFHSn8KW2SD3oyQH8ab9PJp2uV7LFfDNpSxlaATwsTRm6ztqnUe7LHW5i2QZ8eACbNJtrP+nod/LjhIJ7q7Iu/8atfip//0nlcqVXczQGFqVfVlYB6ceElAynfKqZaJ0j/gUEjvrdxPP5q9zURV7ZiaWkJbbBNJ69F59gkju3Tb9qECY54NVNykUiXZSr1FSaZJsOvA60wKLMkw4pyqtqW2YS9QHJb7qmuAnny48ecK5dNsoK8sXC70U9QXUFzPTNajScmJ2MTZ/TKqB9XJ5zj/NiHFlLKzEwps4DGWG2M4mD7WhztXIkjnfU43NuKZY6XGjuxwADqe7+4zvQuEAudII+o7wOd6QdhWOmyeUxL14DtLvidpJhGPfWzcyaZV/aZlpobvllHtsW+j1nlZ8Dow/gqgPDenykTC1UfXfFhzgWsidctB61OfHQj4i/+o1+Ph8jf6i3FDPMfXUzh1xpIkFsacR/i9Qvu2GnGf9K9Px4YL+Nkzrx+CMGjaMDkk6tMuw/4MOJVgI6Qq3fxeE1s3gBc0spP3hOMwBMYMpsmaiDl/dF53n1/zaOWKTRkLsvJTOuQ2RnMJ7D2jGryuRzgR/BydPuEhN/hxW8aeUmDGdcIB9X7wK3F1zIXp7z4P218oR7+SzdGGX1Drd+wc7Rbf+HJTmIgA/XYxwS4/bIv+EJu82OD9hF+5TsocyBR0FjVVR8r0+QXeXeBxoH+TGlX3jE4ffE7M9TxJtppAwd75LszzUN7aBpvJe53O/klpnOL++NvfPR34h88ejl2eqs0Q72TEVYF+bwEEBleMpDqUJxiwywWRtP4weGx+MmFe2L/VToL4n32vjPCvC1sxuph9hcHzEr8ZIMjPPmLZkMQydzCLLcYx+p8lV6H6lgmmuyVdEGRBwb3CQKxDp7KR5BU8wIjsyIsyurkAg2PMqNAyBefVpokmVLVVdORi5ekuTKedyiQv+3rowGSwJS2dltfSA12I1tzBpYAr+hzv9ImahiBlKvJdZ+qczbjBMtQQFT1UT4AkMIP8ko/QPJpmvGwG4N1Zs6j5ejM9I2qwdUpj2c1us3Y6S7FP3zsfPxH//Lz8bSvf/b5/vEoL7zTK/p0I/0vFF4a7PYEGyoRDQRhH0XNf6a1GdtM/RWO92O3xv3Ywslbv0p+1yfYT20mk1OqcCidaoSj6NjPK9kw0G1GRxPpmY8yuXaEY52XN4x5DCON5M2pdRVpKJ1pncfkPdhzAbLj1JZtvpjKNmkvFzwzkglgtHGI/WiwrrgaScWWSw2cFyjeDaC18OY4wdqDB31AlQAnh7SpBRWKUS3hY+e7cdzJ9jNCi2uA3k/kpRKP0+92a3XpY5oHPkzoF+VVp/UCafqfOa7o1w7a9Ro+0bbrWLRtucwDyOGbeb2Q/CxG+B8/+FRc8i4AvP3ao3BuXVuclxJeeGX7BUIOLLbne5PobEziroX9cWDayts3coLSQ42OnOnAVjL6MRl7L625rpojSyAp9grXCTKPS2qmwwiD0ErgcWi6Z3fXVPhTgEWDlPyp+kquLJupAFndp8Oc73l0FiVgPAc9NuWnJaiqaATOlWLWANOzcTUdGqBqWcoETt5rnnLgOCuo1IjnkgqEKceoQ4FZZw26ko88qJ4cKOSxqayO4+SD2oetGjHTJc1Iug9WTgGRscEEwhekZX+YYeZnVcXgdBKbncX4h196Ov7hExfikgunIC1fM+jIIFMOXLv0EsJXDSSZbKf8zseVEY4oo+V1vbVYGeaNr9GjA050xt5wxWj2A3MtZy8yhZEh0xVqoVvmuCf3ZDqB84KOMccxKQIjy3iO/DDRc5k/y1hHyWPBTCHd/Vw8pEHXTypdQzLM82lhX75AzPt3Uvi0Qbl8FR6aITVS1qcgLY9GIe/c7+J6AZg8Lkp6P1KCI2mw3dKHEj2u6DHkpKUcZ72CBZ7YX9MTTGRJk2tWAVjVWYMw/R/odVV/yFR/crkTrcESwKBf+GLy3E/PW+eY9oakf3ZjFn/3k5+Jz8+8Pdn+ACJJEmnZLryqSHyx4asGUg5OiNQqDPE75uNx7McNPYHz6tWIvLGMk5pBn+KUQv0Ir235plQ5dX0mZ0cIVkpqMp+fagOGqD87SBrHxpLVHxjLNrVR5uHH89abKkIQuKUVZzWeQQDlpQy5NJnV+NpnV63xJkhJ6eUJfZFc47YN8vueotQjON9JD6rZGZHRvqipbba0WLZJFqGcq4QFDd5opxo0Tx0zrx2sqPZlZ7snBCDRAYxBRc0AoG3vgmAg7OijdbOPCTYGnp8j9TtszkLPLh+I/+FTn43fuLITm0w09OWKu1H6lm38G4SvGkg27EultFhjfjYYkS1M2d3ttTiKiRvQf1HmO6vzYUZ8gMnU1w87UhQW9MNMhZR8Te7boWRl6Rj7wsk/AZAjmvZyJiIPSE/AmE6a41tBFZhiurIiQSZQJYht1l/ypVqjXDrQaoHUBILB0W4agtTXcieFaz2mkyIN7AsqSU/hZsPmy2pL8DjbIua+4Cj1+Cc9aVIyD8lsOcpm1DxF2PQUkCeQzY9vozZ0xj68Bn2DhfSDsmTmZSCnyQPsDF6vqf38o0/F33/k6bjQWYZuYIjG0utjJmRr1MukwYYF1UsIXz2QqvZ0kGeQ5H3do6kLda041VqMBZkg41xuhnH5VlqcR7+jml9/JD3phkG+EEKmFt9CbtZBESa7s395w1tqjKr5NHfuUcZi7GeJPOSPbQFF6qEqr1tVujWTQSxlGv+2n6Ecm7+0rvYqxznDcjfT2FdD0c9UsuYxWFdu3akOyKtGynR9NMtWp6vEbCnvlqBfnrevmmCBpi41r7mamKYZzvUAEHnDWpvJjJVrijW7Li/kLBPtNegtxm9tjuK///QX4mHS/bCPzLSn5WsFhY7kWXYtf150+OqBZIOCSKIUKMcDtMA6U/8D7cW4o7EcXdRqIcyZgyO9GWM6O4TpyDe6zHhaOL0u3vvhvxxt5kYlZ6zqztTSS9Jy3BEFYmGwwjSaXjurqSESQKampJJZyTAPPGfdMrIOiZY6lFZyxuihZf3LOqjb9qzDIqVCf8pmN5qnxKTT+iigLqsxlrRTj5TmBW1o8s9zLlJEzj6LBstcgGi82Y7hOr7d1hI+mp8yEnQ+tqWrUO7z9jtrOwzSx+bd+DufezA+NZjEVgvAVf313vW9oQyQcu6lhFujkQpvchdexZhRscWMxte3nOytxskZKnc4zlXmZCDES7DfpHf9xemc31lt571COf7SdidYYGQZlXUo+7CaX9nO1jzVNhnksW2YPZMqAiUOyZheRrV5SMt6zFOiKaX+m6PqxrJqud3as71SLzvZxu+Npf7r+0WTOcMrflqaVfN4PvcFWVaMBtY/cpA5S+Q85my82Y+dy70YbWHemCyowfTsNMFj/DQXW136HY/msYFf9D89/KX4JxfOxeW0DMWM3cpwy0ybob5K7jurR4utODveYgaBv9TbH/kMX5XX63H6ROl34DPt4IQPYETHe3VRxfkpzgoQ1U/Wm4BKJhOryoo8Ta+2RE8VLVOByTJ1JGhp6zLpk2UZR3sl7NwSM7s/WaBqO/fIX++Xdq7nN29d1/W4m6faT2AJgN06Ke5+miX3TdEsUSPRhe98NGvcATy92GR2FoN9aHgGqXx0eQVd5Ct+fDVhx07yfwnt84/OnYv/9Ykn49kW5i59oett3qpwC0xbRRY/6W/IBBlNt3Ya09ja2U7zdLi/HIdHOHc44Po0fju2zJpgCGAaezV9RCk9VeuhjGBKpidji3CsNxle/ok2bJ0VmPgxLQVlyLIc1zHTqvNUXAyIQiUWZOVW3ZO587gqI135Jx3+SVM5Ltv6rz5//a/UU+LusY24NeyelwZrI0KT1zVzJolWn3kv+pVebF0BOL6jCs3Upt95S3AWYzKDNurqWwPIyzjjHxtsxH/74OfiiY4X1akT7W93bnW4pUBKYSp1GOTNXs4UtunhufF29ADO8eZCLCH0NqNnQrrucvEH8LE88DrdaEQiedr9BJGM1dZbf65Ww9QcbF6uSI4oFgVJ8JhYBCWoJcrM1Tl+1CoCp5wj7moH81nOdDbWk0I1ljo94zNo0muZbF8QU6aUMl8rlzt2i1Yx26rqv56WqbQtIEnjz4czXUHICYo+UzrZmPzhcmyvY86uejUfx3reo6yV0KJ8p5Dw917xDgDc7PTiE/D97z36pfhXMYqdbic6AMvXOSunWx1ujWkzlj4VIv2HCW4n7WZsdxqxvrOZV52PLqzG4o5Tf85ry+syjBQfCpyQIAYnGHlPdTpY+pxVcCBCAaofIkxwpTAQotqNvQIJhVpAlI5jMs1YCEyRV7SmJkqwkppYVeOwVeBmSomXUu6kVsyyCp60dLTN71ENzmr/ppjlPL83ZhuF8jxP/1rwy+m6bTWDWZlX8TcX0EJdZmdqoQX4VC41WbP9y/diM1PuMnAbuBLbgOYTs2H8vScfjN8cbsZmv0cz1uu1Tds13tpwy4BUX6spxyaUQ/d998d6cxxPD6/FEjb6dGcl+jiBfmw7FxnJ60XVXKdt9mOCE7WzPYwhvpNT8ZYfOib4Iqy8Tzp1mcKElbVQZShbm8/jTGOzK7jr+458c5okCASMWW84z7aAxJz+Fce8+Dol3+45BMludjt3Kv9kbyz17YnWxlY4ZH0OEqIPV7j46FPM00ErBhvd2Lq4hCbyfuvF1FD5TB+Dq9SDz6Ozzt4YEPnU7Kfmg/ivnv58/MpoM6508D05663RybJq4NzqcMuc7TIqC99ypz6AqT4IMWrP41qLqefOTiy0/BqlX+uO6HEuXWLy58Kb02B7jHc5dUFzNI3hSHMGy/xIbwrS7Ne3GXNkljqyOqpJWqpfc9axpJih7CeYdvOxl4wu5qkuU/40Z5YzXY14XSiCTACWW2Sv1/XcoeQpYKpCajz6OFmOwWY3Nq80Y3DVG9DW0JhevoGCBD1TfGde5s2ZnynNGPUX41ONYfxPFx+Jjw6vxjU/A+lyyqQ8tOFzfoXeQvOtDLfERzIkD4ps2ZHUSsB2G6n6VGen3YpnO+N4argdfcC0Hz+or8mG9+oYtU8+iox6y+ks/cUHJ2Lu0Mr1xd+WT4B4oxz1pjOeo6w0bnv1dhdUMK9EDz0jsWYq9GX+1HbsGPkpePAsvdgdxdZhStEm1pPZ2cvz5cDS+fu8IfNfbzvrAyyTQTeuXW5gytox2dnHrHYJLlYzLRdxyevdj9k3NFH2ibQtzn+2MYr/+uqX4pcGl/EJmAG78Eu68wjvDs0Bk02Wdm9luGVAel7aELjC8B7oUasV661ZnGU2MabQoYWV2I8pW5i0YtSBMWgwVXHKgc67vqTvpAKYjpuYO8yeL9LkrwUY/aSEbU+m3osjEEvRvHWDNj22/RRuBRz3BV+tebKCBN2eaFo1GMq6UZU1BchWzZmLiCRm+vVtrv9Yt0503i3JlNx3DOQfQXrI0vYlRelMLwMgtBDa59oFTNT2IiBYLFrIxUUmJp3hPLqMLM3eGJq86Nz1SwxonCu9Vvxadyf+7hV8ou2LsbngyvU8/PKSYyaDtDkgaPtrEW4dkJKJZfcrBTWBwJCVE5zla4Dpyngnp7eHl/bH4hjTxQiqMAN4KpFTp1Nb/ScdRtdtNXnjnVGMKZMfH+ScuXXAa3kW8BQoCBz3ygKfjBQslnBEu2XPepLJxqK3il8qNddD8Uaqv+rc9VV2I/Xgw1ivcDQ/LaNFqTWJM7WYpBgvABpmYhsLsbPeww8ifbxU7ibI4SQI4cWYGao3vuEX5XUxmOTg8oLB00vN+PjsUvzv6w/FJ70fDKIn5NWTNKs/qYmSGCn82oR/4zskX3JILsNmRkk2iBAWJ404vtmI39c9Fn+496q4b6efps0g83zBk3dapoJ2SxlvAxFq48kQ4TjLYbbSY9yimJZXEAAOWblNRaXuy8rJjSa0DjVW+lLOtqQFhJYb0WC6ddtw1m/QvNb7ibsMe5KyjKC7OZTbZgUOdWf91Caw0B4NJhO+78i3rm0DHL+kMBt7C4uayQFBhC63rqP56Sy/BHGNPnrzRAeeeYF8hJtwdnEW/2J2Lv6v7Ufi4c4ohjjWkzYazbWUtM1lgImipFKy3Pm9JH/V4eUFkoHW1DBaBe+X0Rc6eGUc3zE/FN+7dFfcv9OLQ2O1zjQmnXkMyKyH4OPWKeyMVMNxOrYcNxqABr9KEAqq/kIren2EAMd7WAYFmkLNvIWQsinlDXlt7oZgejlnSHoJZZZYnQNVLhbWddRBrZpb0Ze2Vce4FUNM0WC7AXgw0ZjnSWMF7dPKK/b6PekQwqD0+yiWDjUNOxj0F7suidCNa71mPLg0in80eiJ+eXIuHlwY4hZQ1EzJp4pY2056CSYZJcd4i8PLByQ6KHOK+8E4cV/hom7bqOx925N4NYz9o5MT8a3Ng3GYUbsI4/JxQcsqtOSAvoYPGBSml3NFw5Qlzgn8YzrovcnNSaysqK3a0fEhRHjq8pV8Lg8PFDC4zfcU7YY9+xVIyq/EGz0iSlMNpD1AnDW7aB2cZUzvFMBM8f92ttSimCPfvOZVMGdTaA9fPMHEPgfXyDfhQWD+Yfo0596E50XwJQDXBxRPN8fxif5W/IPpE/FrjUsxBFS+znjqkyZ2TjDKD/bzvQUCqcLVNwWQNGmGHK3aavqYb+zItAKsLrK9Y6sRH+idjA/2TsXrt3qxMqQsXN4BUn7dyEVNX2rup0SzbJo9OVTqcsgW7ePdkDP4OuQ8PgqD24VMNdfS0kLu+8KqdpvIDNDn3a+HAt4CsutBryfbIj09ILYTTHB2A7OUn8yg3GAAnJkYTJ01ARw1Uq736BdZjiNNl+AVQKap8aCCXTUU4Bt4gbYZ/V4vZsMxWijimbV2/NL20/H/bj8Wn18cx0af/JpMNlBsRSU4uKg/+7DXL0r7vCffLQwvn0aqQz1wHSz1Dp2VCI99mubIxjzeNt4fH1w4GW9orsWRUStWGFmTkW9JwwdCmOVOxIr01BoVkGSpAKjSfBmCYMunYnNb/KK92qmJdtPH0ofSL6t9qb0+UgbqLO8IoA4k736+tga/xS8X+TkI31HtHaBlxmaf0DzN1DlVJWwr7VW0oI4xx/RHXevj5n7luou/ow7ehm4fTfvXzavxC6On4hPzK/F4fxq+5igZVjPOLu/Rikm56XvDTd25leHlA1Ldx2RuCTlAqoDoUgH4sZpupxfLm5M4sd2M9y2djm9fPBV3wrk1psALCk4BynjBksJWINdDeSSppHkrSwk35isap+TT18pjQtFue8/vCUV9lDyV06Rfq0/Tdm1LuIDQrMLyaOGcDRIFaJKSwlYtG4pW1e8qa2H5Aui8JXmEf7gBwJ/pDuPj03Px6zvPxOe623GBWZr3XlMqrybIjmSo5FZASioLeTeGQv7XJHxdgKQ8BFECqWKCMWcpjEB9Rge019gObs7i3qvt+ACAenvvaNw568fadkUygi4AQENUACjBNJ1y4i73bgIFoTZTecflXhNAqDBzQ0jgViG7s0cDCJwajOUWWh1mfR1POf3XrGmGKEP0klA0mHlyXhMmCN0TIzsLnXh2aRq/vXMuPrb9eHxs5WqsY9onaKn0eQQoCEoeZq2FLjVY8nNvyAw39X0v3bcovHw+UrXNPuwelOhITSIQpp8x6DBQFayPJfsSz5hMYz++xhvGS/FdnRPx/unBOD1byic8auEZEpgGHxXKGgUTDNdnyiCsap+KbEV15L5exc3h96bUudnS2F5TImAKMP30RNEw5UFK8qK98v6qKp9Bhea6l96Tk3QK5H1al5kE/G7zWvyL+TPxK71L8djCmFMUGvmsnfUW3yc/4FM17xviyqC8CSC2ZfxmAtJuKPy8Hva2nufwFEi7DorChBa+hy+jWMN/ONjqx0fap+JNrQNx92Q5juw0YoH0AcM730XO7Me1Ft9X1Ojo5AIkZjAKT/8pZ8nE8sRIEaqAs10Dh7sCr0NlyXYJcwaZdKqJAIFUppCt10kj+5rf8gSt+dEkOuYMihSjDpobol9UeAa/J6f0l78Un52vx9WFRmzTnxH9L6Z6T6iBsEtTta2P67Cb/s0IpBcbkikVAxBUubkL5Y0W8jbcg1vTeG3/QDzQPhJvaqzF3WioVSZe/RmOLXm8AV7HXRApyKxJwYKQ/OiehzUY8vzNUijpdXDfvN4Wu1cwuxoR4ZQ1JklXa6ixynnNl1Hf2ltgBfK004iLixFPxXZ8bnwlfmd6KT43vxrPLExjE98ogUtZl0b82tMrPbxygWSoBVY5l457NYUAmPqKvNE0Do6acWdjNe5t7ov7OwfjzLQfJ6cLcWDcikVMgd8t00xaTsE6R9IEWWMCqGpj7xh9brEVnydDVS6BJIiI9TkvZWjOagDZrus8ap6rzMAuNkZxIQbxidGz8aXYiIfmG3GuN40h4EoAQW9+H826NYlfAw1yq8MrG0hVcKquSSiMrbyZrg8KwGwYrRnrjxpxYCfiNfPluB8N9TrM3pn2UhxqL0QfQWj62oNJtMbjnN5brghNr8nZ1e8VlgAw1AAxfzq0hBrUdSgXgAVhdd7rXYDHG/uGWNdnZ9vxWGzFg9Or8cXx1Xh0vB5PL45jE2B53ttm2nSxifnzCeW8ONe24wKqaLpXcnjlAanIQ4ntBi9dlS8YchoA5M1fmg78nnRUyaAvkWVh+jKg2TdpxfFpN96+vRxn+vviVe3VOB79WMbPWmp2okf5Hj65b58TAwO0wAuFotHKVk1TB1efvSaos+y3aPz43zW0ztPNQXy5sROPNLfjIYDzRHMnzrXHcQ3/J28QSm0mUNFeYzQl034117RLJfaRvxxArqa+wsM3BJAc/dWAL8F9B6l5jGIotzq+mBk0Tj2dV2ssDmZxaNSKE42FONLoxonOchxvLsap5lJeillDmx0cd/PRZleV82kY4x4aDC6EmpY+Dg7YBjMs13q8k+ESeuTidCe2ZuP4XFyOZ5vDODfbiYstQNWZx5j8zhnTORdABE20wb5l/0RpHao+GXOp4BUeviGAlGGPg2seX5Mtg4t5Ksk5wj3Jpp5u6xu7cOesL2dySMy7Mtsce/eBr+hcxHautdBS7U4st7rhq6n6zXYseEemdWVNzK5mkxjMJzFkVjjAIG5Np7E+HeRnWv16x47nQIAr0b5sTO2UU3S0i49XG3ad80Jk6adRco31scGypkHvKz18Q/hIN4SCjxKei/I6T57npwKV2wQGW02GQs3LIuTJt7EBTIHmOpagu1krTdA8mjCNjo+be9EFS5m+UL4kw7sQqDu1SwW/4ozr15nozK7kzcMb6CzbG5JqBO8ZQ6/U8MoFUs3ROtxM5R7TVgs7hZhJJpqCBDLB41KheW6eBelu51pTVQy8UD0zPUCWDnYpimLx4zSulmeukkiwTvMmMEl266WTOmT5rKOUqbWl+XbP2ba0lt3dtG+U8A0LJDWGazK7gtgVRhn7JSD02onO2U9ViU+bul+tSxnUKoJNISfYCPnIUx0yqaoj6wEU5qvz2I55sqwoYls1lyHLQLDnieimvItBB32v5rH0DTjfQ8IrOXzjaqQ6PF++vX7VDaGS1Evpebazp76blwtuoOMF2jXcQGe1rdP21vVSaPw6hpu48QoKMnBvfK7wfPkU9leMnitZXnTIMnvquDnUdd6c74a4J8/ecHPac+V7BQd6dzvcDl99uA2k2+GWhNtAuh1uSbgNpNvhloTbQLodbkm4DaTb4ZaE20C6HW5BiPj/AQ7lIew6iZB7AAAAAElFTkSuQmCC;" vertex="1" parent="1">
          <mxGeometry x="-550" y="647.3000000000001" width="33.34" height="35.4" as="geometry" />
        </mxCell>
        <mxCell id="pyKBCwHcKjXSGV7HvNYQ-107" value="&lt;font color=&quot;#d0d0d0&quot; style=&quot;font-size: 15px; background-color: rgb(62, 62, 62);&quot;&gt;(http://127.0.0.1/server)&lt;/font&gt;" style="text;html=1;align=center;verticalAlign=middle;whiteSpace=wrap;rounded=0;" vertex="1" parent="1">
          <mxGeometry x="-610" y="450" width="120" height="34.9" as="geometry" />
        </mxCell>
        <mxCell id="pyKBCwHcKjXSGV7HvNYQ-108" value="" style="image;aspect=fixed;html=1;points=[];align=center;fontSize=12;image=img/lib/azure2/databases/Cache_Redis.svg;" vertex="1" parent="1">
          <mxGeometry x="109.88000000000002" y="719.9999999999999" width="40.25" height="32.7" as="geometry" />
        </mxCell>
      </root>
    </mxGraphModel>
  </diagram>
</mxfile>
